ISO-10303-21;
HEADER;
/* Generated by software containing ST-Developer
 * from STEP Tools, Inc. (www.steptools.com) 
 */

FILE_DESCRIPTION(
/* description */ (''),
/* implementation_level */ '2;1');

FILE_NAME(
/* name */ 'DIGIBALL_v_01_00--03_03_2026_corpo.step',
/* time_stamp */ '2026-03-03T17:36:03Z',
/* author */ (''),
/* organization */ (''),
/* preprocessor_version */ 'ST-DEVELOPER v20.1',
/* originating_system */ 'Autodesk Translation Framework v14.24.0.0',
/* authorisation */ '');

FILE_SCHEMA (('AUTOMOTIVE_DESIGN { 1 0 10303 214 3 1 1 }'));
ENDSEC;

DATA;
#10=MECHANICAL_DESIGN_GEOMETRIC_PRESENTATION_REPRESENTATION('',(#13),#1482);
#11=SHAPE_REPRESENTATION_RELATIONSHIP('SRR','None',#1489,#12);
#12=ADVANCED_BREP_SHAPE_REPRESENTATION('',(#14),#1481);
#13=STYLED_ITEM('',(#1498),#14);
#14=MANIFOLD_SOLID_BREP('corpo_digiball',#762);
#15=FACE_BOUND('',#153,.T.);
#16=SPHERICAL_SURFACE('',#831,85.);
#17=CIRCLE('',#787,30.5);
#18=CIRCLE('',#794,21.5);
#19=CIRCLE('',#795,30.5);
#20=CIRCLE('',#797,30.5000000000001);
#21=CIRCLE('',#798,21.5);
#22=CIRCLE('',#801,21.5);
#23=CIRCLE('',#803,30.5);
#24=CIRCLE('',#805,30.5);
#25=CIRCLE('',#808,30.5000000000001);
#26=CIRCLE('',#809,21.5);
#27=CIRCLE('',#811,21.5);
#28=CIRCLE('',#812,30.5);
#29=CIRCLE('',#816,21.5);
#30=CIRCLE('',#820,30.5);
#31=CIRCLE('',#832,54.7722557505166);
#32=CIRCLE('',#833,85.);
#33=CIRCLE('',#834,54.7722557505166);
#34=CIRCLE('',#835,85.);
#35=CIRCLE('',#837,30.5);
#36=CIRCLE('',#838,21.5);
#37=CIRCLE('',#839,21.5);
#38=CIRCLE('',#840,21.5);
#39=CIRCLE('',#842,30.5);
#40=CIRCLE('',#844,21.5);
#41=B_SPLINE_SURFACE_WITH_KNOTS('',3,3,((#1103,#1104,#1105,#1106),(#1107,
#1108,#1109,#1110),(#1111,#1112,#1113,#1114),(#1115,#1116,#1117,#1118)),
 .UNSPECIFIED.,.F.,.F.,.F.,(4,4),(4,4),(0.,1.),(4.71238898038469,4.82330282345981),
 .UNSPECIFIED.);
#42=B_SPLINE_SURFACE_WITH_KNOTS('',3,3,((#1139,#1140,#1141,#1142),(#1143,
#1144,#1145,#1146),(#1147,#1148,#1149,#1150),(#1151,#1152,#1153,#1154)),
 .UNSPECIFIED.,.F.,.F.,.F.,(4,4),(4,4),(0.,1.),(-2.06279220613579,-2.02279220613579),
 .UNSPECIFIED.);
#43=B_SPLINE_SURFACE_WITH_KNOTS('',3,3,((#1382,#1383,#1384,#1385),(#1386,
#1387,#1388,#1389),(#1390,#1391,#1392,#1393),(#1394,#1395,#1396,#1397)),
 .UNSPECIFIED.,.F.,.F.,.F.,(4,4),(4,4),(0.,1.),(-2.06279220613579,-2.02279220613579),
 .UNSPECIFIED.);
#44=B_SPLINE_SURFACE_WITH_KNOTS('',3,3,((#1400,#1401,#1402,#1403),(#1404,
#1405,#1406,#1407),(#1408,#1409,#1410,#1411),(#1412,#1413,#1414,#1415)),
 .UNSPECIFIED.,.F.,.F.,.F.,(4,4),(4,4),(0.,1.),(4.71238898038469,4.82330282345981),
 .UNSPECIFIED.);
#45=B_SPLINE_CURVE_WITH_KNOTS('',3,(#1067,#1068,#1069,#1070,#1071,#1072,
#1073,#1074,#1075,#1076),.UNSPECIFIED.,.F.,.F.,(4,2,2,2,4),(0.227817346801438,
0.285745616103289,0.343673885405139,0.400154318367009,0.456634751328878),
 .UNSPECIFIED.);
#46=B_SPLINE_CURVE_WITH_KNOTS('',3,(#1080,#1081,#1082,#1083,#1084,#1085,
#1086,#1087,#1088,#1089),.UNSPECIFIED.,.F.,.F.,(4,2,2,2,4),(-0.231910558460689,
-0.172422450638009,-0.112934342815329,-0.0564671714076646,0.),
 .UNSPECIFIED.);
#47=B_SPLINE_CURVE_WITH_KNOTS('',3,(#1121,#1122,#1123,#1124,#1125,#1126,
#1127),.UNSPECIFIED.,.F.,.F.,(4,3,4),(-3.46944695195361E-18,0.0272308474984472,
0.0539694640127591),.UNSPECIFIED.);
#48=B_SPLINE_CURVE_WITH_KNOTS('',3,(#1129,#1130,#1131,#1132),
 .UNSPECIFIED.,.F.,.F.,(4,4),(4.71238898038469,4.75509266990971),
 .UNSPECIFIED.);
#49=B_SPLINE_CURVE_WITH_KNOTS('',3,(#1135,#1136,#1137,#1138),
 .UNSPECIFIED.,.F.,.F.,(4,4),(-4.82330282345981,-4.71238898038469),
 .UNSPECIFIED.);
#50=B_SPLINE_CURVE_WITH_KNOTS('',3,(#1155,#1156,#1157,#1158),
 .UNSPECIFIED.,.F.,.F.,(4,4),(-2.06279220613579,-2.02279220613579),
 .UNSPECIFIED.);
#51=B_SPLINE_CURVE_WITH_KNOTS('',3,(#1159,#1160,#1161,#1162),
 .UNSPECIFIED.,.F.,.F.,(4,4),(2.02279220613579,2.06279220613579),
 .UNSPECIFIED.);
#52=B_SPLINE_CURVE_WITH_KNOTS('',3,(#1169,#1170,#1171,#1172,#1173,#1174,
#1175,#1176,#1177,#1178),.UNSPECIFIED.,.F.,.F.,(4,2,2,2,4),(-0.230552314255819,
-0.172189090319131,-0.113825866382443,-0.0569129331912213,0.),
 .UNSPECIFIED.);
#53=B_SPLINE_CURVE_WITH_KNOTS('',3,(#1181,#1182,#1183,#1184,#1185,#1186,
#1187,#1188,#1189,#1190),.UNSPECIFIED.,.F.,.F.,(4,2,2,2,4),(0.286991869281437,
0.301466635648295,0.363198802073966,0.419368922340602,0.475539042607238),
 .UNSPECIFIED.);
#54=B_SPLINE_CURVE_WITH_KNOTS('',3,(#1200,#1201,#1202,#1203,#1204,#1205,
#1206,#1207,#1208,#1209),.UNSPECIFIED.,.F.,.F.,(4,2,2,2,4),(0.638740493764811,
0.713565149014566,0.788389804264322,0.871316935992946,0.95424406772157),
 .UNSPECIFIED.);
#55=B_SPLINE_CURVE_WITH_KNOTS('',3,(#1213,#1214,#1215,#1216,#1217,#1218,
#1219,#1220,#1221,#1222),.UNSPECIFIED.,.F.,.F.,(4,2,2,2,4),(0.,0.0750971595247616,
0.150194319049523,0.229032405538156,0.307870492026788),.UNSPECIFIED.);
#56=B_SPLINE_CURVE_WITH_KNOTS('',3,(#1259,#1260,#1261,#1262,#1263,#1264,
#1265,#1266,#1267,#1268),.UNSPECIFIED.,.F.,.F.,(4,2,2,2,4),(0.227817346801438,
0.285745616103289,0.343673885405139,0.400154318367009,0.456634751328878),
 .UNSPECIFIED.);
#57=B_SPLINE_CURVE_WITH_KNOTS('',3,(#1302,#1303,#1304,#1305,#1306,#1307,
#1308,#1309,#1310,#1311),.UNSPECIFIED.,.F.,.F.,(4,2,2,2,4),(0.638740493764812,
0.713565149014567,0.788389804264322,0.871316935992947,0.954244067721571),
 .UNSPECIFIED.);
#58=B_SPLINE_CURVE_WITH_KNOTS('',3,(#1314,#1315,#1316,#1317,#1318,#1319,
#1320,#1321,#1322,#1323),.UNSPECIFIED.,.F.,.F.,(4,2,2,2,4),(0.,0.0750971595247616,
0.150194319049523,0.229032405538156,0.307870492026788),.UNSPECIFIED.);
#59=B_SPLINE_CURVE_WITH_KNOTS('',3,(#1333,#1334,#1335,#1336),
 .UNSPECIFIED.,.F.,.F.,(4,4),(-2.06279220613579,-2.02279220613579),
 .UNSPECIFIED.);
#60=B_SPLINE_CURVE_WITH_KNOTS('',3,(#1338,#1339,#1340,#1341),
 .UNSPECIFIED.,.F.,.F.,(4,4),(4.71238898038469,4.75509266990971),
 .UNSPECIFIED.);
#61=B_SPLINE_CURVE_WITH_KNOTS('',3,(#1347,#1348,#1349,#1350),
 .UNSPECIFIED.,.F.,.F.,(4,4),(2.02279220613579,2.06279220613579),
 .UNSPECIFIED.);
#62=B_SPLINE_CURVE_WITH_KNOTS('',3,(#1353,#1354,#1355,#1356,#1357,#1358,
#1359,#1360,#1361,#1362),.UNSPECIFIED.,.F.,.F.,(4,2,2,2,4),(-0.230552314255819,
-0.17218909031913,-0.113825866382442,-0.0569129331912208,0.),
 .UNSPECIFIED.);
#63=B_SPLINE_CURVE_WITH_KNOTS('',3,(#1364,#1365,#1366,#1367,#1368,#1369,
#1370,#1371,#1372,#1373),.UNSPECIFIED.,.F.,.F.,(4,2,2,2,4),(0.286940037092593,
0.300254720968458,0.360774972714293,0.418159562086006,0.475544151457719),
 .UNSPECIFIED.);
#64=B_SPLINE_CURVE_WITH_KNOTS('',3,(#1374,#1375,#1376,#1377),
 .UNSPECIFIED.,.F.,.F.,(4,4),(-4.82330282345981,-4.71238898038469),
 .UNSPECIFIED.);
#65=B_SPLINE_CURVE_WITH_KNOTS('',3,(#1416,#1417,#1418,#1419,#1420,#1421,
#1422),.UNSPECIFIED.,.F.,.F.,(4,3,4),(0.,0.027230847498456,0.0539694640127852),
 .UNSPECIFIED.);
#66=B_SPLINE_CURVE_WITH_KNOTS('',3,(#1432,#1433,#1434,#1435,#1436,#1437,
#1438,#1439,#1440,#1441),.UNSPECIFIED.,.F.,.F.,(4,2,2,2,4),(-0.231910558460689,
-0.172422450638009,-0.112934342815329,-0.0564671714076644,0.),
 .UNSPECIFIED.);
#67=CYLINDRICAL_SURFACE('',#782,1.5);
#68=CYLINDRICAL_SURFACE('',#788,1.5);
#69=CYLINDRICAL_SURFACE('',#790,2.);
#70=CYLINDRICAL_SURFACE('',#802,30.5);
#71=CYLINDRICAL_SURFACE('',#814,2.);
#72=CYLINDRICAL_SURFACE('',#818,1.5);
#73=CYLINDRICAL_SURFACE('',#824,1.5);
#74=CYLINDRICAL_SURFACE('',#841,30.5);
#75=CYLINDRICAL_SURFACE('',#845,21.5);
#76=FACE_OUTER_BOUND('',#116,.T.);
#77=FACE_OUTER_BOUND('',#117,.T.);
#78=FACE_OUTER_BOUND('',#118,.T.);
#79=FACE_OUTER_BOUND('',#119,.T.);
#80=FACE_OUTER_BOUND('',#120,.T.);
#81=FACE_OUTER_BOUND('',#121,.T.);
#82=FACE_OUTER_BOUND('',#122,.T.);
#83=FACE_OUTER_BOUND('',#123,.T.);
#84=FACE_OUTER_BOUND('',#124,.T.);
#85=FACE_OUTER_BOUND('',#125,.T.);
#86=FACE_OUTER_BOUND('',#126,.T.);
#87=FACE_OUTER_BOUND('',#127,.T.);
#88=FACE_OUTER_BOUND('',#128,.T.);
#89=FACE_OUTER_BOUND('',#129,.T.);
#90=FACE_OUTER_BOUND('',#130,.T.);
#91=FACE_OUTER_BOUND('',#131,.T.);
#92=FACE_OUTER_BOUND('',#132,.T.);
#93=FACE_OUTER_BOUND('',#133,.T.);
#94=FACE_OUTER_BOUND('',#134,.T.);
#95=FACE_OUTER_BOUND('',#135,.T.);
#96=FACE_OUTER_BOUND('',#136,.T.);
#97=FACE_OUTER_BOUND('',#137,.T.);
#98=FACE_OUTER_BOUND('',#138,.T.);
#99=FACE_OUTER_BOUND('',#139,.T.);
#100=FACE_OUTER_BOUND('',#140,.T.);
#101=FACE_OUTER_BOUND('',#141,.T.);
#102=FACE_OUTER_BOUND('',#142,.T.);
#103=FACE_OUTER_BOUND('',#143,.T.);
#104=FACE_OUTER_BOUND('',#144,.T.);
#105=FACE_OUTER_BOUND('',#145,.T.);
#106=FACE_OUTER_BOUND('',#146,.T.);
#107=FACE_OUTER_BOUND('',#147,.T.);
#108=FACE_OUTER_BOUND('',#148,.T.);
#109=FACE_OUTER_BOUND('',#149,.T.);
#110=FACE_OUTER_BOUND('',#150,.T.);
#111=FACE_OUTER_BOUND('',#151,.T.);
#112=FACE_OUTER_BOUND('',#152,.T.);
#113=FACE_OUTER_BOUND('',#154,.T.);
#114=FACE_OUTER_BOUND('',#155,.T.);
#115=FACE_OUTER_BOUND('',#156,.T.);
#116=EDGE_LOOP('',(#470,#471,#472,#473));
#117=EDGE_LOOP('',(#474,#475,#476,#477));
#118=EDGE_LOOP('',(#478,#479,#480,#481));
#119=EDGE_LOOP('',(#482,#483,#484,#485));
#120=EDGE_LOOP('',(#486,#487,#488,#489));
#121=EDGE_LOOP('',(#490,#491,#492,#493));
#122=EDGE_LOOP('',(#494,#495,#496,#497));
#123=EDGE_LOOP('',(#498,#499,#500));
#124=EDGE_LOOP('',(#501,#502,#503,#504,#505,#506));
#125=EDGE_LOOP('',(#507,#508,#509,#510));
#126=EDGE_LOOP('',(#511,#512,#513,#514));
#127=EDGE_LOOP('',(#515,#516,#517,#518));
#128=EDGE_LOOP('',(#519,#520,#521,#522,#523,#524));
#129=EDGE_LOOP('',(#525,#526,#527,#528));
#130=EDGE_LOOP('',(#529,#530,#531,#532));
#131=EDGE_LOOP('',(#533,#534,#535,#536));
#132=EDGE_LOOP('',(#537));
#133=EDGE_LOOP('',(#538,#539,#540,#541,#542,#543,#544,#545,#546,#547,#548,
#549,#550,#551,#552,#553));
#134=EDGE_LOOP('',(#554,#555,#556,#557));
#135=EDGE_LOOP('',(#558,#559,#560,#561));
#136=EDGE_LOOP('',(#562,#563,#564,#565));
#137=EDGE_LOOP('',(#566,#567,#568,#569));
#138=EDGE_LOOP('',(#570,#571,#572,#573));
#139=EDGE_LOOP('',(#574,#575,#576,#577));
#140=EDGE_LOOP('',(#578,#579,#580,#581,#582,#583));
#141=EDGE_LOOP('',(#584,#585,#586,#587,#588,#589));
#142=EDGE_LOOP('',(#590,#591,#592));
#143=EDGE_LOOP('',(#593,#594,#595,#596));
#144=EDGE_LOOP('',(#597,#598,#599,#600));
#145=EDGE_LOOP('',(#601,#602,#603,#604));
#146=EDGE_LOOP('',(#605,#606,#607,#608));
#147=EDGE_LOOP('',(#609,#610,#611,#612));
#148=EDGE_LOOP('',(#613,#614,#615,#616));
#149=EDGE_LOOP('',(#617,#618,#619,#620));
#150=EDGE_LOOP('',(#621,#622,#623,#624));
#151=EDGE_LOOP('',(#625,#626,#627,#628,#629,#630));
#152=EDGE_LOOP('',(#631,#632));
#153=EDGE_LOOP('',(#633,#634,#635,#636,#637,#638,#639,#640,#641));
#154=EDGE_LOOP('',(#642,#643,#644,#645,#646,#647,#648,#649,#650,#651,#652,
#653,#654,#655,#656,#657));
#155=EDGE_LOOP('',(#658,#659,#660,#661));
#156=EDGE_LOOP('',(#662,#663,#664,#665,#666,#667,#668,#669,#670,#671,#672,
#673,#674,#675,#676,#677,#678,#679,#680,#681,#682,#683,#684,#685,#686,#687,
#688,#689,#690,#691,#692,#693,#694,#695));
#157=LINE('',#1051,#214);
#158=LINE('',#1054,#215);
#159=LINE('',#1060,#216);
#160=LINE('',#1063,#217);
#161=LINE('',#1078,#218);
#162=LINE('',#1090,#219);
#163=LINE('',#1092,#220);
#164=LINE('',#1093,#221);
#165=LINE('',#1097,#222);
#166=LINE('',#1099,#223);
#167=LINE('',#1102,#224);
#168=LINE('',#1134,#225);
#169=LINE('',#1166,#226);
#170=LINE('',#1180,#227);
#171=LINE('',#1193,#228);
#172=LINE('',#1195,#229);
#173=LINE('',#1196,#230);
#174=LINE('',#1211,#231);
#175=LINE('',#1223,#232);
#176=LINE('',#1225,#233);
#177=LINE('',#1226,#234);
#178=LINE('',#1229,#235);
#179=LINE('',#1231,#236);
#180=LINE('',#1232,#237);
#181=LINE('',#1237,#238);
#182=LINE('',#1243,#239);
#183=LINE('',#1246,#240);
#184=LINE('',#1247,#241);
#185=LINE('',#1257,#242);
#186=LINE('',#1273,#243);
#187=LINE('',#1275,#244);
#188=LINE('',#1277,#245);
#189=LINE('',#1278,#246);
#190=LINE('',#1282,#247);
#191=LINE('',#1288,#248);
#192=LINE('',#1294,#249);
#193=LINE('',#1296,#250);
#194=LINE('',#1298,#251);
#195=LINE('',#1299,#252);
#196=LINE('',#1313,#253);
#197=LINE('',#1326,#254);
#198=LINE('',#1331,#255);
#199=LINE('',#1342,#256);
#200=LINE('',#1343,#257);
#201=LINE('',#1352,#258);
#202=LINE('',#1380,#259);
#203=LINE('',#1398,#260);
#204=LINE('',#1399,#261);
#205=LINE('',#1427,#262);
#206=LINE('',#1429,#263);
#207=LINE('',#1430,#264);
#208=LINE('',#1445,#265);
#209=LINE('',#1446,#266);
#210=LINE('',#1447,#267);
#211=LINE('',#1452,#268);
#212=LINE('',#1457,#269);
#213=LINE('',#1478,#270);
#214=VECTOR('',#852,10.);
#215=VECTOR('',#855,10.);
#216=VECTOR('',#860,10.);
#217=VECTOR('',#863,10.);
#218=VECTOR('',#866,10.);
#219=VECTOR('',#867,10.);
#220=VECTOR('',#870,10.);
#221=VECTOR('',#871,10.);
#222=VECTOR('',#874,10.);
#223=VECTOR('',#875,10.);
#224=VECTOR('',#878,10.);
#225=VECTOR('',#879,10.);
#226=VECTOR('',#884,10.);
#227=VECTOR('',#887,10.);
#228=VECTOR('',#890,10.);
#229=VECTOR('',#891,10.);
#230=VECTOR('',#892,10.);
#231=VECTOR('',#895,10.);
#232=VECTOR('',#896,10.);
#233=VECTOR('',#899,10.);
#234=VECTOR('',#900,10.);
#235=VECTOR('',#903,10.);
#236=VECTOR('',#904,10.);
#237=VECTOR('',#905,10.);
#238=VECTOR('',#910,10.);
#239=VECTOR('',#917,10.);
#240=VECTOR('',#922,10.);
#241=VECTOR('',#923,10.);
#242=VECTOR('',#934,10.);
#243=VECTOR('',#939,10.);
#244=VECTOR('',#940,10.);
#245=VECTOR('',#941,10.);
#246=VECTOR('',#942,10.);
#247=VECTOR('',#945,10.);
#248=VECTOR('',#952,10.);
#249=VECTOR('',#959,10.);
#250=VECTOR('',#960,10.);
#251=VECTOR('',#961,10.);
#252=VECTOR('',#962,10.);
#253=VECTOR('',#965,10.);
#254=VECTOR('',#968,10.);
#255=VECTOR('',#973,10.);
#256=VECTOR('',#974,10.);
#257=VECTOR('',#975,10.);
#258=VECTOR('',#978,10.);
#259=VECTOR('',#981,10.);
#260=VECTOR('',#984,10.);
#261=VECTOR('',#985,10.);
#262=VECTOR('',#992,10.);
#263=VECTOR('',#993,10.);
#264=VECTOR('',#994,10.);
#265=VECTOR('',#999,10.);
#266=VECTOR('',#1000,10.);
#267=VECTOR('',#1001,10.);
#268=VECTOR('',#1006,10.);
#269=VECTOR('',#1013,10.);
#270=VECTOR('',#1044,21.5);
#271=ELLIPSE('',#777,48.0754615162455,21.5);
#272=ELLIPSE('',#778,68.2000733137436,30.5);
#273=ELLIPSE('',#780,48.0754615162455,21.5);
#274=ELLIPSE('',#781,68.2000733137436,30.5);
#275=ELLIPSE('',#785,43.1335136523796,30.5);
#276=ELLIPSE('',#804,68.2000733137436,30.5);
#277=ELLIPSE('',#822,43.1335136523795,30.5);
#278=ELLIPSE('',#827,48.0754615162456,21.5);
#279=ELLIPSE('',#828,68.2000733137437,30.5);
#280=ELLIPSE('',#830,48.0754615162455,21.5);
#281=VERTEX_POINT('',#1047);
#282=VERTEX_POINT('',#1048);
#283=VERTEX_POINT('',#1050);
#284=VERTEX_POINT('',#1052);
#285=VERTEX_POINT('',#1056);
#286=VERTEX_POINT('',#1057);
#287=VERTEX_POINT('',#1059);
#288=VERTEX_POINT('',#1061);
#289=VERTEX_POINT('',#1065);
#290=VERTEX_POINT('',#1066);
#291=VERTEX_POINT('',#1077);
#292=VERTEX_POINT('',#1079);
#293=VERTEX_POINT('',#1095);
#294=VERTEX_POINT('',#1096);
#295=VERTEX_POINT('',#1098);
#296=VERTEX_POINT('',#1100);
#297=VERTEX_POINT('',#1119);
#298=VERTEX_POINT('',#1120);
#299=VERTEX_POINT('',#1128);
#300=VERTEX_POINT('',#1133);
#301=VERTEX_POINT('',#1164);
#302=VERTEX_POINT('',#1168);
#303=VERTEX_POINT('',#1179);
#304=VERTEX_POINT('',#1192);
#305=VERTEX_POINT('',#1194);
#306=VERTEX_POINT('',#1198);
#307=VERTEX_POINT('',#1199);
#308=VERTEX_POINT('',#1210);
#309=VERTEX_POINT('',#1212);
#310=VERTEX_POINT('',#1228);
#311=VERTEX_POINT('',#1230);
#312=VERTEX_POINT('',#1234);
#313=VERTEX_POINT('',#1236);
#314=VERTEX_POINT('',#1240);
#315=VERTEX_POINT('',#1242);
#316=VERTEX_POINT('',#1249);
#317=VERTEX_POINT('',#1252);
#318=VERTEX_POINT('',#1254);
#319=VERTEX_POINT('',#1256);
#320=VERTEX_POINT('',#1258);
#321=VERTEX_POINT('',#1271);
#322=VERTEX_POINT('',#1272);
#323=VERTEX_POINT('',#1274);
#324=VERTEX_POINT('',#1276);
#325=VERTEX_POINT('',#1280);
#326=VERTEX_POINT('',#1281);
#327=VERTEX_POINT('',#1286);
#328=VERTEX_POINT('',#1287);
#329=VERTEX_POINT('',#1292);
#330=VERTEX_POINT('',#1293);
#331=VERTEX_POINT('',#1295);
#332=VERTEX_POINT('',#1297);
#333=VERTEX_POINT('',#1301);
#334=VERTEX_POINT('',#1312);
#335=VERTEX_POINT('',#1325);
#336=VERTEX_POINT('',#1329);
#337=VERTEX_POINT('',#1330);
#338=VERTEX_POINT('',#1332);
#339=VERTEX_POINT('',#1337);
#340=VERTEX_POINT('',#1345);
#341=VERTEX_POINT('',#1346);
#342=VERTEX_POINT('',#1351);
#343=VERTEX_POINT('',#1363);
#344=VERTEX_POINT('',#1379);
#345=VERTEX_POINT('',#1426);
#346=VERTEX_POINT('',#1428);
#347=VERTEX_POINT('',#1443);
#348=VERTEX_POINT('',#1444);
#349=VERTEX_POINT('',#1449);
#350=VERTEX_POINT('',#1451);
#351=VERTEX_POINT('',#1455);
#352=VERTEX_POINT('',#1459);
#353=VERTEX_POINT('',#1460);
#354=VERTEX_POINT('',#1462);
#355=VERTEX_POINT('',#1465);
#356=VERTEX_POINT('',#1470);
#357=EDGE_CURVE('',#281,#282,#271,.T.);
#358=EDGE_CURVE('',#283,#281,#157,.T.);
#359=EDGE_CURVE('',#284,#283,#272,.F.);
#360=EDGE_CURVE('',#282,#284,#158,.T.);
#361=EDGE_CURVE('',#285,#286,#273,.T.);
#362=EDGE_CURVE('',#287,#285,#159,.T.);
#363=EDGE_CURVE('',#288,#287,#274,.F.);
#364=EDGE_CURVE('',#286,#288,#160,.T.);
#365=EDGE_CURVE('',#289,#290,#45,.T.);
#366=EDGE_CURVE('',#291,#290,#161,.T.);
#367=EDGE_CURVE('',#292,#291,#46,.T.);
#368=EDGE_CURVE('',#289,#292,#162,.T.);
#369=EDGE_CURVE('',#285,#291,#163,.T.);
#370=EDGE_CURVE('',#287,#290,#164,.T.);
#371=EDGE_CURVE('',#293,#294,#165,.T.);
#372=EDGE_CURVE('',#295,#293,#166,.T.);
#373=EDGE_CURVE('',#296,#295,#275,.F.);
#374=EDGE_CURVE('',#294,#296,#167,.T.);
#375=EDGE_CURVE('',#297,#298,#47,.T.);
#376=EDGE_CURVE('',#299,#297,#48,.T.);
#377=EDGE_CURVE('',#300,#299,#168,.T.);
#378=EDGE_CURVE('',#298,#300,#49,.T.);
#379=EDGE_CURVE('',#293,#299,#50,.T.);
#380=EDGE_CURVE('',#300,#294,#51,.T.);
#381=EDGE_CURVE('',#296,#301,#17,.T.);
#382=EDGE_CURVE('',#301,#294,#169,.T.);
#383=EDGE_CURVE('',#302,#301,#52,.F.);
#384=EDGE_CURVE('',#303,#302,#170,.T.);
#385=EDGE_CURVE('',#298,#303,#53,.T.);
#386=EDGE_CURVE('',#302,#304,#171,.T.);
#387=EDGE_CURVE('',#305,#304,#172,.T.);
#388=EDGE_CURVE('',#305,#303,#173,.T.);
#389=EDGE_CURVE('',#306,#307,#54,.T.);
#390=EDGE_CURVE('',#308,#306,#174,.T.);
#391=EDGE_CURVE('',#309,#308,#55,.F.);
#392=EDGE_CURVE('',#307,#309,#175,.T.);
#393=EDGE_CURVE('',#284,#308,#176,.T.);
#394=EDGE_CURVE('',#306,#282,#177,.T.);
#395=EDGE_CURVE('',#310,#297,#178,.T.);
#396=EDGE_CURVE('',#310,#311,#179,.T.);
#397=EDGE_CURVE('',#311,#295,#180,.T.);
#398=EDGE_CURVE('',#310,#312,#18,.T.);
#399=EDGE_CURVE('',#312,#313,#181,.T.);
#400=EDGE_CURVE('',#313,#311,#19,.T.);
#401=EDGE_CURVE('',#309,#314,#20,.T.);
#402=EDGE_CURVE('',#314,#315,#182,.T.);
#403=EDGE_CURVE('',#315,#307,#21,.T.);
#404=EDGE_CURVE('',#312,#315,#183,.T.);
#405=EDGE_CURVE('',#313,#314,#184,.T.);
#406=EDGE_CURVE('',#316,#316,#22,.T.);
#407=EDGE_CURVE('',#283,#317,#23,.T.);
#408=EDGE_CURVE('',#317,#318,#276,.F.);
#409=EDGE_CURVE('',#318,#319,#185,.T.);
#410=EDGE_CURVE('',#320,#319,#56,.T.);
#411=EDGE_CURVE('',#304,#320,#24,.T.);
#412=EDGE_CURVE('',#321,#322,#186,.T.);
#413=EDGE_CURVE('',#321,#323,#187,.T.);
#414=EDGE_CURVE('',#324,#323,#188,.T.);
#415=EDGE_CURVE('',#322,#324,#189,.T.);
#416=EDGE_CURVE('',#325,#326,#190,.T.);
#417=EDGE_CURVE('',#326,#324,#25,.T.);
#418=EDGE_CURVE('',#323,#325,#26,.T.);
#419=EDGE_CURVE('',#327,#328,#191,.T.);
#420=EDGE_CURVE('',#327,#321,#27,.T.);
#421=EDGE_CURVE('',#322,#328,#28,.T.);
#422=EDGE_CURVE('',#329,#330,#192,.T.);
#423=EDGE_CURVE('',#330,#331,#193,.T.);
#424=EDGE_CURVE('',#332,#331,#194,.T.);
#425=EDGE_CURVE('',#332,#329,#195,.T.);
#426=EDGE_CURVE('',#333,#325,#57,.T.);
#427=EDGE_CURVE('',#334,#333,#196,.T.);
#428=EDGE_CURVE('',#326,#334,#58,.F.);
#429=EDGE_CURVE('',#320,#335,#197,.T.);
#430=EDGE_CURVE('',#335,#305,#29,.T.);
#431=EDGE_CURVE('',#336,#337,#198,.T.);
#432=EDGE_CURVE('',#337,#338,#59,.T.);
#433=EDGE_CURVE('',#338,#339,#60,.T.);
#434=EDGE_CURVE('',#327,#339,#199,.T.);
#435=EDGE_CURVE('',#328,#336,#200,.T.);
#436=EDGE_CURVE('',#340,#341,#61,.T.);
#437=EDGE_CURVE('',#342,#341,#201,.T.);
#438=EDGE_CURVE('',#330,#342,#62,.F.);
#439=EDGE_CURVE('',#343,#329,#63,.T.);
#440=EDGE_CURVE('',#343,#340,#64,.T.);
#441=EDGE_CURVE('',#341,#344,#202,.T.);
#442=EDGE_CURVE('',#344,#342,#30,.T.);
#443=EDGE_CURVE('',#340,#338,#203,.T.);
#444=EDGE_CURVE('',#337,#341,#204,.T.);
#445=EDGE_CURVE('',#339,#343,#65,.T.);
#446=EDGE_CURVE('',#344,#336,#277,.F.);
#447=EDGE_CURVE('',#318,#345,#205,.T.);
#448=EDGE_CURVE('',#345,#346,#206,.T.);
#449=EDGE_CURVE('',#346,#319,#207,.T.);
#450=EDGE_CURVE('',#335,#346,#66,.T.);
#451=EDGE_CURVE('',#347,#348,#208,.T.);
#452=EDGE_CURVE('',#348,#334,#209,.T.);
#453=EDGE_CURVE('',#333,#347,#210,.T.);
#454=EDGE_CURVE('',#349,#347,#278,.T.);
#455=EDGE_CURVE('',#350,#349,#211,.T.);
#456=EDGE_CURVE('',#348,#350,#279,.F.);
#457=EDGE_CURVE('',#345,#351,#280,.T.);
#458=EDGE_CURVE('',#351,#317,#212,.T.);
#459=EDGE_CURVE('',#352,#353,#31,.T.);
#460=EDGE_CURVE('',#354,#352,#32,.T.);
#461=EDGE_CURVE('',#353,#352,#33,.T.);
#462=EDGE_CURVE('',#353,#355,#34,.T.);
#463=EDGE_CURVE('',#350,#288,#35,.T.);
#464=EDGE_CURVE('',#349,#351,#36,.T.);
#465=EDGE_CURVE('',#281,#356,#37,.T.);
#466=EDGE_CURVE('',#356,#286,#38,.T.);
#467=EDGE_CURVE('',#331,#289,#39,.T.);
#468=EDGE_CURVE('',#292,#332,#40,.T.);
#469=EDGE_CURVE('',#316,#356,#213,.T.);
#470=ORIENTED_EDGE('',*,*,#357,.F.);
#471=ORIENTED_EDGE('',*,*,#358,.F.);
#472=ORIENTED_EDGE('',*,*,#359,.F.);
#473=ORIENTED_EDGE('',*,*,#360,.F.);
#474=ORIENTED_EDGE('',*,*,#361,.F.);
#475=ORIENTED_EDGE('',*,*,#362,.F.);
#476=ORIENTED_EDGE('',*,*,#363,.F.);
#477=ORIENTED_EDGE('',*,*,#364,.F.);
#478=ORIENTED_EDGE('',*,*,#365,.T.);
#479=ORIENTED_EDGE('',*,*,#366,.F.);
#480=ORIENTED_EDGE('',*,*,#367,.F.);
#481=ORIENTED_EDGE('',*,*,#368,.F.);
#482=ORIENTED_EDGE('',*,*,#362,.T.);
#483=ORIENTED_EDGE('',*,*,#369,.T.);
#484=ORIENTED_EDGE('',*,*,#366,.T.);
#485=ORIENTED_EDGE('',*,*,#370,.F.);
#486=ORIENTED_EDGE('',*,*,#371,.F.);
#487=ORIENTED_EDGE('',*,*,#372,.F.);
#488=ORIENTED_EDGE('',*,*,#373,.F.);
#489=ORIENTED_EDGE('',*,*,#374,.F.);
#490=ORIENTED_EDGE('',*,*,#375,.F.);
#491=ORIENTED_EDGE('',*,*,#376,.F.);
#492=ORIENTED_EDGE('',*,*,#377,.F.);
#493=ORIENTED_EDGE('',*,*,#378,.F.);
#494=ORIENTED_EDGE('',*,*,#377,.T.);
#495=ORIENTED_EDGE('',*,*,#379,.F.);
#496=ORIENTED_EDGE('',*,*,#371,.T.);
#497=ORIENTED_EDGE('',*,*,#380,.F.);
#498=ORIENTED_EDGE('',*,*,#374,.T.);
#499=ORIENTED_EDGE('',*,*,#381,.T.);
#500=ORIENTED_EDGE('',*,*,#382,.T.);
#501=ORIENTED_EDGE('',*,*,#380,.T.);
#502=ORIENTED_EDGE('',*,*,#382,.F.);
#503=ORIENTED_EDGE('',*,*,#383,.F.);
#504=ORIENTED_EDGE('',*,*,#384,.F.);
#505=ORIENTED_EDGE('',*,*,#385,.F.);
#506=ORIENTED_EDGE('',*,*,#378,.T.);
#507=ORIENTED_EDGE('',*,*,#384,.T.);
#508=ORIENTED_EDGE('',*,*,#386,.T.);
#509=ORIENTED_EDGE('',*,*,#387,.F.);
#510=ORIENTED_EDGE('',*,*,#388,.T.);
#511=ORIENTED_EDGE('',*,*,#389,.F.);
#512=ORIENTED_EDGE('',*,*,#390,.F.);
#513=ORIENTED_EDGE('',*,*,#391,.F.);
#514=ORIENTED_EDGE('',*,*,#392,.F.);
#515=ORIENTED_EDGE('',*,*,#360,.T.);
#516=ORIENTED_EDGE('',*,*,#393,.T.);
#517=ORIENTED_EDGE('',*,*,#390,.T.);
#518=ORIENTED_EDGE('',*,*,#394,.T.);
#519=ORIENTED_EDGE('',*,*,#372,.T.);
#520=ORIENTED_EDGE('',*,*,#379,.T.);
#521=ORIENTED_EDGE('',*,*,#376,.T.);
#522=ORIENTED_EDGE('',*,*,#395,.F.);
#523=ORIENTED_EDGE('',*,*,#396,.T.);
#524=ORIENTED_EDGE('',*,*,#397,.T.);
#525=ORIENTED_EDGE('',*,*,#396,.F.);
#526=ORIENTED_EDGE('',*,*,#398,.T.);
#527=ORIENTED_EDGE('',*,*,#399,.T.);
#528=ORIENTED_EDGE('',*,*,#400,.T.);
#529=ORIENTED_EDGE('',*,*,#392,.T.);
#530=ORIENTED_EDGE('',*,*,#401,.T.);
#531=ORIENTED_EDGE('',*,*,#402,.T.);
#532=ORIENTED_EDGE('',*,*,#403,.T.);
#533=ORIENTED_EDGE('',*,*,#399,.F.);
#534=ORIENTED_EDGE('',*,*,#404,.T.);
#535=ORIENTED_EDGE('',*,*,#402,.F.);
#536=ORIENTED_EDGE('',*,*,#405,.F.);
#537=ORIENTED_EDGE('',*,*,#406,.T.);
#538=ORIENTED_EDGE('',*,*,#407,.T.);
#539=ORIENTED_EDGE('',*,*,#408,.T.);
#540=ORIENTED_EDGE('',*,*,#409,.T.);
#541=ORIENTED_EDGE('',*,*,#410,.F.);
#542=ORIENTED_EDGE('',*,*,#411,.F.);
#543=ORIENTED_EDGE('',*,*,#386,.F.);
#544=ORIENTED_EDGE('',*,*,#383,.T.);
#545=ORIENTED_EDGE('',*,*,#381,.F.);
#546=ORIENTED_EDGE('',*,*,#373,.T.);
#547=ORIENTED_EDGE('',*,*,#397,.F.);
#548=ORIENTED_EDGE('',*,*,#400,.F.);
#549=ORIENTED_EDGE('',*,*,#405,.T.);
#550=ORIENTED_EDGE('',*,*,#401,.F.);
#551=ORIENTED_EDGE('',*,*,#391,.T.);
#552=ORIENTED_EDGE('',*,*,#393,.F.);
#553=ORIENTED_EDGE('',*,*,#359,.T.);
#554=ORIENTED_EDGE('',*,*,#412,.F.);
#555=ORIENTED_EDGE('',*,*,#413,.T.);
#556=ORIENTED_EDGE('',*,*,#414,.F.);
#557=ORIENTED_EDGE('',*,*,#415,.F.);
#558=ORIENTED_EDGE('',*,*,#416,.T.);
#559=ORIENTED_EDGE('',*,*,#417,.T.);
#560=ORIENTED_EDGE('',*,*,#414,.T.);
#561=ORIENTED_EDGE('',*,*,#418,.T.);
#562=ORIENTED_EDGE('',*,*,#419,.F.);
#563=ORIENTED_EDGE('',*,*,#420,.T.);
#564=ORIENTED_EDGE('',*,*,#412,.T.);
#565=ORIENTED_EDGE('',*,*,#421,.T.);
#566=ORIENTED_EDGE('',*,*,#422,.T.);
#567=ORIENTED_EDGE('',*,*,#423,.T.);
#568=ORIENTED_EDGE('',*,*,#424,.F.);
#569=ORIENTED_EDGE('',*,*,#425,.T.);
#570=ORIENTED_EDGE('',*,*,#426,.F.);
#571=ORIENTED_EDGE('',*,*,#427,.F.);
#572=ORIENTED_EDGE('',*,*,#428,.F.);
#573=ORIENTED_EDGE('',*,*,#416,.F.);
#574=ORIENTED_EDGE('',*,*,#411,.T.);
#575=ORIENTED_EDGE('',*,*,#429,.T.);
#576=ORIENTED_EDGE('',*,*,#430,.T.);
#577=ORIENTED_EDGE('',*,*,#387,.T.);
#578=ORIENTED_EDGE('',*,*,#431,.T.);
#579=ORIENTED_EDGE('',*,*,#432,.T.);
#580=ORIENTED_EDGE('',*,*,#433,.T.);
#581=ORIENTED_EDGE('',*,*,#434,.F.);
#582=ORIENTED_EDGE('',*,*,#419,.T.);
#583=ORIENTED_EDGE('',*,*,#435,.T.);
#584=ORIENTED_EDGE('',*,*,#436,.T.);
#585=ORIENTED_EDGE('',*,*,#437,.F.);
#586=ORIENTED_EDGE('',*,*,#438,.F.);
#587=ORIENTED_EDGE('',*,*,#422,.F.);
#588=ORIENTED_EDGE('',*,*,#439,.F.);
#589=ORIENTED_EDGE('',*,*,#440,.T.);
#590=ORIENTED_EDGE('',*,*,#441,.T.);
#591=ORIENTED_EDGE('',*,*,#442,.T.);
#592=ORIENTED_EDGE('',*,*,#437,.T.);
#593=ORIENTED_EDGE('',*,*,#443,.T.);
#594=ORIENTED_EDGE('',*,*,#432,.F.);
#595=ORIENTED_EDGE('',*,*,#444,.T.);
#596=ORIENTED_EDGE('',*,*,#436,.F.);
#597=ORIENTED_EDGE('',*,*,#445,.F.);
#598=ORIENTED_EDGE('',*,*,#433,.F.);
#599=ORIENTED_EDGE('',*,*,#443,.F.);
#600=ORIENTED_EDGE('',*,*,#440,.F.);
#601=ORIENTED_EDGE('',*,*,#444,.F.);
#602=ORIENTED_EDGE('',*,*,#431,.F.);
#603=ORIENTED_EDGE('',*,*,#446,.F.);
#604=ORIENTED_EDGE('',*,*,#441,.F.);
#605=ORIENTED_EDGE('',*,*,#447,.T.);
#606=ORIENTED_EDGE('',*,*,#448,.T.);
#607=ORIENTED_EDGE('',*,*,#449,.T.);
#608=ORIENTED_EDGE('',*,*,#409,.F.);
#609=ORIENTED_EDGE('',*,*,#410,.T.);
#610=ORIENTED_EDGE('',*,*,#449,.F.);
#611=ORIENTED_EDGE('',*,*,#450,.F.);
#612=ORIENTED_EDGE('',*,*,#429,.F.);
#613=ORIENTED_EDGE('',*,*,#451,.T.);
#614=ORIENTED_EDGE('',*,*,#452,.T.);
#615=ORIENTED_EDGE('',*,*,#427,.T.);
#616=ORIENTED_EDGE('',*,*,#453,.T.);
#617=ORIENTED_EDGE('',*,*,#454,.F.);
#618=ORIENTED_EDGE('',*,*,#455,.F.);
#619=ORIENTED_EDGE('',*,*,#456,.F.);
#620=ORIENTED_EDGE('',*,*,#451,.F.);
#621=ORIENTED_EDGE('',*,*,#457,.F.);
#622=ORIENTED_EDGE('',*,*,#447,.F.);
#623=ORIENTED_EDGE('',*,*,#408,.F.);
#624=ORIENTED_EDGE('',*,*,#458,.F.);
#625=ORIENTED_EDGE('',*,*,#459,.F.);
#626=ORIENTED_EDGE('',*,*,#460,.F.);
#627=ORIENTED_EDGE('',*,*,#460,.T.);
#628=ORIENTED_EDGE('',*,*,#461,.F.);
#629=ORIENTED_EDGE('',*,*,#462,.T.);
#630=ORIENTED_EDGE('',*,*,#462,.F.);
#631=ORIENTED_EDGE('',*,*,#459,.T.);
#632=ORIENTED_EDGE('',*,*,#461,.T.);
#633=ORIENTED_EDGE('',*,*,#463,.F.);
#634=ORIENTED_EDGE('',*,*,#455,.T.);
#635=ORIENTED_EDGE('',*,*,#464,.T.);
#636=ORIENTED_EDGE('',*,*,#458,.T.);
#637=ORIENTED_EDGE('',*,*,#407,.F.);
#638=ORIENTED_EDGE('',*,*,#358,.T.);
#639=ORIENTED_EDGE('',*,*,#465,.T.);
#640=ORIENTED_EDGE('',*,*,#466,.T.);
#641=ORIENTED_EDGE('',*,*,#364,.T.);
#642=ORIENTED_EDGE('',*,*,#467,.F.);
#643=ORIENTED_EDGE('',*,*,#423,.F.);
#644=ORIENTED_EDGE('',*,*,#438,.T.);
#645=ORIENTED_EDGE('',*,*,#442,.F.);
#646=ORIENTED_EDGE('',*,*,#446,.T.);
#647=ORIENTED_EDGE('',*,*,#435,.F.);
#648=ORIENTED_EDGE('',*,*,#421,.F.);
#649=ORIENTED_EDGE('',*,*,#415,.T.);
#650=ORIENTED_EDGE('',*,*,#417,.F.);
#651=ORIENTED_EDGE('',*,*,#428,.T.);
#652=ORIENTED_EDGE('',*,*,#452,.F.);
#653=ORIENTED_EDGE('',*,*,#456,.T.);
#654=ORIENTED_EDGE('',*,*,#463,.T.);
#655=ORIENTED_EDGE('',*,*,#363,.T.);
#656=ORIENTED_EDGE('',*,*,#370,.T.);
#657=ORIENTED_EDGE('',*,*,#365,.F.);
#658=ORIENTED_EDGE('',*,*,#468,.T.);
#659=ORIENTED_EDGE('',*,*,#424,.T.);
#660=ORIENTED_EDGE('',*,*,#467,.T.);
#661=ORIENTED_EDGE('',*,*,#368,.T.);
#662=ORIENTED_EDGE('',*,*,#406,.F.);
#663=ORIENTED_EDGE('',*,*,#469,.T.);
#664=ORIENTED_EDGE('',*,*,#465,.F.);
#665=ORIENTED_EDGE('',*,*,#357,.T.);
#666=ORIENTED_EDGE('',*,*,#394,.F.);
#667=ORIENTED_EDGE('',*,*,#389,.T.);
#668=ORIENTED_EDGE('',*,*,#403,.F.);
#669=ORIENTED_EDGE('',*,*,#404,.F.);
#670=ORIENTED_EDGE('',*,*,#398,.F.);
#671=ORIENTED_EDGE('',*,*,#395,.T.);
#672=ORIENTED_EDGE('',*,*,#375,.T.);
#673=ORIENTED_EDGE('',*,*,#385,.T.);
#674=ORIENTED_EDGE('',*,*,#388,.F.);
#675=ORIENTED_EDGE('',*,*,#430,.F.);
#676=ORIENTED_EDGE('',*,*,#450,.T.);
#677=ORIENTED_EDGE('',*,*,#448,.F.);
#678=ORIENTED_EDGE('',*,*,#457,.T.);
#679=ORIENTED_EDGE('',*,*,#464,.F.);
#680=ORIENTED_EDGE('',*,*,#454,.T.);
#681=ORIENTED_EDGE('',*,*,#453,.F.);
#682=ORIENTED_EDGE('',*,*,#426,.T.);
#683=ORIENTED_EDGE('',*,*,#418,.F.);
#684=ORIENTED_EDGE('',*,*,#413,.F.);
#685=ORIENTED_EDGE('',*,*,#420,.F.);
#686=ORIENTED_EDGE('',*,*,#434,.T.);
#687=ORIENTED_EDGE('',*,*,#445,.T.);
#688=ORIENTED_EDGE('',*,*,#439,.T.);
#689=ORIENTED_EDGE('',*,*,#425,.F.);
#690=ORIENTED_EDGE('',*,*,#468,.F.);
#691=ORIENTED_EDGE('',*,*,#367,.T.);
#692=ORIENTED_EDGE('',*,*,#369,.F.);
#693=ORIENTED_EDGE('',*,*,#361,.T.);
#694=ORIENTED_EDGE('',*,*,#466,.F.);
#695=ORIENTED_EDGE('',*,*,#469,.F.);
#696=PLANE('',#776);
#697=PLANE('',#779);
#698=PLANE('',#783);
#699=PLANE('',#784);
#700=PLANE('',#786);
#701=PLANE('',#789);
#702=PLANE('',#791);
#703=PLANE('',#792);
#704=PLANE('',#793);
#705=PLANE('',#796);
#706=PLANE('',#799);
#707=PLANE('',#800);
#708=PLANE('',#806);
#709=PLANE('',#807);
#710=PLANE('',#810);
#711=PLANE('',#813);
#712=PLANE('',#815);
#713=PLANE('',#817);
#714=PLANE('',#819);
#715=PLANE('',#821);
#716=PLANE('',#823);
#717=PLANE('',#825);
#718=PLANE('',#826);
#719=PLANE('',#829);
#720=PLANE('',#836);
#721=PLANE('',#843);
#722=ADVANCED_FACE('',(#76),#696,.F.);
#723=ADVANCED_FACE('',(#77),#697,.F.);
#724=ADVANCED_FACE('',(#78),#67,.F.);
#725=ADVANCED_FACE('',(#79),#698,.T.);
#726=ADVANCED_FACE('',(#80),#699,.F.);
#727=ADVANCED_FACE('',(#81),#41,.F.);
#728=ADVANCED_FACE('',(#82),#42,.F.);
#729=ADVANCED_FACE('',(#83),#700,.F.);
#730=ADVANCED_FACE('',(#84),#68,.T.);
#731=ADVANCED_FACE('',(#85),#701,.F.);
#732=ADVANCED_FACE('',(#86),#69,.T.);
#733=ADVANCED_FACE('',(#87),#702,.T.);
#734=ADVANCED_FACE('',(#88),#703,.F.);
#735=ADVANCED_FACE('',(#89),#704,.F.);
#736=ADVANCED_FACE('',(#90),#705,.T.);
#737=ADVANCED_FACE('',(#91),#706,.T.);
#738=ADVANCED_FACE('',(#92),#707,.F.);
#739=ADVANCED_FACE('',(#93),#70,.F.);
#740=ADVANCED_FACE('',(#94),#708,.T.);
#741=ADVANCED_FACE('',(#95),#709,.T.);
#742=ADVANCED_FACE('',(#96),#710,.F.);
#743=ADVANCED_FACE('',(#97),#711,.F.);
#744=ADVANCED_FACE('',(#98),#71,.T.);
#745=ADVANCED_FACE('',(#99),#712,.F.);
#746=ADVANCED_FACE('',(#100),#713,.F.);
#747=ADVANCED_FACE('',(#101),#72,.T.);
#748=ADVANCED_FACE('',(#102),#714,.F.);
#749=ADVANCED_FACE('',(#103),#43,.F.);
#750=ADVANCED_FACE('',(#104),#44,.F.);
#751=ADVANCED_FACE('',(#105),#715,.F.);
#752=ADVANCED_FACE('',(#106),#716,.T.);
#753=ADVANCED_FACE('',(#107),#73,.F.);
#754=ADVANCED_FACE('',(#108),#717,.T.);
#755=ADVANCED_FACE('',(#109),#718,.F.);
#756=ADVANCED_FACE('',(#110),#719,.F.);
#757=ADVANCED_FACE('',(#111),#16,.T.);
#758=ADVANCED_FACE('',(#112,#15),#720,.T.);
#759=ADVANCED_FACE('',(#113),#74,.F.);
#760=ADVANCED_FACE('',(#114),#721,.F.);
#761=ADVANCED_FACE('',(#115),#75,.F.);
#762=CLOSED_SHELL('',(#722,#723,#724,#725,#726,#727,#728,#729,#730,#731,
#732,#733,#734,#735,#736,#737,#738,#739,#740,#741,#742,#743,#744,#745,#746,
#747,#748,#749,#750,#751,#752,#753,#754,#755,#756,#757,#758,#759,#760,#761));
#763=DERIVED_UNIT_ELEMENT(#765,1.);
#764=DERIVED_UNIT_ELEMENT(#1484,-3.);
#765=(
MASS_UNIT()
NAMED_UNIT(*)
SI_UNIT(.KILO.,.GRAM.)
);
#766=DERIVED_UNIT((#763,#764));
#767=MEASURE_REPRESENTATION_ITEM('density measure',
POSITIVE_RATIO_MEASURE(7850.),#766);
#768=PROPERTY_DEFINITION_REPRESENTATION(#773,#770);
#769=PROPERTY_DEFINITION_REPRESENTATION(#774,#771);
#770=REPRESENTATION('material name',(#772),#1481);
#771=REPRESENTATION('density',(#767),#1481);
#772=DESCRIPTIVE_REPRESENTATION_ITEM('A\X\E7o','A\X\E7o');
#773=PROPERTY_DEFINITION('material property','material name',#1491);
#774=PROPERTY_DEFINITION('material property','density of part',#1491);
#775=AXIS2_PLACEMENT_3D('',#1045,#846,#847);
#776=AXIS2_PLACEMENT_3D('',#1046,#848,#849);
#777=AXIS2_PLACEMENT_3D('',#1049,#850,#851);
#778=AXIS2_PLACEMENT_3D('',#1053,#853,#854);
#779=AXIS2_PLACEMENT_3D('',#1055,#856,#857);
#780=AXIS2_PLACEMENT_3D('',#1058,#858,#859);
#781=AXIS2_PLACEMENT_3D('',#1062,#861,#862);
#782=AXIS2_PLACEMENT_3D('',#1064,#864,#865);
#783=AXIS2_PLACEMENT_3D('',#1091,#868,#869);
#784=AXIS2_PLACEMENT_3D('',#1094,#872,#873);
#785=AXIS2_PLACEMENT_3D('',#1101,#876,#877);
#786=AXIS2_PLACEMENT_3D('',#1163,#880,#881);
#787=AXIS2_PLACEMENT_3D('',#1165,#882,#883);
#788=AXIS2_PLACEMENT_3D('',#1167,#885,#886);
#789=AXIS2_PLACEMENT_3D('',#1191,#888,#889);
#790=AXIS2_PLACEMENT_3D('',#1197,#893,#894);
#791=AXIS2_PLACEMENT_3D('',#1224,#897,#898);
#792=AXIS2_PLACEMENT_3D('',#1227,#901,#902);
#793=AXIS2_PLACEMENT_3D('',#1233,#906,#907);
#794=AXIS2_PLACEMENT_3D('',#1235,#908,#909);
#795=AXIS2_PLACEMENT_3D('',#1238,#911,#912);
#796=AXIS2_PLACEMENT_3D('',#1239,#913,#914);
#797=AXIS2_PLACEMENT_3D('',#1241,#915,#916);
#798=AXIS2_PLACEMENT_3D('',#1244,#918,#919);
#799=AXIS2_PLACEMENT_3D('',#1245,#920,#921);
#800=AXIS2_PLACEMENT_3D('',#1248,#924,#925);
#801=AXIS2_PLACEMENT_3D('',#1250,#926,#927);
#802=AXIS2_PLACEMENT_3D('',#1251,#928,#929);
#803=AXIS2_PLACEMENT_3D('',#1253,#930,#931);
#804=AXIS2_PLACEMENT_3D('',#1255,#932,#933);
#805=AXIS2_PLACEMENT_3D('',#1269,#935,#936);
#806=AXIS2_PLACEMENT_3D('',#1270,#937,#938);
#807=AXIS2_PLACEMENT_3D('',#1279,#943,#944);
#808=AXIS2_PLACEMENT_3D('',#1283,#946,#947);
#809=AXIS2_PLACEMENT_3D('',#1284,#948,#949);
#810=AXIS2_PLACEMENT_3D('',#1285,#950,#951);
#811=AXIS2_PLACEMENT_3D('',#1289,#953,#954);
#812=AXIS2_PLACEMENT_3D('',#1290,#955,#956);
#813=AXIS2_PLACEMENT_3D('',#1291,#957,#958);
#814=AXIS2_PLACEMENT_3D('',#1300,#963,#964);
#815=AXIS2_PLACEMENT_3D('',#1324,#966,#967);
#816=AXIS2_PLACEMENT_3D('',#1327,#969,#970);
#817=AXIS2_PLACEMENT_3D('',#1328,#971,#972);
#818=AXIS2_PLACEMENT_3D('',#1344,#976,#977);
#819=AXIS2_PLACEMENT_3D('',#1378,#979,#980);
#820=AXIS2_PLACEMENT_3D('',#1381,#982,#983);
#821=AXIS2_PLACEMENT_3D('',#1423,#986,#987);
#822=AXIS2_PLACEMENT_3D('',#1424,#988,#989);
#823=AXIS2_PLACEMENT_3D('',#1425,#990,#991);
#824=AXIS2_PLACEMENT_3D('',#1431,#995,#996);
#825=AXIS2_PLACEMENT_3D('',#1442,#997,#998);
#826=AXIS2_PLACEMENT_3D('',#1448,#1002,#1003);
#827=AXIS2_PLACEMENT_3D('',#1450,#1004,#1005);
#828=AXIS2_PLACEMENT_3D('',#1453,#1007,#1008);
#829=AXIS2_PLACEMENT_3D('',#1454,#1009,#1010);
#830=AXIS2_PLACEMENT_3D('',#1456,#1011,#1012);
#831=AXIS2_PLACEMENT_3D('',#1458,#1014,#1015);
#832=AXIS2_PLACEMENT_3D('',#1461,#1016,#1017);
#833=AXIS2_PLACEMENT_3D('',#1463,#1018,#1019);
#834=AXIS2_PLACEMENT_3D('',#1464,#1020,#1021);
#835=AXIS2_PLACEMENT_3D('',#1466,#1022,#1023);
#836=AXIS2_PLACEMENT_3D('',#1467,#1024,#1025);
#837=AXIS2_PLACEMENT_3D('',#1468,#1026,#1027);
#838=AXIS2_PLACEMENT_3D('',#1469,#1028,#1029);
#839=AXIS2_PLACEMENT_3D('',#1471,#1030,#1031);
#840=AXIS2_PLACEMENT_3D('',#1472,#1032,#1033);
#841=AXIS2_PLACEMENT_3D('',#1473,#1034,#1035);
#842=AXIS2_PLACEMENT_3D('',#1474,#1036,#1037);
#843=AXIS2_PLACEMENT_3D('',#1475,#1038,#1039);
#844=AXIS2_PLACEMENT_3D('',#1476,#1040,#1041);
#845=AXIS2_PLACEMENT_3D('',#1477,#1042,#1043);
#846=DIRECTION('axis',(0.,0.,1.));
#847=DIRECTION('refdir',(1.,0.,0.));
#848=DIRECTION('center_axis',(0.894427190999916,-0.447213595499958,0.));
#849=DIRECTION('ref_axis',(0.,0.,-1.));
#850=DIRECTION('center_axis',(-0.894427190999916,0.447213595499958,0.));
#851=DIRECTION('ref_axis',(-0.447213595499958,-0.894427190999916,0.));
#852=DIRECTION('',(0.,0.,1.));
#853=DIRECTION('center_axis',(-0.894427190999916,0.447213595499958,0.));
#854=DIRECTION('ref_axis',(0.447213595499958,0.894427190999916,0.));
#855=DIRECTION('',(0.,0.,-1.));
#856=DIRECTION('center_axis',(0.894427190999916,-0.447213595499958,-9.767347488186E-17));
#857=DIRECTION('ref_axis',(-1.09202264717229E-16,0.,-1.));
#858=DIRECTION('center_axis',(-0.894427190999916,0.447213595499958,9.767347488186E-17));
#859=DIRECTION('ref_axis',(-0.447213595499958,-0.894427190999916,0.));
#860=DIRECTION('',(-1.09202264717229E-16,0.,-1.));
#861=DIRECTION('center_axis',(-0.894427190999916,0.447213595499958,9.767347488186E-17));
#862=DIRECTION('ref_axis',(0.447213595499958,0.894427190999916,0.));
#863=DIRECTION('',(1.09202264717229E-16,0.,1.));
#864=DIRECTION('center_axis',(1.09202264717229E-16,0.,1.));
#865=DIRECTION('ref_axis',(0.707106781186546,-0.707106781186549,0.));
#866=DIRECTION('',(1.09202264717229E-16,0.,1.));
#867=DIRECTION('',(-1.09202264717229E-16,0.,-1.));
#868=DIRECTION('center_axis',(-1.,0.,1.09202264717229E-16));
#869=DIRECTION('ref_axis',(-1.09202264717229E-16,0.,-1.));
#870=DIRECTION('',(0.,-1.,0.));
#871=DIRECTION('',(0.,-1.,0.));
#872=DIRECTION('center_axis',(-0.500000000000002,-0.707106781186545,-0.500000000000002));
#873=DIRECTION('ref_axis',(-0.707106781186547,0.,0.707106781186547));
#874=DIRECTION('',(-0.499999999999997,0.707106781186551,-0.499999999999999));
#875=DIRECTION('',(-0.707106781186548,0.,0.707106781186548));
#876=DIRECTION('center_axis',(0.500000000000002,0.707106781186545,0.500000000000002));
#877=DIRECTION('ref_axis',(0.499999999999998,-0.70710678118655,0.499999999999998));
#878=DIRECTION('',(0.707106781186547,0.,-0.707106781186547));
#879=DIRECTION('',(0.516470141039332,-0.683020634263433,0.516470141039334));
#880=DIRECTION('center_axis',(0.,-1.,0.));
#881=DIRECTION('ref_axis',(1.,0.,0.));
#882=DIRECTION('center_axis',(0.,1.,0.));
#883=DIRECTION('ref_axis',(1.,0.,0.));
#884=DIRECTION('',(-4.12272188478353E-16,0.,1.));
#885=DIRECTION('center_axis',(-4.12272188478353E-16,0.,1.));
#886=DIRECTION('ref_axis',(-0.707106781186547,0.707106781186548,0.));
#887=DIRECTION('',(4.12272188478353E-16,0.,-1.));
#888=DIRECTION('center_axis',(1.,0.,4.12272188478353E-16));
#889=DIRECTION('ref_axis',(4.12272188478353E-16,0.,-1.));
#890=DIRECTION('',(0.,-1.,0.));
#891=DIRECTION('',(4.12272188478353E-16,0.,-1.));
#892=DIRECTION('',(0.,1.,0.));
#893=DIRECTION('center_axis',(0.,0.,1.));
#894=DIRECTION('ref_axis',(-0.707106781186546,-0.707106781186549,0.));
#895=DIRECTION('',(0.,0.,1.));
#896=DIRECTION('',(0.,0.,-1.));
#897=DIRECTION('center_axis',(-1.,0.,0.));
#898=DIRECTION('ref_axis',(0.,0.,-1.));
#899=DIRECTION('',(0.,-1.,0.));
#900=DIRECTION('',(0.,1.,0.));
#901=DIRECTION('center_axis',(-0.707106781186548,0.,-0.707106781186548));
#902=DIRECTION('ref_axis',(-0.707106781186548,0.,0.707106781186548));
#903=DIRECTION('',(0.,1.,0.));
#904=DIRECTION('',(0.707106781186548,0.,-0.707106781186548));
#905=DIRECTION('',(0.,1.,0.));
#906=DIRECTION('center_axis',(0.,-1.,0.));
#907=DIRECTION('ref_axis',(1.,0.,0.));
#908=DIRECTION('center_axis',(0.,-1.,0.));
#909=DIRECTION('ref_axis',(-1.,0.,0.));
#910=DIRECTION('',(0.707106781186548,0.,-0.707106781186548));
#911=DIRECTION('center_axis',(0.,1.,0.));
#912=DIRECTION('ref_axis',(1.,0.,0.));
#913=DIRECTION('center_axis',(0.,-1.,0.));
#914=DIRECTION('ref_axis',(1.,0.,0.));
#915=DIRECTION('center_axis',(0.,-1.,0.));
#916=DIRECTION('ref_axis',(1.,0.,0.));
#917=DIRECTION('',(-0.707106781186547,0.,0.707106781186547));
#918=DIRECTION('center_axis',(0.,1.,0.));
#919=DIRECTION('ref_axis',(-1.,0.,0.));
#920=DIRECTION('center_axis',(-0.707106781186548,0.,-0.707106781186548));
#921=DIRECTION('ref_axis',(-0.707106781186548,0.,0.707106781186548));
#922=DIRECTION('',(0.,1.,0.));
#923=DIRECTION('',(0.,1.,0.));
#924=DIRECTION('center_axis',(0.,-1.,0.));
#925=DIRECTION('ref_axis',(-1.,0.,0.));
#926=DIRECTION('center_axis',(0.,1.,0.));
#927=DIRECTION('ref_axis',(-1.,0.,0.));
#928=DIRECTION('center_axis',(0.,1.,0.));
#929=DIRECTION('ref_axis',(1.,0.,0.));
#930=DIRECTION('center_axis',(0.,1.,0.));
#931=DIRECTION('ref_axis',(1.,0.,0.));
#932=DIRECTION('center_axis',(0.894427190999916,0.447213595499958,0.));
#933=DIRECTION('ref_axis',(0.447213595499958,-0.894427190999916,0.));
#934=DIRECTION('',(0.,-1.,0.));
#935=DIRECTION('center_axis',(0.,1.,0.));
#936=DIRECTION('ref_axis',(1.,0.,0.));
#937=DIRECTION('center_axis',(0.707106781186547,0.,0.707106781186548));
#938=DIRECTION('ref_axis',(0.707106781186548,0.,-0.707106781186547));
#939=DIRECTION('',(-0.707106781186548,0.,0.707106781186547));
#940=DIRECTION('',(0.,1.,0.));
#941=DIRECTION('',(0.707106781186548,0.,-0.707106781186547));
#942=DIRECTION('',(0.,1.,0.));
#943=DIRECTION('center_axis',(0.,-1.,0.));
#944=DIRECTION('ref_axis',(1.,0.,0.));
#945=DIRECTION('',(1.09202264717229E-16,0.,1.));
#946=DIRECTION('center_axis',(0.,-1.,0.));
#947=DIRECTION('ref_axis',(1.,0.,0.));
#948=DIRECTION('center_axis',(0.,1.,0.));
#949=DIRECTION('ref_axis',(-1.,0.,0.));
#950=DIRECTION('center_axis',(0.,-1.,0.));
#951=DIRECTION('ref_axis',(1.,0.,0.));
#952=DIRECTION('',(-0.707106781186548,0.,0.707106781186548));
#953=DIRECTION('center_axis',(0.,-1.,0.));
#954=DIRECTION('ref_axis',(-1.,0.,0.));
#955=DIRECTION('center_axis',(0.,1.,0.));
#956=DIRECTION('ref_axis',(1.,0.,0.));
#957=DIRECTION('center_axis',(-1.,0.,-2.94480134627395E-16));
#958=DIRECTION('ref_axis',(-2.94480134627395E-16,0.,1.));
#959=DIRECTION('',(-2.94480134627395E-16,0.,1.));
#960=DIRECTION('',(0.,-1.,0.));
#961=DIRECTION('',(-2.94480134627395E-16,0.,1.));
#962=DIRECTION('',(0.,1.,0.));
#963=DIRECTION('center_axis',(-1.09202264717229E-16,0.,-1.));
#964=DIRECTION('ref_axis',(0.707106781186546,-0.707106781186549,0.));
#965=DIRECTION('',(-1.09202264717229E-16,0.,-1.));
#966=DIRECTION('center_axis',(0.,-1.,0.));
#967=DIRECTION('ref_axis',(1.,0.,0.));
#968=DIRECTION('',(0.,0.,1.));
#969=DIRECTION('center_axis',(0.,-1.,0.));
#970=DIRECTION('ref_axis',(-1.,0.,0.));
#971=DIRECTION('center_axis',(0.707106781186548,0.,0.707106781186548));
#972=DIRECTION('ref_axis',(0.707106781186548,0.,-0.707106781186548));
#973=DIRECTION('',(0.707106781186548,0.,-0.707106781186548));
#974=DIRECTION('',(0.,1.,0.));
#975=DIRECTION('',(0.,1.,0.));
#976=DIRECTION('center_axis',(2.94480134627395E-16,0.,-1.));
#977=DIRECTION('ref_axis',(0.707106781186546,0.707106781186549,0.));
#978=DIRECTION('',(2.94480134627395E-16,0.,-1.));
#979=DIRECTION('center_axis',(0.,-1.,0.));
#980=DIRECTION('ref_axis',(1.,0.,0.));
#981=DIRECTION('',(-0.707106781186548,0.,0.707106781186548));
#982=DIRECTION('center_axis',(0.,1.,0.));
#983=DIRECTION('ref_axis',(1.,0.,0.));
#984=DIRECTION('',(-0.516470141039329,-0.683020634263438,-0.516470141039331));
#985=DIRECTION('',(0.5,0.70710678118655,0.499999999999998));
#986=DIRECTION('center_axis',(0.500000000000001,-0.707106781186546,0.500000000000001));
#987=DIRECTION('ref_axis',(0.707106781186548,0.,-0.707106781186548));
#988=DIRECTION('center_axis',(-0.500000000000001,0.707106781186546,-0.500000000000001));
#989=DIRECTION('ref_axis',(0.499999999999999,0.707106781186549,0.499999999999999));
#990=DIRECTION('center_axis',(1.,0.,0.));
#991=DIRECTION('ref_axis',(0.,0.,1.));
#992=DIRECTION('',(0.,0.,1.));
#993=DIRECTION('',(0.,-1.,0.));
#994=DIRECTION('',(0.,0.,-1.));
#995=DIRECTION('center_axis',(0.,0.,-1.));
#996=DIRECTION('ref_axis',(-0.707106781186547,-0.707106781186548,0.));
#997=DIRECTION('center_axis',(1.,0.,-1.09202264717229E-16));
#998=DIRECTION('ref_axis',(1.09202264717229E-16,0.,1.));
#999=DIRECTION('',(1.09202264717229E-16,0.,1.));
#1000=DIRECTION('',(0.,-1.,0.));
#1001=DIRECTION('',(0.,1.,0.));
#1002=DIRECTION('center_axis',(-0.894427190999916,-0.447213595499957,9.767347488186E-17));
#1003=DIRECTION('ref_axis',(1.09202264717229E-16,0.,1.));
#1004=DIRECTION('center_axis',(0.894427190999916,0.447213595499957,-9.767347488186E-17));
#1005=DIRECTION('ref_axis',(-0.447213595499957,0.894427190999916,0.));
#1006=DIRECTION('',(-1.09202264717229E-16,0.,-1.));
#1007=DIRECTION('center_axis',(0.894427190999916,0.447213595499957,-9.767347488186E-17));
#1008=DIRECTION('ref_axis',(0.447213595499957,-0.894427190999916,0.));
#1009=DIRECTION('center_axis',(-0.894427190999916,-0.447213595499958,0.));
#1010=DIRECTION('ref_axis',(0.,0.,1.));
#1011=DIRECTION('center_axis',(0.894427190999916,0.447213595499958,0.));
#1012=DIRECTION('ref_axis',(-0.447213595499958,0.894427190999916,0.));
#1013=DIRECTION('',(0.,0.,-1.));
#1014=DIRECTION('center_axis',(-1.,-4.17966315153E-17,0.));
#1015=DIRECTION('ref_axis',(0.,-1.,0.));
#1016=DIRECTION('center_axis',(0.,1.,0.));
#1017=DIRECTION('ref_axis',(0.,0.,1.));
#1018=DIRECTION('center_axis',(0.,1.22464679914735E-16,-1.));
#1019=DIRECTION('ref_axis',(0.,1.,1.22464679914735E-16));
#1020=DIRECTION('center_axis',(0.,1.,0.));
#1021=DIRECTION('ref_axis',(0.,0.,1.));
#1022=DIRECTION('center_axis',(0.,1.22464679914735E-16,-1.));
#1023=DIRECTION('ref_axis',(0.,1.,1.22464679914735E-16));
#1024=DIRECTION('center_axis',(0.,1.,0.));
#1025=DIRECTION('ref_axis',(0.,0.,-1.));
#1026=DIRECTION('center_axis',(0.,1.,0.));
#1027=DIRECTION('ref_axis',(1.,0.,0.));
#1028=DIRECTION('center_axis',(0.,-1.,0.));
#1029=DIRECTION('ref_axis',(-1.,0.,0.));
#1030=DIRECTION('center_axis',(0.,-1.,0.));
#1031=DIRECTION('ref_axis',(-1.,0.,0.));
#1032=DIRECTION('center_axis',(0.,-1.,0.));
#1033=DIRECTION('ref_axis',(-1.,0.,0.));
#1034=DIRECTION('center_axis',(0.,1.,0.));
#1035=DIRECTION('ref_axis',(1.,0.,0.));
#1036=DIRECTION('center_axis',(0.,1.,0.));
#1037=DIRECTION('ref_axis',(1.,0.,0.));
#1038=DIRECTION('center_axis',(0.,-1.,0.));
#1039=DIRECTION('ref_axis',(1.,0.,0.));
#1040=DIRECTION('center_axis',(0.,-1.,0.));
#1041=DIRECTION('ref_axis',(-1.,0.,0.));
#1042=DIRECTION('center_axis',(0.,-1.,0.));
#1043=DIRECTION('ref_axis',(-1.,0.,0.));
#1044=DIRECTION('',(0.,1.,0.));
#1045=CARTESIAN_POINT('',(0.,0.,0.));
#1046=CARTESIAN_POINT('Origin',(9.49999999999999,88.5,-10.0747208398049));
#1047=CARTESIAN_POINT('',(11.5,92.5,-18.1659021245849));
#1048=CARTESIAN_POINT('',(7.5,84.5,-20.1494416796099));
#1049=CARTESIAN_POINT('Origin',(0.,69.5,0.));
#1050=CARTESIAN_POINT('',(11.5,92.5,-28.2488937836511));
#1051=CARTESIAN_POINT('',(11.5,92.5,-10.0747208398049));
#1052=CARTESIAN_POINT('',(7.5,84.5,-29.563490998189));
#1053=CARTESIAN_POINT('Origin',(0.,69.5,0.));
#1054=CARTESIAN_POINT('',(7.5,84.5,-10.0747208398049));
#1055=CARTESIAN_POINT('Origin',(9.50000000000001,88.5,14.7817454990945));
#1056=CARTESIAN_POINT('',(7.5,84.5,20.1494416796099));
#1057=CARTESIAN_POINT('',(11.5,92.5,18.1659021245849));
#1058=CARTESIAN_POINT('Origin',(0.,69.5,0.));
#1059=CARTESIAN_POINT('',(7.5,84.5,29.563490998189));
#1060=CARTESIAN_POINT('',(7.5,84.5,14.7817454990945));
#1061=CARTESIAN_POINT('',(11.5,92.5,28.2488937836511));
#1062=CARTESIAN_POINT('Origin',(0.,69.5,0.));
#1063=CARTESIAN_POINT('',(11.5,92.5,14.7817454990945));
#1064=CARTESIAN_POINT('Origin',(6.,55.,27.4441059189969));
#1065=CARTESIAN_POINT('',(6.,53.5,29.9040131086114));
#1066=CARTESIAN_POINT('',(7.5,55.,29.563490998189));
#1067=CARTESIAN_POINT('Ctrl Pts',(5.99999999999999,53.5,29.9040131086114));
#1068=CARTESIAN_POINT('Ctrl Pts',(6.18932106279363,53.5,29.8660273582495));
#1069=CARTESIAN_POINT('Ctrl Pts',(6.3910490048022,53.5379775471818,29.8234911832663));
#1070=CARTESIAN_POINT('Ctrl Pts',(6.7622830602148,53.6925775359073,29.7415141100046));
#1071=CARTESIAN_POINT('Ctrl Pts',(6.93180965361261,53.8092028866099,29.7021714727099));
#1072=CARTESIAN_POINT('Ctrl Pts',(7.19646700981755,54.0764506188018,29.6391447443665));
#1073=CARTESIAN_POINT('Ctrl Pts',(7.3105795475386,54.2437405829881,29.6110037862777));
#1074=CARTESIAN_POINT('Ctrl Pts',(7.46236504765822,54.6113671635798,29.5731166176553));
#1075=CARTESIAN_POINT('Ctrl Pts',(7.5,54.8117318901271,29.563490998189));
#1076=CARTESIAN_POINT('Ctrl Pts',(7.5,55.,29.563490998189));
#1077=CARTESIAN_POINT('',(7.5,55.,20.1494416796099));
#1078=CARTESIAN_POINT('',(7.5,55.,27.4441059189969));
#1079=CARTESIAN_POINT('',(6.,53.5,20.6458228220626));
#1080=CARTESIAN_POINT('Ctrl Pts',(6.,53.5,20.6458228220626));
#1081=CARTESIAN_POINT('Ctrl Pts',(6.19041564870184,53.5,20.5904850473438));
#1082=CARTESIAN_POINT('Ctrl Pts',(6.39304975436422,53.5383590332588,20.5284507021242));
#1083=CARTESIAN_POINT('Ctrl Pts',(6.76603591573,53.6945991511226,20.4085553477461));
#1084=CARTESIAN_POINT('Ctrl Pts',(6.9364326242907,53.8124779021666,20.3508302522771));
#1085=CARTESIAN_POINT('Ctrl Pts',(7.19928023659868,54.0806698750602,20.2592876310236));
#1086=CARTESIAN_POINT('Ctrl Pts',(7.31196116495946,54.2464653885377,20.2185962898234));
#1087=CARTESIAN_POINT('Ctrl Pts',(7.46236171119197,54.6119862862202,20.1635703626883));
#1088=CARTESIAN_POINT('Ctrl Pts',(7.5,54.8117760953078,20.1494416796099));
#1089=CARTESIAN_POINT('Ctrl Pts',(7.5,55.,20.1494416796099));
#1090=CARTESIAN_POINT('',(6.,53.5,27.4441059189969));
#1091=CARTESIAN_POINT('Origin',(7.5,92.5,29.563490998189));
#1092=CARTESIAN_POINT('',(7.5,27.5,20.1494416796099));
#1093=CARTESIAN_POINT('',(7.5,92.5,29.563490998189));
#1094=CARTESIAN_POINT('Origin',(14.0345306159634,55.1,-24.9239750462362));
#1095=CARTESIAN_POINT('',(9.28284271247461,54.9,-19.8894444302728));
#1096=CARTESIAN_POINT('',(9.,55.3,-20.1722871427475));
#1097=CARTESIAN_POINT('',(9.28284271247461,54.9,-19.8894444302728));
#1098=CARTESIAN_POINT('',(15.6012441014678,54.9,-26.207845819266));
#1099=CARTESIAN_POINT('',(14.1759519722007,54.9,-24.7825536899989));
#1100=CARTESIAN_POINT('',(15.2446029346927,55.3,-26.4168900774402));
#1101=CARTESIAN_POINT('Origin',(0.,47.3999999999999,0.));
#1102=CARTESIAN_POINT('',(13.8931092597261,55.3,-25.0653964024735));
#1103=CARTESIAN_POINT('Ctrl Pts',(8.71779218935136,55.2732137494637,-19.8888095284469));
#1104=CARTESIAN_POINT('Ctrl Pts',(8.66332558980998,55.2627801651887,-19.8333526069093));
#1105=CARTESIAN_POINT('Ctrl Pts',(8.60972575947244,55.2493780083629,-19.77818759183));
#1106=CARTESIAN_POINT('Ctrl Pts',(8.55730094436514,55.2331844075833,-19.7236558616187));
#1107=CARTESIAN_POINT('Ctrl Pts',(8.81186145956757,55.1488091663091,-19.7947402582306));
#1108=CARTESIAN_POINT('Ctrl Pts',(8.75952950476247,55.1418534434592,-19.7417480887614));
#1109=CARTESIAN_POINT('Ctrl Pts',(8.70777546001204,55.1320286608929,-19.6889505875165));
#1110=CARTESIAN_POINT('Ctrl Pts',(8.65692581952298,55.1194621559045,-19.6366963369581));
#1111=CARTESIAN_POINT('Ctrl Pts',(8.90593072978379,55.0244045831546,-19.7006709880144));
#1112=CARTESIAN_POINT('Ctrl Pts',(8.85573341971496,55.0209267217296,-19.6501435706135));
#1113=CARTESIAN_POINT('Ctrl Pts',(8.80582516055164,55.014679313423,-19.599713583203));
#1114=CARTESIAN_POINT('Ctrl Pts',(8.75655069468082,55.0057399042256,-19.5497368122975));
#1115=CARTESIAN_POINT('Ctrl Pts',(9.00000000000001,54.9,-19.6066017177982));
#1116=CARTESIAN_POINT('Ctrl Pts',(8.95193733466745,54.9,-19.5585390524657));
#1117=CARTESIAN_POINT('Ctrl Pts',(8.90387486109124,54.897329965953,-19.5104765788894));
#1118=CARTESIAN_POINT('Ctrl Pts',(8.85617556983867,54.8920176525468,-19.4627772876369));
#1119=CARTESIAN_POINT('',(8.94450598959788,54.8988149624552,-19.5511077073961));
#1120=CARTESIAN_POINT('',(8.55730094436513,55.2331844075833,-19.7236558616187));
#1121=CARTESIAN_POINT('Ctrl Pts',(8.94450602835506,54.8988141841971,-19.5511077461533));
#1122=CARTESIAN_POINT('Ctrl Pts',(8.8813079376458,54.9572019883047,-19.5800204907609));
#1123=CARTESIAN_POINT('Ctrl Pts',(8.81699288124118,55.0145505114241,-19.6090725189083));
#1124=CARTESIAN_POINT('Ctrl Pts',(8.75185938456407,55.0707268085918,-19.6380997069322));
#1125=CARTESIAN_POINT('Ctrl Pts',(8.68790325576621,55.125887650253,-19.6666021929127));
#1126=CARTESIAN_POINT('Ctrl Pts',(8.6229795204891,55.180072324453,-19.6951605691926));
#1127=CARTESIAN_POINT('Ctrl Pts',(8.55730094436514,55.2331844075833,-19.7236558616187));
#1128=CARTESIAN_POINT('',(9.,54.9,-19.6066017177982));
#1129=CARTESIAN_POINT('Ctrl Pts',(9.00000000000001,54.9,-19.6066017177982));
#1130=CARTESIAN_POINT('Ctrl Pts',(8.9814950678725,54.9,-19.5880967856707));
#1131=CARTESIAN_POINT('Ctrl Pts',(8.96299016417055,54.8996041997263,-19.5695918819688));
#1132=CARTESIAN_POINT('Ctrl Pts',(8.94450600624763,54.8988141832523,-19.5511077240458));
#1133=CARTESIAN_POINT('',(8.71779218935135,55.2732137494637,-19.8888095284469));
#1134=CARTESIAN_POINT('',(8.71779218935135,55.2732137494637,-19.8888095284469));
#1135=CARTESIAN_POINT('Ctrl Pts',(8.55730094436514,55.2331844075833,-19.7236558616187));
#1136=CARTESIAN_POINT('Ctrl Pts',(8.60972575947244,55.2493780083629,-19.77818759183));
#1137=CARTESIAN_POINT('Ctrl Pts',(8.66332558980998,55.2627801651887,-19.8333526069093));
#1138=CARTESIAN_POINT('Ctrl Pts',(8.71779218935136,55.2732137494637,-19.8888095284469));
#1139=CARTESIAN_POINT('Ctrl Pts',(8.99999999999999,55.3,-20.1722871427475));
#1140=CARTESIAN_POINT('Ctrl Pts',(8.90571909584179,55.3,-20.0780062385892));
#1141=CARTESIAN_POINT('Ctrl Pts',(8.81122369883686,55.2911114250366,-19.9839398272778));
#1142=CARTESIAN_POINT('Ctrl Pts',(8.71779218935135,55.2732137494637,-19.8888095284469));
#1143=CARTESIAN_POINT('Ctrl Pts',(9.0942809041582,55.1666666666667,-20.0780062385892));
#1144=CARTESIAN_POINT('Ctrl Pts',(9.,55.1666666666667,-19.983725334431));
#1145=CARTESIAN_POINT('Ctrl Pts',(8.90557610061064,55.1607409500244,-19.889587425504));
#1146=CARTESIAN_POINT('Ctrl Pts',(8.81186145956756,55.1488091663091,-19.7947402582306));
#1147=CARTESIAN_POINT('Ctrl Pts',(9.18856180831641,55.0333333333333,-19.983725334431));
#1148=CARTESIAN_POINT('Ctrl Pts',(9.0942809041582,55.0333333333333,-19.8894444302728));
#1149=CARTESIAN_POINT('Ctrl Pts',(8.99992850238442,55.0303704750122,-19.7952350237302));
#1150=CARTESIAN_POINT('Ctrl Pts',(8.90593072978378,55.0244045831546,-19.7006709880144));
#1151=CARTESIAN_POINT('Ctrl Pts',(9.28284271247462,54.9,-19.8894444302728));
#1152=CARTESIAN_POINT('Ctrl Pts',(9.18856180831641,54.9,-19.7951635261146));
#1153=CARTESIAN_POINT('Ctrl Pts',(9.09428090415821,54.9,-19.7008826219564));
#1154=CARTESIAN_POINT('Ctrl Pts',(9.,54.9,-19.6066017177982));
#1155=CARTESIAN_POINT('Ctrl Pts',(9.28284271247462,54.9,-19.8894444302728));
#1156=CARTESIAN_POINT('Ctrl Pts',(9.18856180831641,54.9,-19.7951635261146));
#1157=CARTESIAN_POINT('Ctrl Pts',(9.09428090415821,54.9,-19.7008826219564));
#1158=CARTESIAN_POINT('Ctrl Pts',(9.,54.9,-19.6066017177982));
#1159=CARTESIAN_POINT('Ctrl Pts',(8.71779218935135,55.2732137494637,-19.8888095284469));
#1160=CARTESIAN_POINT('Ctrl Pts',(8.81122369883686,55.2911114250366,-19.9839398272778));
#1161=CARTESIAN_POINT('Ctrl Pts',(8.90571909584179,55.3,-20.0780062385892));
#1162=CARTESIAN_POINT('Ctrl Pts',(8.99999999999999,55.3,-20.1722871427475));
#1163=CARTESIAN_POINT('Origin',(11.5506220507339,55.3,-24.5572993529315));
#1164=CARTESIAN_POINT('',(9.,55.3,-29.1418942417956));
#1165=CARTESIAN_POINT('Origin',(0.,55.3,0.));
#1166=CARTESIAN_POINT('',(9.,55.3,-22.3533705162707));
#1167=CARTESIAN_POINT('Origin',(9.,53.8,-22.3533705162707));
#1168=CARTESIAN_POINT('',(7.5,53.8,-29.563490998189));
#1169=CARTESIAN_POINT('Ctrl Pts',(9.00000000000001,55.3,-29.1418942417956));
#1170=CARTESIAN_POINT('Ctrl Pts',(8.81411859021059,55.3,-29.1993006915694));
#1171=CARTESIAN_POINT('Ctrl Pts',(8.61451068077509,55.2633444123116,-29.2587975062217));
#1172=CARTESIAN_POINT('Ctrl Pts',(8.24465919354383,55.1112738721266,-29.3651599783158));
#1173=CARTESIAN_POINT('Ctrl Pts',(8.07446972111117,54.9957900646708,-29.4121152934278));
#1174=CARTESIAN_POINT('Ctrl Pts',(7.80756783127591,54.7288881748356,-29.4840721492207));
#1175=CARTESIAN_POINT('Ctrl Pts',(7.69202971822352,54.561101952331,-29.5142166722408));
#1176=CARTESIAN_POINT('Ctrl Pts',(7.53822753834168,54.191514694777,-29.5538733925213));
#1177=CARTESIAN_POINT('Ctrl Pts',(7.5,53.9897097773041,-29.563490998189));
#1178=CARTESIAN_POINT('Ctrl Pts',(7.5,53.8,-29.563490998189));
#1179=CARTESIAN_POINT('',(7.5,53.8,-20.1494416796099));
#1180=CARTESIAN_POINT('',(7.5,53.8,-22.3533705162707));
#1181=CARTESIAN_POINT('Ctrl Pts',(8.55730094436513,55.2331844075833,-19.7236558616187));
#1182=CARTESIAN_POINT('Ctrl Pts',(8.51206666819385,55.2192119060424,-19.7432811946155));
#1183=CARTESIAN_POINT('Ctrl Pts',(8.46722771599925,55.2030092730456,-19.7625492081288));
#1184=CARTESIAN_POINT('Ctrl Pts',(8.23510215538235,55.1063022601695,-19.8613912079869));
#1185=CARTESIAN_POINT('Ctrl Pts',(8.06109101612266,54.9865062737283,-19.9321567034153));
#1186=CARTESIAN_POINT('Ctrl Pts',(7.79738955635885,54.7144968105474,-20.0366908282283));
#1187=CARTESIAN_POINT('Ctrl Pts',(7.68602436459224,54.5497029356665,-20.0793763046727));
#1188=CARTESIAN_POINT('Ctrl Pts',(7.53728663662327,54.1860779428613,-20.1356806039066));
#1189=CARTESIAN_POINT('Ctrl Pts',(7.5,53.9872337342221,-20.1494416796099));
#1190=CARTESIAN_POINT('Ctrl Pts',(7.5,53.8,-20.1494416796099));
#1191=CARTESIAN_POINT('Origin',(7.5,54.5,-20.1494416796099));
#1192=CARTESIAN_POINT('',(7.5,53.5,-29.563490998189));
#1193=CARTESIAN_POINT('',(7.5,54.5,-29.563490998189));
#1194=CARTESIAN_POINT('',(7.5,53.5,-20.1494416796099));
#1195=CARTESIAN_POINT('',(7.5,53.5,-22.7370812597074));
#1196=CARTESIAN_POINT('',(7.5,54.5,-20.1494416796099));
#1197=CARTESIAN_POINT('Origin',(9.50000000000001,69.5,-19.935847337274));
#1198=CARTESIAN_POINT('',(7.5,69.5,-20.1494416796099));
#1199=CARTESIAN_POINT('',(9.50000000000001,67.5,-19.2873015219859));
#1200=CARTESIAN_POINT('Ctrl Pts',(7.50000000000001,69.5,-20.1494416796099));
#1201=CARTESIAN_POINT('Ctrl Pts',(7.50000000000001,69.2505844825008,-20.1494416796099));
#1202=CARTESIAN_POINT('Ctrl Pts',(7.5496341734185,68.9856793288901,-20.1311757473694));
#1203=CARTESIAN_POINT('Ctrl Pts',(7.74756463180763,68.5012895042196,-20.0558334560211));
#1204=CARTESIAN_POINT('Ctrl Pts',(7.89574535359453,68.2817990472891,-19.9984909806966));
#1205=CARTESIAN_POINT('Ctrl Pts',(8.24773839736894,67.9180240160985,-19.8560986260962));
#1206=CARTESIAN_POINT('Ctrl Pts',(8.4808148198921,67.7578081427326,-19.7585753022093));
#1207=CARTESIAN_POINT('Ctrl Pts',(8.98305608205845,67.548913179165,-19.5353582387332));
#1208=CARTESIAN_POINT('Ctrl Pts',(9.25202471410801,67.5,-19.4094422586405));
#1209=CARTESIAN_POINT('Ctrl Pts',(9.50000000000001,67.5,-19.2873015219859));
#1210=CARTESIAN_POINT('',(7.5,69.5,-29.563490998189));
#1211=CARTESIAN_POINT('',(7.5,69.5,-19.935847337274));
#1212=CARTESIAN_POINT('',(9.50000000000001,67.5,-28.982753492379));
#1213=CARTESIAN_POINT('Ctrl Pts',(7.5,69.5,-29.563490998189));
#1214=CARTESIAN_POINT('Ctrl Pts',(7.5,69.2496761349175,-29.563490998189));
#1215=CARTESIAN_POINT('Ctrl Pts',(7.54993169427559,68.9831979557941,-29.550961560977));
#1216=CARTESIAN_POINT('Ctrl Pts',(7.75111245119918,68.4943942189917,-29.4988313942758));
#1217=CARTESIAN_POINT('Ctrl Pts',(7.90231283102536,68.2720682659834,-29.4590466685897));
#1218=CARTESIAN_POINT('Ctrl Pts',(8.25579320659397,67.913009241406,-29.3620013383243));
#1219=CARTESIAN_POINT('Ctrl Pts',(8.48451522605538,67.7560760869192,-29.2972754270622));
#1220=CARTESIAN_POINT('Ctrl Pts',(8.98180629743658,67.5496269122028,-29.1486620916225));
#1221=CARTESIAN_POINT('Ctrl Pts',(9.25027925393325,67.5,-29.064607243378));
#1222=CARTESIAN_POINT('Ctrl Pts',(9.5,67.5,-28.9827534923789));
#1223=CARTESIAN_POINT('',(9.50000000000001,67.5,-19.935847337274));
#1224=CARTESIAN_POINT('Origin',(7.5,92.5,-20.1494416796099));
#1225=CARTESIAN_POINT('',(7.5,92.5,-29.563490998189));
#1226=CARTESIAN_POINT('',(7.5,27.5,-20.1494416796099));
#1227=CARTESIAN_POINT('Origin',(15.6012441014678,54.5,-26.207845819266));
#1228=CARTESIAN_POINT('',(8.94450598987591,54.5,-19.5511077076741));
#1229=CARTESIAN_POINT('',(8.94450598987591,54.5,-19.5511077076741));
#1230=CARTESIAN_POINT('',(15.6012441014678,54.5,-26.207845819266));
#1231=CARTESIAN_POINT('',(11.4801518312356,54.5,-22.0867535490338));
#1232=CARTESIAN_POINT('',(15.6012441014678,92.5,-26.207845819266));
#1233=CARTESIAN_POINT('Origin',(0.,54.5,-25.3247208398049));
#1234=CARTESIAN_POINT('',(19.5511077076742,54.5,-8.944505989876));
#1235=CARTESIAN_POINT('Origin',(0.,54.5,0.));
#1236=CARTESIAN_POINT('',(26.207845819266,54.5,-15.6012441014679));
#1237=CARTESIAN_POINT('',(5.3033008588991,54.5,5.30330085889904));
#1238=CARTESIAN_POINT('Origin',(0.,54.5,0.));
#1239=CARTESIAN_POINT('Origin',(13.103922909633,67.5,-19.7222529949381));
#1240=CARTESIAN_POINT('',(26.207845819266,67.5,-15.6012441014679));
#1241=CARTESIAN_POINT('Origin',(0.,67.5,-6.21724893790088E-14));
#1242=CARTESIAN_POINT('',(19.5511077076742,67.5,-8.944505989876));
#1243=CARTESIAN_POINT('',(5.3033008588991,67.5,5.30330085889904));
#1244=CARTESIAN_POINT('Origin',(0.,67.5,0.));
#1245=CARTESIAN_POINT('Origin',(26.207845819266,54.5,-15.6012441014679));
#1246=CARTESIAN_POINT('',(19.5511077076741,27.5,-8.94450598987595));
#1247=CARTESIAN_POINT('',(26.207845819266,54.5,-15.6012441014679));
#1248=CARTESIAN_POINT('Origin',(0.,0.,0.));
#1249=CARTESIAN_POINT('',(21.5,0.,2.63299061816681E-15));
#1250=CARTESIAN_POINT('Origin',(0.,0.,0.));
#1251=CARTESIAN_POINT('Origin',(0.,92.5,0.));
#1252=CARTESIAN_POINT('',(-11.5,92.5,-28.2488937836511));
#1253=CARTESIAN_POINT('Origin',(0.,92.5,0.));
#1254=CARTESIAN_POINT('',(-7.5,84.5,-29.563490998189));
#1255=CARTESIAN_POINT('Origin',(0.,69.5,0.));
#1256=CARTESIAN_POINT('',(-7.5,55.,-29.563490998189));
#1257=CARTESIAN_POINT('',(-7.5,92.5,-29.563490998189));
#1258=CARTESIAN_POINT('',(-5.99999999999998,53.5,-29.9040131086114));
#1259=CARTESIAN_POINT('Ctrl Pts',(-5.99999999999998,53.5,-29.9040131086114));
#1260=CARTESIAN_POINT('Ctrl Pts',(-6.18932106279363,53.5,-29.8660273582495));
#1261=CARTESIAN_POINT('Ctrl Pts',(-6.3910490048022,53.5379775471818,-29.8234911832663));
#1262=CARTESIAN_POINT('Ctrl Pts',(-6.76228306021478,53.6925775359073,-29.7415141100046));
#1263=CARTESIAN_POINT('Ctrl Pts',(-6.93180965361261,53.8092028866099,-29.7021714727099));
#1264=CARTESIAN_POINT('Ctrl Pts',(-7.19646700981752,54.0764506188018,-29.6391447443665));
#1265=CARTESIAN_POINT('Ctrl Pts',(-7.31057954753858,54.2437405829881,-29.6110037862777));
#1266=CARTESIAN_POINT('Ctrl Pts',(-7.46236504765822,54.6113671635798,-29.5731166176553));
#1267=CARTESIAN_POINT('Ctrl Pts',(-7.49999999999998,54.8117318901271,-29.563490998189));
#1268=CARTESIAN_POINT('Ctrl Pts',(-7.49999999999998,55.,-29.563490998189));
#1269=CARTESIAN_POINT('Origin',(0.,53.5,0.));
#1270=CARTESIAN_POINT('Origin',(-26.207845819266,54.5,15.6012441014678));
#1271=CARTESIAN_POINT('',(-19.5511077076742,54.5,8.94450598987588));
#1272=CARTESIAN_POINT('',(-26.207845819266,54.5,15.6012441014678));
#1273=CARTESIAN_POINT('',(-5.30330085889911,54.5,-5.30330085889917));
#1274=CARTESIAN_POINT('',(-19.5511077076742,67.5,8.94450598987588));
#1275=CARTESIAN_POINT('',(-19.5511077076741,27.5,8.94450598987585));
#1276=CARTESIAN_POINT('',(-26.207845819266,67.5,15.6012441014678));
#1277=CARTESIAN_POINT('',(-5.30330085889911,67.5,-5.30330085889917));
#1278=CARTESIAN_POINT('',(-26.207845819266,54.5,15.6012441014678));
#1279=CARTESIAN_POINT('Origin',(-13.103922909633,67.5,19.7222529949379));
#1280=CARTESIAN_POINT('',(-9.49999999999999,67.5,19.2873015219859));
#1281=CARTESIAN_POINT('',(-9.49999999999999,67.5,28.9827534923789));
#1282=CARTESIAN_POINT('',(-9.49999999999999,67.5,19.9358473372739));
#1283=CARTESIAN_POINT('Origin',(0.,67.5,-6.21724893790088E-14));
#1284=CARTESIAN_POINT('Origin',(0.,67.5,0.));
#1285=CARTESIAN_POINT('Origin',(0.,54.5,25.3247208398049));
#1286=CARTESIAN_POINT('',(-8.94450598987589,54.5,19.5511077076741));
#1287=CARTESIAN_POINT('',(-15.6012441014677,54.5,26.207845819266));
#1288=CARTESIAN_POINT('',(-11.4801518312355,54.5,22.0867535490338));
#1289=CARTESIAN_POINT('Origin',(0.,54.5,0.));
#1290=CARTESIAN_POINT('Origin',(0.,54.5,0.));
#1291=CARTESIAN_POINT('Origin',(-7.5,54.5,20.1494416796099));
#1292=CARTESIAN_POINT('',(-7.5,53.8,20.1494416796099));
#1293=CARTESIAN_POINT('',(-7.5,53.8,29.563490998189));
#1294=CARTESIAN_POINT('',(-7.5,53.8,22.3533705162707));
#1295=CARTESIAN_POINT('',(-7.5,53.5,29.563490998189));
#1296=CARTESIAN_POINT('',(-7.5,54.5,29.563490998189));
#1297=CARTESIAN_POINT('',(-7.5,53.5,20.1494416796099));
#1298=CARTESIAN_POINT('',(-7.5,53.5,22.7370812597074));
#1299=CARTESIAN_POINT('',(-7.5,54.5,20.1494416796099));
#1300=CARTESIAN_POINT('Origin',(-9.49999999999999,69.5,19.9358473372739));
#1301=CARTESIAN_POINT('',(-7.5,69.5,20.1494416796099));
#1302=CARTESIAN_POINT('Ctrl Pts',(-7.49999999999999,69.5,20.1494416796099));
#1303=CARTESIAN_POINT('Ctrl Pts',(-7.49999999999999,69.2505844825008,20.1494416796099));
#1304=CARTESIAN_POINT('Ctrl Pts',(-7.54963417341848,68.9856793288901,20.1311757473694));
#1305=CARTESIAN_POINT('Ctrl Pts',(-7.74756463180761,68.5012895042196,20.0558334560211));
#1306=CARTESIAN_POINT('Ctrl Pts',(-7.89574535359453,68.2817990472891,19.9984909806966));
#1307=CARTESIAN_POINT('Ctrl Pts',(-8.24773839736892,67.9180240160985,19.8560986260962));
#1308=CARTESIAN_POINT('Ctrl Pts',(-8.48081481989208,67.7578081427326,19.7585753022093));
#1309=CARTESIAN_POINT('Ctrl Pts',(-8.98305608205845,67.548913179165,19.5353582387332));
#1310=CARTESIAN_POINT('Ctrl Pts',(-9.25202471410799,67.5,19.4094422586405));
#1311=CARTESIAN_POINT('Ctrl Pts',(-9.49999999999999,67.5,19.2873015219859));
#1312=CARTESIAN_POINT('',(-7.5,69.5,29.563490998189));
#1313=CARTESIAN_POINT('',(-7.5,69.5,19.9358473372739));
#1314=CARTESIAN_POINT('Ctrl Pts',(-7.5,69.5,29.563490998189));
#1315=CARTESIAN_POINT('Ctrl Pts',(-7.5,69.2496761349175,29.563490998189));
#1316=CARTESIAN_POINT('Ctrl Pts',(-7.54993169427557,68.9831979557941,29.550961560977));
#1317=CARTESIAN_POINT('Ctrl Pts',(-7.75111245119916,68.4943942189917,29.4988313942758));
#1318=CARTESIAN_POINT('Ctrl Pts',(-7.90231283102536,68.2720682659834,29.4590466685897));
#1319=CARTESIAN_POINT('Ctrl Pts',(-8.25579320659397,67.913009241406,29.3620013383243));
#1320=CARTESIAN_POINT('Ctrl Pts',(-8.48451522605536,67.7560760869192,29.2972754270622));
#1321=CARTESIAN_POINT('Ctrl Pts',(-8.98180629743656,67.5496269122028,29.1486620916225));
#1322=CARTESIAN_POINT('Ctrl Pts',(-9.25027925393323,67.5,29.064607243378));
#1323=CARTESIAN_POINT('Ctrl Pts',(-9.49999999999998,67.5,28.9827534923789));
#1324=CARTESIAN_POINT('Origin',(0.,53.5,-25.3247208398049));
#1325=CARTESIAN_POINT('',(-5.99999999999998,53.5,-20.6458228220626));
#1326=CARTESIAN_POINT('',(-5.99999999999998,53.5,-27.444105918997));
#1327=CARTESIAN_POINT('Origin',(0.,53.5,0.));
#1328=CARTESIAN_POINT('Origin',(-15.6012441014677,54.5,26.207845819266));
#1329=CARTESIAN_POINT('',(-15.6012441014677,54.9,26.207845819266));
#1330=CARTESIAN_POINT('',(-9.2828427124746,54.9,19.8894444302728));
#1331=CARTESIAN_POINT('',(-14.1759519722007,54.9,24.7825536899989));
#1332=CARTESIAN_POINT('',(-8.99999999999999,54.9,19.6066017177982));
#1333=CARTESIAN_POINT('Ctrl Pts',(-9.2828427124746,54.9,19.8894444302728));
#1334=CARTESIAN_POINT('Ctrl Pts',(-9.18856180831639,54.9,19.7951635261146));
#1335=CARTESIAN_POINT('Ctrl Pts',(-9.09428090415819,54.9,19.7008826219564));
#1336=CARTESIAN_POINT('Ctrl Pts',(-8.99999999999998,54.9,19.6066017177982));
#1337=CARTESIAN_POINT('',(-8.94450598959789,54.8988149624552,19.5511077073961));
#1338=CARTESIAN_POINT('Ctrl Pts',(-8.99999999999998,54.9,19.6066017177982));
#1339=CARTESIAN_POINT('Ctrl Pts',(-8.98149506787247,54.9,19.5880967856707));
#1340=CARTESIAN_POINT('Ctrl Pts',(-8.96299016417052,54.8996041997263,19.5695918819688));
#1341=CARTESIAN_POINT('Ctrl Pts',(-8.9445060062476,54.8988141832523,19.5511077240458));
#1342=CARTESIAN_POINT('',(-8.94450598987589,54.5,19.5511077076741));
#1343=CARTESIAN_POINT('',(-15.6012441014677,92.5,26.207845819266));
#1344=CARTESIAN_POINT('Origin',(-8.99999999999999,53.8,22.3533705162707));
#1345=CARTESIAN_POINT('',(-8.71779218935135,55.2732137494637,19.8888095284469));
#1346=CARTESIAN_POINT('',(-8.99999999999999,55.3,20.1722871427475));
#1347=CARTESIAN_POINT('Ctrl Pts',(-8.71779218935135,55.2732137494637,19.8888095284469));
#1348=CARTESIAN_POINT('Ctrl Pts',(-8.81122369883686,55.2911114250367,19.9839398272778));
#1349=CARTESIAN_POINT('Ctrl Pts',(-8.90571909584179,55.3,20.0780062385892));
#1350=CARTESIAN_POINT('Ctrl Pts',(-8.99999999999999,55.3,20.1722871427475));
#1351=CARTESIAN_POINT('',(-8.99999999999999,55.3,29.1418942417956));
#1352=CARTESIAN_POINT('',(-8.99999999999999,55.3,22.3533705162707));
#1353=CARTESIAN_POINT('Ctrl Pts',(-8.99999999999999,55.3,29.1418942417956));
#1354=CARTESIAN_POINT('Ctrl Pts',(-8.81411859021057,55.3,29.1993006915694));
#1355=CARTESIAN_POINT('Ctrl Pts',(-8.61451068077507,55.2633444123116,29.2587975062217));
#1356=CARTESIAN_POINT('Ctrl Pts',(-8.24465919354381,55.1112738721266,29.3651599783158));
#1357=CARTESIAN_POINT('Ctrl Pts',(-8.07446972111116,54.9957900646708,29.4121152934278));
#1358=CARTESIAN_POINT('Ctrl Pts',(-7.8075678312759,54.7288881748356,29.4840721492207));
#1359=CARTESIAN_POINT('Ctrl Pts',(-7.69202971822352,54.561101952331,29.5142166722408));
#1360=CARTESIAN_POINT('Ctrl Pts',(-7.53822753834164,54.1915146947769,29.5538733925213));
#1361=CARTESIAN_POINT('Ctrl Pts',(-7.5,53.9897097773041,29.563490998189));
#1362=CARTESIAN_POINT('Ctrl Pts',(-7.5,53.8,29.563490998189));
#1363=CARTESIAN_POINT('',(-8.55730094436513,55.2331844075833,19.7236558616187));
#1364=CARTESIAN_POINT('Ctrl Pts',(-8.55730094436513,55.2331844075833,19.7236558616187));
#1365=CARTESIAN_POINT('Ctrl Pts',(-8.5156298195275,55.2203125346302,19.7417352865706));
#1366=CARTESIAN_POINT('Ctrl Pts',(-8.47429653749689,55.2055493916009,19.7595105504093));
#1367=CARTESIAN_POINT('Ctrl Pts',(-8.24852631562042,55.1134795953475,19.8557872490923));
#1368=CARTESIAN_POINT('Ctrl Pts',(-8.07666957762262,54.9979899211823,19.9258436647029));
#1369=CARTESIAN_POINT('Ctrl Pts',(-7.80912537850046,54.7304457220601,20.0321539982578));
#1370=CARTESIAN_POINT('Ctrl Pts',(-7.69350708276335,54.5636744023403,20.0765231559216));
#1371=CARTESIAN_POINT('Ctrl Pts',(-7.53890139542612,54.1940981005301,20.1350887485218));
#1372=CARTESIAN_POINT('Ctrl Pts',(-7.49999999999998,53.9912819645724,20.1494416796099));
#1373=CARTESIAN_POINT('Ctrl Pts',(-7.49999999999998,53.8,20.1494416796099));
#1374=CARTESIAN_POINT('Ctrl Pts',(-8.55730094436512,55.2331844075833,19.7236558616187));
#1375=CARTESIAN_POINT('Ctrl Pts',(-8.60972575947242,55.2493780083629,19.77818759183));
#1376=CARTESIAN_POINT('Ctrl Pts',(-8.66332558980996,55.2627801651887,19.8333526069093));
#1377=CARTESIAN_POINT('Ctrl Pts',(-8.71779218935134,55.2732137494637,19.8888095284469));
#1378=CARTESIAN_POINT('Origin',(-11.5506220507339,55.3,24.5572993529315));
#1379=CARTESIAN_POINT('',(-15.2446029346927,55.3,26.4168900774402));
#1380=CARTESIAN_POINT('',(-13.8931092597261,55.3,25.0653964024735));
#1381=CARTESIAN_POINT('Origin',(0.,55.3,0.));
#1382=CARTESIAN_POINT('Ctrl Pts',(-8.99999999999999,55.3,20.1722871427475));
#1383=CARTESIAN_POINT('Ctrl Pts',(-8.90571909584179,55.3,20.0780062385892));
#1384=CARTESIAN_POINT('Ctrl Pts',(-8.81122369883686,55.2911114250367,19.9839398272778));
#1385=CARTESIAN_POINT('Ctrl Pts',(-8.71779218935135,55.2732137494637,19.8888095284469));
#1386=CARTESIAN_POINT('Ctrl Pts',(-9.09428090415819,55.1666666666667,20.0780062385892));
#1387=CARTESIAN_POINT('Ctrl Pts',(-8.99999999999999,55.1666666666667,19.983725334431));
#1388=CARTESIAN_POINT('Ctrl Pts',(-8.90557610061064,55.1607409500244,19.889587425504));
#1389=CARTESIAN_POINT('Ctrl Pts',(-8.81186145956756,55.1488091663091,19.7947402582307));
#1390=CARTESIAN_POINT('Ctrl Pts',(-9.1885618083164,55.0333333333333,19.983725334431));
#1391=CARTESIAN_POINT('Ctrl Pts',(-9.09428090415819,55.0333333333333,19.8894444302728));
#1392=CARTESIAN_POINT('Ctrl Pts',(-8.99992850238441,55.0303704750122,19.7952350237302));
#1393=CARTESIAN_POINT('Ctrl Pts',(-8.90593072978377,55.0244045831546,19.7006709880144));
#1394=CARTESIAN_POINT('Ctrl Pts',(-9.2828427124746,54.9,19.8894444302728));
#1395=CARTESIAN_POINT('Ctrl Pts',(-9.18856180831639,54.9,19.7951635261146));
#1396=CARTESIAN_POINT('Ctrl Pts',(-9.09428090415819,54.9,19.7008826219564));
#1397=CARTESIAN_POINT('Ctrl Pts',(-8.99999999999998,54.9,19.6066017177982));
#1398=CARTESIAN_POINT('',(-8.71779218935135,55.2732137494637,19.8888095284469));
#1399=CARTESIAN_POINT('',(-9.2828427124746,54.9,19.8894444302728));
#1400=CARTESIAN_POINT('Ctrl Pts',(-8.71779218935134,55.2732137494637,19.8888095284469));
#1401=CARTESIAN_POINT('Ctrl Pts',(-8.66332558980996,55.2627801651887,19.8333526069093));
#1402=CARTESIAN_POINT('Ctrl Pts',(-8.60972575947242,55.2493780083629,19.77818759183));
#1403=CARTESIAN_POINT('Ctrl Pts',(-8.55730094436512,55.2331844075833,19.7236558616187));
#1404=CARTESIAN_POINT('Ctrl Pts',(-8.81186145956755,55.1488091663091,19.7947402582307));
#1405=CARTESIAN_POINT('Ctrl Pts',(-8.75952950476245,55.1418534434592,19.7417480887614));
#1406=CARTESIAN_POINT('Ctrl Pts',(-8.70777546001202,55.1320286608929,19.6889505875165));
#1407=CARTESIAN_POINT('Ctrl Pts',(-8.65692581952296,55.1194621559045,19.6366963369581));
#1408=CARTESIAN_POINT('Ctrl Pts',(-8.90593072978377,55.0244045831546,19.7006709880144));
#1409=CARTESIAN_POINT('Ctrl Pts',(-8.85573341971494,55.0209267217296,19.6501435706135));
#1410=CARTESIAN_POINT('Ctrl Pts',(-8.80582516055162,55.014679313423,19.599713583203));
#1411=CARTESIAN_POINT('Ctrl Pts',(-8.7565506946808,55.0057399042256,19.5497368122975));
#1412=CARTESIAN_POINT('Ctrl Pts',(-8.99999999999998,54.9,19.6066017177982));
#1413=CARTESIAN_POINT('Ctrl Pts',(-8.95193733466742,54.9,19.5585390524657));
#1414=CARTESIAN_POINT('Ctrl Pts',(-8.90387486109121,54.897329965953,19.5104765788895));
#1415=CARTESIAN_POINT('Ctrl Pts',(-8.85617556983864,54.8920176525468,19.4627772876369));
#1416=CARTESIAN_POINT('Ctrl Pts',(-8.94450602835503,54.8988141841971,19.5511077461533));
#1417=CARTESIAN_POINT('Ctrl Pts',(-8.88130793764576,54.9572019883047,19.5800204907609));
#1418=CARTESIAN_POINT('Ctrl Pts',(-8.81699288124111,55.0145505114241,19.6090725189083));
#1419=CARTESIAN_POINT('Ctrl Pts',(-8.75185938456405,55.0707268085918,19.6380997069322));
#1420=CARTESIAN_POINT('Ctrl Pts',(-8.68790325576621,55.125887650253,19.6666021929127));
#1421=CARTESIAN_POINT('Ctrl Pts',(-8.62297952048913,55.1800723244529,19.6951605691925));
#1422=CARTESIAN_POINT('Ctrl Pts',(-8.55730094436512,55.2331844075833,19.7236558616187));
#1423=CARTESIAN_POINT('Origin',(-14.0345306159634,55.1,24.9239750462362));
#1424=CARTESIAN_POINT('Origin',(0.,47.4,0.));
#1425=CARTESIAN_POINT('Origin',(-7.5,92.5,-29.563490998189));
#1426=CARTESIAN_POINT('',(-7.5,84.5,-20.1494416796099));
#1427=CARTESIAN_POINT('',(-7.5,84.5,-14.7817454990945));
#1428=CARTESIAN_POINT('',(-7.5,55.,-20.1494416796099));
#1429=CARTESIAN_POINT('',(-7.5,27.5,-20.1494416796099));
#1430=CARTESIAN_POINT('',(-7.5,55.,-27.444105918997));
#1431=CARTESIAN_POINT('Origin',(-5.99999999999998,55.,-27.444105918997));
#1432=CARTESIAN_POINT('Ctrl Pts',(-6.,53.5,-20.6458228220626));
#1433=CARTESIAN_POINT('Ctrl Pts',(-6.19041564870184,53.5,-20.5904850473438));
#1434=CARTESIAN_POINT('Ctrl Pts',(-6.39304975436421,53.5383590332588,-20.5284507021242));
#1435=CARTESIAN_POINT('Ctrl Pts',(-6.76603591572999,53.6945991511226,-20.4085553477461));
#1436=CARTESIAN_POINT('Ctrl Pts',(-6.9364326242907,53.8124779021666,-20.3508302522771));
#1437=CARTESIAN_POINT('Ctrl Pts',(-7.19928023659868,54.0806698750602,-20.2592876310236));
#1438=CARTESIAN_POINT('Ctrl Pts',(-7.31196116495944,54.2464653885377,-20.2185962898234));
#1439=CARTESIAN_POINT('Ctrl Pts',(-7.46236171119197,54.6119862862202,-20.1635703626883));
#1440=CARTESIAN_POINT('Ctrl Pts',(-7.5,54.8117760953078,-20.1494416796099));
#1441=CARTESIAN_POINT('Ctrl Pts',(-7.5,55.,-20.1494416796099));
#1442=CARTESIAN_POINT('Origin',(-7.5,92.5,20.1494416796099));
#1443=CARTESIAN_POINT('',(-7.5,84.5,20.1494416796099));
#1444=CARTESIAN_POINT('',(-7.5,84.5,29.563490998189));
#1445=CARTESIAN_POINT('',(-7.5,84.5,10.0747208398049));
#1446=CARTESIAN_POINT('',(-7.5,92.5,29.563490998189));
#1447=CARTESIAN_POINT('',(-7.5,27.5,20.1494416796099));
#1448=CARTESIAN_POINT('Origin',(-9.49999999999999,88.5,10.0747208398049));
#1449=CARTESIAN_POINT('',(-11.5,92.5,18.165902124585));
#1450=CARTESIAN_POINT('Origin',(0.,69.5,0.));
#1451=CARTESIAN_POINT('',(-11.5,92.5,28.2488937836511));
#1452=CARTESIAN_POINT('',(-11.5,92.5,10.0747208398049));
#1453=CARTESIAN_POINT('Origin',(0.,69.5,0.));
#1454=CARTESIAN_POINT('Origin',(-9.49999999999999,88.5,-14.7817454990945));
#1455=CARTESIAN_POINT('',(-11.5,92.5,-18.1659021245849));
#1456=CARTESIAN_POINT('Origin',(0.,69.5,0.));
#1457=CARTESIAN_POINT('',(-11.5,92.5,-14.7817454990945));
#1458=CARTESIAN_POINT('Origin',(0.,27.5,0.));
#1459=CARTESIAN_POINT('',(-54.7722557505166,92.5,7.9602041944578E-15));
#1460=CARTESIAN_POINT('',(54.7722557505166,92.5,7.9602041944578E-15));
#1461=CARTESIAN_POINT('Origin',(0.,92.5,0.));
#1462=CARTESIAN_POINT('',(-85.,27.5,6.37397907631289E-31));
#1463=CARTESIAN_POINT('Origin',(0.,27.5,0.));
#1464=CARTESIAN_POINT('Origin',(0.,92.5,0.));
#1465=CARTESIAN_POINT('',(85.,27.5,6.37397907631289E-31));
#1466=CARTESIAN_POINT('Origin',(0.,27.5,0.));
#1467=CARTESIAN_POINT('Origin',(-21.5,92.5,0.));
#1468=CARTESIAN_POINT('Origin',(0.,92.5,0.));
#1469=CARTESIAN_POINT('Origin',(0.,92.5,0.));
#1470=CARTESIAN_POINT('',(21.5,92.5,2.63299061816681E-15));
#1471=CARTESIAN_POINT('Origin',(0.,92.5,0.));
#1472=CARTESIAN_POINT('Origin',(0.,92.5,0.));
#1473=CARTESIAN_POINT('Origin',(0.,92.5,0.));
#1474=CARTESIAN_POINT('Origin',(0.,53.5,0.));
#1475=CARTESIAN_POINT('Origin',(0.,53.5,25.3247208398049));
#1476=CARTESIAN_POINT('Origin',(0.,53.5,0.));
#1477=CARTESIAN_POINT('Origin',(0.,27.5,0.));
#1478=CARTESIAN_POINT('',(21.5,27.5,2.63299061816681E-15));
#1479=UNCERTAINTY_MEASURE_WITH_UNIT(LENGTH_MEASURE(0.01),#1483,
'DISTANCE_ACCURACY_VALUE',
'Maximum model space distance between geometric entities at asserted c
onnectivities');
#1480=UNCERTAINTY_MEASURE_WITH_UNIT(LENGTH_MEASURE(0.01),#1483,
'DISTANCE_ACCURACY_VALUE',
'Maximum model space distance between geometric entities at asserted c
onnectivities');
#1481=(
GEOMETRIC_REPRESENTATION_CONTEXT(3)
GLOBAL_UNCERTAINTY_ASSIGNED_CONTEXT((#1479))
GLOBAL_UNIT_ASSIGNED_CONTEXT((#1483,#1485,#1486))
REPRESENTATION_CONTEXT('','3D')
);
#1482=(
GEOMETRIC_REPRESENTATION_CONTEXT(3)
GLOBAL_UNCERTAINTY_ASSIGNED_CONTEXT((#1480))
GLOBAL_UNIT_ASSIGNED_CONTEXT((#1483,#1485,#1486))
REPRESENTATION_CONTEXT('','3D')
);
#1483=(
LENGTH_UNIT()
NAMED_UNIT(*)
SI_UNIT(.MILLI.,.METRE.)
);
#1484=(
LENGTH_UNIT()
NAMED_UNIT(*)
SI_UNIT($,.METRE.)
);
#1485=(
NAMED_UNIT(*)
PLANE_ANGLE_UNIT()
SI_UNIT($,.RADIAN.)
);
#1486=(
NAMED_UNIT(*)
SI_UNIT($,.STERADIAN.)
SOLID_ANGLE_UNIT()
);
#1487=SHAPE_DEFINITION_REPRESENTATION(#1488,#1489);
#1488=PRODUCT_DEFINITION_SHAPE('',$,#1491);
#1489=SHAPE_REPRESENTATION('',(#775),#1481);
#1490=PRODUCT_DEFINITION_CONTEXT('part definition',#1495,'design');
#1491=PRODUCT_DEFINITION('corpo_digiball','corpo_digiball',#1492,#1490);
#1492=PRODUCT_DEFINITION_FORMATION('',$,#1497);
#1493=PRODUCT_RELATED_PRODUCT_CATEGORY('corpo_digiball',
'corpo_digiball',(#1497));
#1494=APPLICATION_PROTOCOL_DEFINITION('international standard',
'automotive_design',2009,#1495);
#1495=APPLICATION_CONTEXT(
'Core Data for Automotive Mechanical Design Process');
#1496=PRODUCT_CONTEXT('part definition',#1495,'mechanical');
#1497=PRODUCT('corpo_digiball','corpo_digiball',$,(#1496));
#1498=PRESENTATION_STYLE_ASSIGNMENT((#1499));
#1499=SURFACE_STYLE_USAGE(.BOTH.,#1500);
#1500=SURFACE_SIDE_STYLE('',(#1501));
#1501=SURFACE_STYLE_FILL_AREA(#1502);
#1502=FILL_AREA_STYLE('A\X\E7o - Acetinado',(#1503));
#1503=FILL_AREA_STYLE_COLOUR('A\X\E7o - Acetinado',#1504);
#1504=COLOUR_RGB('A\X\E7o - Acetinado',0.627450980392157,0.627450980392157,
0.627450980392157);
ENDSEC;
END-ISO-10303-21;
