ISO-10303-21;
HEADER;
/* Generated by software containing ST-Developer
 * from STEP Tools, Inc. (www.steptools.com) 
 */

FILE_DESCRIPTION(
/* description */ (''),
/* implementation_level */ '2;1');

FILE_NAME(
/* name */ 'DIGIBALL_v_01_00--03_03_2026_tampa.step',
/* time_stamp */ '2026-03-03T17:36:24Z',
/* author */ (''),
/* organization */ (''),
/* preprocessor_version */ 'ST-DEVELOPER v20.1',
/* originating_system */ 'Autodesk Translation Framework v14.24.0.0',
/* authorisation */ '');

FILE_SCHEMA (('AUTOMOTIVE_DESIGN { 1 0 10303 214 3 1 1 }'));
ENDSEC;

DATA;
#10=MECHANICAL_DESIGN_GEOMETRIC_PRESENTATION_REPRESENTATION('',(#13),#711);
#11=SHAPE_REPRESENTATION_RELATIONSHIP('SRR','None',#718,#12);
#12=ADVANCED_BREP_SHAPE_REPRESENTATION('',(#14),#710);
#13=STYLED_ITEM('',(#727),#14);
#14=MANIFOLD_SOLID_BREP('tampa',#332);
#15=SPHERICAL_SURFACE('',#386,85.);
#16=B_SPLINE_CURVE_WITH_KNOTS('',3,(#501,#502,#503,#504,#505,#506,#507,
#508,#509,#510,#511,#512,#513,#514,#515,#516,#517,#518),.UNSPECIFIED.,.F.,
 .F.,(4,2,2,2,2,2,2,2,4),(0.,0.171627552189587,0.343255104379175,0.512658297880703,
0.682061491382231,0.851464684883759,1.02086787838529,1.19249543057488,1.36412298276446),
 .UNSPECIFIED.);
#17=B_SPLINE_CURVE_WITH_KNOTS('',3,(#519,#520,#521,#522,#523,#524,#525,
#526,#527,#528,#529,#530,#531,#532,#533,#534,#535,#536),.UNSPECIFIED.,.F.,
 .F.,(4,2,2,2,2,2,2,2,4),(1.36412298276446,1.53577656946494,1.70743015616541,
1.87683600857511,2.0462418609848,2.21564771339449,2.38505356580418,2.55670715250466,
2.72836073920513),.UNSPECIFIED.);
#18=B_SPLINE_CURVE_WITH_KNOTS('',3,(#552,#553,#554,#555,#556,#557,#558,
#559,#560,#561,#562,#563,#564,#565,#566,#567,#568,#569),.UNSPECIFIED.,.F.,
 .F.,(4,2,2,2,2,2,2,2,4),(0.,0.17165358663516,0.343307173270321,0.512713025683071,
0.682118878095821,0.851524730508571,1.02093058292132,1.19258416955648,1.36423775619164),
 .UNSPECIFIED.);
#19=B_SPLINE_CURVE_WITH_KNOTS('',3,(#570,#571,#572,#573,#574,#575,#576,
#577,#578,#579,#580,#581,#582,#583,#584,#585,#586,#587),.UNSPECIFIED.,.F.,
 .F.,(4,2,2,2,2,2,2,2,4),(1.36423775619164,1.53586530831711,1.70749286044257,
1.87689605394728,2.046299247452,2.21570244095671,2.38510563446142,2.55673318658688,
2.72836073871235),.UNSPECIFIED.);
#20=B_SPLINE_CURVE_WITH_KNOTS('',3,(#591,#592,#593,#594,#595,#596,#597,
#598,#599,#600,#601,#602,#603,#604,#605,#606),.UNSPECIFIED.,.F.,.F.,(4,
2,2,2,2,2,2,4),(-1.77358243646,-1.59221264826484,-1.32595894462659,-1.05970524098835,
-0.793407932613236,-0.527110624238126,-0.263555312119063,0.),
 .UNSPECIFIED.);
#21=B_SPLINE_CURVE_WITH_KNOTS('',3,(#620,#621,#622,#623,#624,#625,#626,
#627,#628,#629,#630,#631,#632,#633,#634,#635),.UNSPECIFIED.,.F.,.F.,(4,
2,2,2,2,2,2,4),(-1.77356184663412,-1.59213182911108,-1.32711276548244,-1.0620937018538,
-0.795854137390826,-0.529614572927848,-0.264807286463924,0.),
 .UNSPECIFIED.);
#22=B_SPLINE_CURVE_WITH_KNOTS('',3,(#653,#654,#655,#656,#657,#658,#659,
#660,#661,#662,#663,#664,#665,#666,#667,#668),.UNSPECIFIED.,.F.,.F.,(4,
2,2,2,2,2,2,4),(-1.77356184663412,-1.59213182911108,-1.32711276548244,-1.0620937018538,
-0.795854137390826,-0.529614572927848,-0.264807286463924,0.),
 .UNSPECIFIED.);
#23=B_SPLINE_CURVE_WITH_KNOTS('',3,(#679,#680,#681,#682,#683,#684,#685,
#686,#687,#688,#689,#690,#691,#692,#693,#694),.UNSPECIFIED.,.F.,.F.,(4,
2,2,2,2,2,2,4),(-1.77358243645999,-1.59221264826484,-1.32595894462659,-1.05970524098834,
-0.793407932613235,-0.527110624238125,-0.263555312119062,0.),
 .UNSPECIFIED.);
#24=LINE('',#499,#38);
#25=LINE('',#550,#39);
#26=LINE('',#608,#40);
#27=LINE('',#611,#41);
#28=LINE('',#617,#42);
#29=LINE('',#638,#43);
#30=LINE('',#641,#44);
#31=LINE('',#647,#45);
#32=LINE('',#650,#46);
#33=LINE('',#671,#47);
#34=LINE('',#676,#48);
#35=LINE('',#677,#49);
#36=LINE('',#699,#50);
#37=LINE('',#703,#51);
#38=VECTOR('',#405,4.5);
#39=VECTOR('',#422,4.5);
#40=VECTOR('',#425,10.);
#41=VECTOR('',#428,10.);
#42=VECTOR('',#435,10.);
#43=VECTOR('',#440,10.);
#44=VECTOR('',#445,10.);
#45=VECTOR('',#450,10.);
#46=VECTOR('',#453,10.);
#47=VECTOR('',#458,10.);
#48=VECTOR('',#463,10.);
#49=VECTOR('',#464,10.);
#50=VECTOR('',#473,1.7);
#51=VECTOR('',#478,1.7);
#52=CYLINDRICAL_SURFACE('',#353,4.5);
#53=CYLINDRICAL_SURFACE('',#361,4.5);
#54=CYLINDRICAL_SURFACE('',#362,7.);
#55=CYLINDRICAL_SURFACE('',#364,18.5);
#56=CYLINDRICAL_SURFACE('',#367,7.);
#57=CYLINDRICAL_SURFACE('',#371,18.5000000000001);
#58=CYLINDRICAL_SURFACE('',#374,7.);
#59=CYLINDRICAL_SURFACE('',#378,7.);
#60=CYLINDRICAL_SURFACE('',#380,1.7);
#61=CYLINDRICAL_SURFACE('',#382,1.7);
#62=FACE_BOUND('',#97,.T.);
#63=FACE_BOUND('',#101,.T.);
#64=FACE_BOUND('',#114,.T.);
#65=FACE_BOUND('',#115,.T.);
#66=FACE_BOUND('',#116,.T.);
#67=FACE_BOUND('',#117,.T.);
#68=FACE_BOUND('',#119,.T.);
#69=FACE_BOUND('',#120,.T.);
#70=FACE_BOUND('',#121,.T.);
#71=FACE_BOUND('',#122,.T.);
#72=PLANE('',#351);
#73=PLANE('',#359);
#74=PLANE('',#369);
#75=PLANE('',#376);
#76=PLANE('',#384);
#77=FACE_OUTER_BOUND('',#95,.T.);
#78=FACE_OUTER_BOUND('',#96,.T.);
#79=FACE_OUTER_BOUND('',#98,.T.);
#80=FACE_OUTER_BOUND('',#99,.T.);
#81=FACE_OUTER_BOUND('',#100,.T.);
#82=FACE_OUTER_BOUND('',#102,.T.);
#83=FACE_OUTER_BOUND('',#103,.T.);
#84=FACE_OUTER_BOUND('',#104,.T.);
#85=FACE_OUTER_BOUND('',#105,.T.);
#86=FACE_OUTER_BOUND('',#106,.T.);
#87=FACE_OUTER_BOUND('',#107,.T.);
#88=FACE_OUTER_BOUND('',#108,.T.);
#89=FACE_OUTER_BOUND('',#109,.T.);
#90=FACE_OUTER_BOUND('',#110,.T.);
#91=FACE_OUTER_BOUND('',#111,.T.);
#92=FACE_OUTER_BOUND('',#112,.T.);
#93=FACE_OUTER_BOUND('',#113,.T.);
#94=FACE_OUTER_BOUND('',#118,.T.);
#95=EDGE_LOOP('',(#222,#223,#224,#225,#226));
#96=EDGE_LOOP('',(#227));
#97=EDGE_LOOP('',(#228));
#98=EDGE_LOOP('',(#229,#230,#231,#232,#233,#234));
#99=EDGE_LOOP('',(#235,#236,#237,#238,#239));
#100=EDGE_LOOP('',(#240));
#101=EDGE_LOOP('',(#241));
#102=EDGE_LOOP('',(#242,#243,#244,#245,#246,#247));
#103=EDGE_LOOP('',(#248,#249,#250,#251));
#104=EDGE_LOOP('',(#252,#253,#254,#255));
#105=EDGE_LOOP('',(#256,#257,#258,#259));
#106=EDGE_LOOP('',(#260,#261,#262,#263));
#107=EDGE_LOOP('',(#264,#265,#266,#267));
#108=EDGE_LOOP('',(#268,#269,#270,#271));
#109=EDGE_LOOP('',(#272,#273,#274,#275));
#110=EDGE_LOOP('',(#276,#277,#278,#279));
#111=EDGE_LOOP('',(#280,#281,#282,#283));
#112=EDGE_LOOP('',(#284,#285,#286,#287));
#113=EDGE_LOOP('',(#288));
#114=EDGE_LOOP('',(#289,#290,#291,#292));
#115=EDGE_LOOP('',(#293,#294,#295,#296));
#116=EDGE_LOOP('',(#297));
#117=EDGE_LOOP('',(#298));
#118=EDGE_LOOP('',(#299));
#119=EDGE_LOOP('',(#300,#301));
#120=EDGE_LOOP('',(#302,#303));
#121=EDGE_LOOP('',(#304,#305,#306,#307));
#122=EDGE_LOOP('',(#308,#309,#310,#311));
#123=CIRCLE('',#347,4.);
#124=CIRCLE('',#348,0.5);
#125=CIRCLE('',#349,4.5);
#126=CIRCLE('',#350,4.5);
#127=CIRCLE('',#352,1.7);
#128=CIRCLE('',#355,4.);
#129=CIRCLE('',#356,0.5);
#130=CIRCLE('',#357,4.5);
#131=CIRCLE('',#358,4.5);
#132=CIRCLE('',#360,1.7);
#133=CIRCLE('',#363,7.);
#134=CIRCLE('',#365,18.5);
#135=CIRCLE('',#366,18.5);
#136=CIRCLE('',#368,7.);
#137=CIRCLE('',#370,84.9470423263812);
#138=CIRCLE('',#372,18.5000000000001);
#139=CIRCLE('',#373,18.5000000000001);
#140=CIRCLE('',#375,7.);
#141=CIRCLE('',#377,84.9470423263812);
#142=CIRCLE('',#379,7.);
#143=CIRCLE('',#381,1.7);
#144=CIRCLE('',#383,1.7);
#145=CIRCLE('',#385,54.7722557505166);
#146=VERTEX_POINT('',#487);
#147=VERTEX_POINT('',#489);
#148=VERTEX_POINT('',#491);
#149=VERTEX_POINT('',#495);
#150=VERTEX_POINT('',#498);
#151=VERTEX_POINT('',#500);
#152=VERTEX_POINT('',#538);
#153=VERTEX_POINT('',#540);
#154=VERTEX_POINT('',#542);
#155=VERTEX_POINT('',#546);
#156=VERTEX_POINT('',#549);
#157=VERTEX_POINT('',#551);
#158=VERTEX_POINT('',#589);
#159=VERTEX_POINT('',#590);
#160=VERTEX_POINT('',#607);
#161=VERTEX_POINT('',#609);
#162=VERTEX_POINT('',#613);
#163=VERTEX_POINT('',#615);
#164=VERTEX_POINT('',#619);
#165=VERTEX_POINT('',#636);
#166=VERTEX_POINT('',#643);
#167=VERTEX_POINT('',#644);
#168=VERTEX_POINT('',#646);
#169=VERTEX_POINT('',#648);
#170=VERTEX_POINT('',#652);
#171=VERTEX_POINT('',#669);
#172=VERTEX_POINT('',#673);
#173=VERTEX_POINT('',#675);
#174=VERTEX_POINT('',#697);
#175=VERTEX_POINT('',#701);
#176=VERTEX_POINT('',#705);
#177=EDGE_CURVE('',#146,#146,#123,.T.);
#178=EDGE_CURVE('',#146,#147,#124,.T.);
#179=EDGE_CURVE('',#147,#148,#125,.T.);
#180=EDGE_CURVE('',#148,#147,#126,.T.);
#181=EDGE_CURVE('',#149,#149,#127,.T.);
#182=EDGE_CURVE('',#148,#150,#24,.T.);
#183=EDGE_CURVE('',#151,#150,#16,.T.);
#184=EDGE_CURVE('',#150,#151,#17,.T.);
#185=EDGE_CURVE('',#152,#152,#128,.T.);
#186=EDGE_CURVE('',#152,#153,#129,.T.);
#187=EDGE_CURVE('',#153,#154,#130,.T.);
#188=EDGE_CURVE('',#154,#153,#131,.T.);
#189=EDGE_CURVE('',#155,#155,#132,.T.);
#190=EDGE_CURVE('',#154,#156,#25,.T.);
#191=EDGE_CURVE('',#157,#156,#18,.T.);
#192=EDGE_CURVE('',#156,#157,#19,.T.);
#193=EDGE_CURVE('',#158,#159,#20,.T.);
#194=EDGE_CURVE('',#160,#158,#26,.T.);
#195=EDGE_CURVE('',#161,#160,#133,.T.);
#196=EDGE_CURVE('',#161,#159,#27,.T.);
#197=EDGE_CURVE('',#159,#162,#134,.T.);
#198=EDGE_CURVE('',#163,#161,#135,.T.);
#199=EDGE_CURVE('',#163,#162,#28,.T.);
#200=EDGE_CURVE('',#162,#164,#21,.T.);
#201=EDGE_CURVE('',#165,#163,#136,.T.);
#202=EDGE_CURVE('',#165,#164,#29,.T.);
#203=EDGE_CURVE('',#164,#158,#137,.T.);
#204=EDGE_CURVE('',#160,#165,#30,.T.);
#205=EDGE_CURVE('',#166,#167,#138,.T.);
#206=EDGE_CURVE('',#168,#166,#31,.T.);
#207=EDGE_CURVE('',#169,#168,#139,.T.);
#208=EDGE_CURVE('',#169,#167,#32,.T.);
#209=EDGE_CURVE('',#167,#170,#22,.T.);
#210=EDGE_CURVE('',#171,#169,#140,.T.);
#211=EDGE_CURVE('',#171,#170,#33,.T.);
#212=EDGE_CURVE('',#170,#172,#141,.T.);
#213=EDGE_CURVE('',#173,#171,#34,.T.);
#214=EDGE_CURVE('',#173,#172,#35,.T.);
#215=EDGE_CURVE('',#172,#166,#23,.T.);
#216=EDGE_CURVE('',#168,#173,#142,.T.);
#217=EDGE_CURVE('',#174,#174,#143,.T.);
#218=EDGE_CURVE('',#174,#149,#36,.T.);
#219=EDGE_CURVE('',#175,#175,#144,.T.);
#220=EDGE_CURVE('',#175,#155,#37,.T.);
#221=EDGE_CURVE('',#176,#176,#145,.T.);
#222=ORIENTED_EDGE('',*,*,#177,.T.);
#223=ORIENTED_EDGE('',*,*,#178,.T.);
#224=ORIENTED_EDGE('',*,*,#179,.T.);
#225=ORIENTED_EDGE('',*,*,#180,.T.);
#226=ORIENTED_EDGE('',*,*,#178,.F.);
#227=ORIENTED_EDGE('',*,*,#177,.F.);
#228=ORIENTED_EDGE('',*,*,#181,.T.);
#229=ORIENTED_EDGE('',*,*,#180,.F.);
#230=ORIENTED_EDGE('',*,*,#182,.T.);
#231=ORIENTED_EDGE('',*,*,#183,.F.);
#232=ORIENTED_EDGE('',*,*,#184,.F.);
#233=ORIENTED_EDGE('',*,*,#182,.F.);
#234=ORIENTED_EDGE('',*,*,#179,.F.);
#235=ORIENTED_EDGE('',*,*,#185,.T.);
#236=ORIENTED_EDGE('',*,*,#186,.T.);
#237=ORIENTED_EDGE('',*,*,#187,.T.);
#238=ORIENTED_EDGE('',*,*,#188,.T.);
#239=ORIENTED_EDGE('',*,*,#186,.F.);
#240=ORIENTED_EDGE('',*,*,#185,.F.);
#241=ORIENTED_EDGE('',*,*,#189,.T.);
#242=ORIENTED_EDGE('',*,*,#188,.F.);
#243=ORIENTED_EDGE('',*,*,#190,.T.);
#244=ORIENTED_EDGE('',*,*,#191,.F.);
#245=ORIENTED_EDGE('',*,*,#192,.F.);
#246=ORIENTED_EDGE('',*,*,#190,.F.);
#247=ORIENTED_EDGE('',*,*,#187,.F.);
#248=ORIENTED_EDGE('',*,*,#193,.F.);
#249=ORIENTED_EDGE('',*,*,#194,.F.);
#250=ORIENTED_EDGE('',*,*,#195,.F.);
#251=ORIENTED_EDGE('',*,*,#196,.T.);
#252=ORIENTED_EDGE('',*,*,#197,.F.);
#253=ORIENTED_EDGE('',*,*,#196,.F.);
#254=ORIENTED_EDGE('',*,*,#198,.F.);
#255=ORIENTED_EDGE('',*,*,#199,.T.);
#256=ORIENTED_EDGE('',*,*,#200,.F.);
#257=ORIENTED_EDGE('',*,*,#199,.F.);
#258=ORIENTED_EDGE('',*,*,#201,.F.);
#259=ORIENTED_EDGE('',*,*,#202,.T.);
#260=ORIENTED_EDGE('',*,*,#203,.F.);
#261=ORIENTED_EDGE('',*,*,#202,.F.);
#262=ORIENTED_EDGE('',*,*,#204,.F.);
#263=ORIENTED_EDGE('',*,*,#194,.T.);
#264=ORIENTED_EDGE('',*,*,#205,.F.);
#265=ORIENTED_EDGE('',*,*,#206,.F.);
#266=ORIENTED_EDGE('',*,*,#207,.F.);
#267=ORIENTED_EDGE('',*,*,#208,.T.);
#268=ORIENTED_EDGE('',*,*,#209,.F.);
#269=ORIENTED_EDGE('',*,*,#208,.F.);
#270=ORIENTED_EDGE('',*,*,#210,.F.);
#271=ORIENTED_EDGE('',*,*,#211,.T.);
#272=ORIENTED_EDGE('',*,*,#212,.F.);
#273=ORIENTED_EDGE('',*,*,#211,.F.);
#274=ORIENTED_EDGE('',*,*,#213,.F.);
#275=ORIENTED_EDGE('',*,*,#214,.T.);
#276=ORIENTED_EDGE('',*,*,#215,.F.);
#277=ORIENTED_EDGE('',*,*,#214,.F.);
#278=ORIENTED_EDGE('',*,*,#216,.F.);
#279=ORIENTED_EDGE('',*,*,#206,.T.);
#280=ORIENTED_EDGE('',*,*,#217,.F.);
#281=ORIENTED_EDGE('',*,*,#218,.T.);
#282=ORIENTED_EDGE('',*,*,#181,.F.);
#283=ORIENTED_EDGE('',*,*,#218,.F.);
#284=ORIENTED_EDGE('',*,*,#219,.F.);
#285=ORIENTED_EDGE('',*,*,#220,.T.);
#286=ORIENTED_EDGE('',*,*,#189,.F.);
#287=ORIENTED_EDGE('',*,*,#220,.F.);
#288=ORIENTED_EDGE('',*,*,#221,.F.);
#289=ORIENTED_EDGE('',*,*,#201,.T.);
#290=ORIENTED_EDGE('',*,*,#198,.T.);
#291=ORIENTED_EDGE('',*,*,#195,.T.);
#292=ORIENTED_EDGE('',*,*,#204,.T.);
#293=ORIENTED_EDGE('',*,*,#213,.T.);
#294=ORIENTED_EDGE('',*,*,#210,.T.);
#295=ORIENTED_EDGE('',*,*,#207,.T.);
#296=ORIENTED_EDGE('',*,*,#216,.T.);
#297=ORIENTED_EDGE('',*,*,#217,.T.);
#298=ORIENTED_EDGE('',*,*,#219,.T.);
#299=ORIENTED_EDGE('',*,*,#221,.T.);
#300=ORIENTED_EDGE('',*,*,#191,.T.);
#301=ORIENTED_EDGE('',*,*,#192,.T.);
#302=ORIENTED_EDGE('',*,*,#183,.T.);
#303=ORIENTED_EDGE('',*,*,#184,.T.);
#304=ORIENTED_EDGE('',*,*,#200,.T.);
#305=ORIENTED_EDGE('',*,*,#203,.T.);
#306=ORIENTED_EDGE('',*,*,#193,.T.);
#307=ORIENTED_EDGE('',*,*,#197,.T.);
#308=ORIENTED_EDGE('',*,*,#212,.T.);
#309=ORIENTED_EDGE('',*,*,#215,.T.);
#310=ORIENTED_EDGE('',*,*,#205,.T.);
#311=ORIENTED_EDGE('',*,*,#209,.T.);
#312=TOROIDAL_SURFACE('',#346,4.,0.5);
#313=TOROIDAL_SURFACE('',#354,4.,0.5);
#314=ADVANCED_FACE('',(#77),#312,.F.);
#315=ADVANCED_FACE('',(#78,#62),#72,.F.);
#316=ADVANCED_FACE('',(#79),#52,.F.);
#317=ADVANCED_FACE('',(#80),#313,.F.);
#318=ADVANCED_FACE('',(#81,#63),#73,.F.);
#319=ADVANCED_FACE('',(#82),#53,.F.);
#320=ADVANCED_FACE('',(#83),#54,.F.);
#321=ADVANCED_FACE('',(#84),#55,.F.);
#322=ADVANCED_FACE('',(#85),#56,.F.);
#323=ADVANCED_FACE('',(#86),#74,.F.);
#324=ADVANCED_FACE('',(#87),#57,.F.);
#325=ADVANCED_FACE('',(#88),#58,.F.);
#326=ADVANCED_FACE('',(#89),#75,.F.);
#327=ADVANCED_FACE('',(#90),#59,.F.);
#328=ADVANCED_FACE('',(#91),#60,.F.);
#329=ADVANCED_FACE('',(#92),#61,.F.);
#330=ADVANCED_FACE('',(#93,#64,#65,#66,#67),#76,.T.);
#331=ADVANCED_FACE('',(#94,#68,#69,#70,#71),#15,.T.);
#332=CLOSED_SHELL('',(#314,#315,#316,#317,#318,#319,#320,#321,#322,#323,
#324,#325,#326,#327,#328,#329,#330,#331));
#333=DERIVED_UNIT_ELEMENT(#335,1.);
#334=DERIVED_UNIT_ELEMENT(#713,-3.);
#335=(
MASS_UNIT()
NAMED_UNIT(*)
SI_UNIT(.KILO.,.GRAM.)
);
#336=DERIVED_UNIT((#333,#334));
#337=MEASURE_REPRESENTATION_ITEM('density measure',
POSITIVE_RATIO_MEASURE(7850.),#336);
#338=PROPERTY_DEFINITION_REPRESENTATION(#343,#340);
#339=PROPERTY_DEFINITION_REPRESENTATION(#344,#341);
#340=REPRESENTATION('material name',(#342),#710);
#341=REPRESENTATION('density',(#337),#710);
#342=DESCRIPTIVE_REPRESENTATION_ITEM('A\X\E7o','A\X\E7o');
#343=PROPERTY_DEFINITION('material property','material name',#720);
#344=PROPERTY_DEFINITION('material property','density of part',#720);
#345=AXIS2_PLACEMENT_3D('',#485,#387,#388);
#346=AXIS2_PLACEMENT_3D('',#486,#389,#390);
#347=AXIS2_PLACEMENT_3D('',#488,#391,#392);
#348=AXIS2_PLACEMENT_3D('',#490,#393,#394);
#349=AXIS2_PLACEMENT_3D('',#492,#395,#396);
#350=AXIS2_PLACEMENT_3D('',#493,#397,#398);
#351=AXIS2_PLACEMENT_3D('',#494,#399,#400);
#352=AXIS2_PLACEMENT_3D('',#496,#401,#402);
#353=AXIS2_PLACEMENT_3D('',#497,#403,#404);
#354=AXIS2_PLACEMENT_3D('',#537,#406,#407);
#355=AXIS2_PLACEMENT_3D('',#539,#408,#409);
#356=AXIS2_PLACEMENT_3D('',#541,#410,#411);
#357=AXIS2_PLACEMENT_3D('',#543,#412,#413);
#358=AXIS2_PLACEMENT_3D('',#544,#414,#415);
#359=AXIS2_PLACEMENT_3D('',#545,#416,#417);
#360=AXIS2_PLACEMENT_3D('',#547,#418,#419);
#361=AXIS2_PLACEMENT_3D('',#548,#420,#421);
#362=AXIS2_PLACEMENT_3D('',#588,#423,#424);
#363=AXIS2_PLACEMENT_3D('',#610,#426,#427);
#364=AXIS2_PLACEMENT_3D('',#612,#429,#430);
#365=AXIS2_PLACEMENT_3D('',#614,#431,#432);
#366=AXIS2_PLACEMENT_3D('',#616,#433,#434);
#367=AXIS2_PLACEMENT_3D('',#618,#436,#437);
#368=AXIS2_PLACEMENT_3D('',#637,#438,#439);
#369=AXIS2_PLACEMENT_3D('',#639,#441,#442);
#370=AXIS2_PLACEMENT_3D('',#640,#443,#444);
#371=AXIS2_PLACEMENT_3D('',#642,#446,#447);
#372=AXIS2_PLACEMENT_3D('',#645,#448,#449);
#373=AXIS2_PLACEMENT_3D('',#649,#451,#452);
#374=AXIS2_PLACEMENT_3D('',#651,#454,#455);
#375=AXIS2_PLACEMENT_3D('',#670,#456,#457);
#376=AXIS2_PLACEMENT_3D('',#672,#459,#460);
#377=AXIS2_PLACEMENT_3D('',#674,#461,#462);
#378=AXIS2_PLACEMENT_3D('',#678,#465,#466);
#379=AXIS2_PLACEMENT_3D('',#695,#467,#468);
#380=AXIS2_PLACEMENT_3D('',#696,#469,#470);
#381=AXIS2_PLACEMENT_3D('',#698,#471,#472);
#382=AXIS2_PLACEMENT_3D('',#700,#474,#475);
#383=AXIS2_PLACEMENT_3D('',#702,#476,#477);
#384=AXIS2_PLACEMENT_3D('',#704,#479,#480);
#385=AXIS2_PLACEMENT_3D('',#706,#481,#482);
#386=AXIS2_PLACEMENT_3D('',#707,#483,#484);
#387=DIRECTION('axis',(0.,0.,1.));
#388=DIRECTION('refdir',(1.,0.,0.));
#389=DIRECTION('center_axis',(0.,-1.,0.));
#390=DIRECTION('ref_axis',(0.,0.,-1.));
#391=DIRECTION('center_axis',(0.,-1.,0.));
#392=DIRECTION('ref_axis',(1.,0.,0.));
#393=DIRECTION('center_axis',(-1.,0.,-1.22464679914735E-16));
#394=DIRECTION('ref_axis',(-1.22464679914735E-16,0.,1.));
#395=DIRECTION('center_axis',(0.,1.,0.));
#396=DIRECTION('ref_axis',(1.,0.,0.));
#397=DIRECTION('center_axis',(0.,1.,0.));
#398=DIRECTION('ref_axis',(1.,0.,0.));
#399=DIRECTION('center_axis',(0.,-1.,0.));
#400=DIRECTION('ref_axis',(1.,0.,0.));
#401=DIRECTION('center_axis',(0.,-1.,0.));
#402=DIRECTION('ref_axis',(1.,0.,0.));
#403=DIRECTION('center_axis',(0.,1.,0.));
#404=DIRECTION('ref_axis',(1.,0.,0.));
#405=DIRECTION('',(0.,1.,0.));
#406=DIRECTION('center_axis',(0.,-1.,0.));
#407=DIRECTION('ref_axis',(0.,0.,-1.));
#408=DIRECTION('center_axis',(0.,-1.,0.));
#409=DIRECTION('ref_axis',(1.,0.,0.));
#410=DIRECTION('center_axis',(-1.,0.,-1.22464679914735E-16));
#411=DIRECTION('ref_axis',(-1.22464679914735E-16,0.,1.));
#412=DIRECTION('center_axis',(0.,1.,0.));
#413=DIRECTION('ref_axis',(1.,0.,0.));
#414=DIRECTION('center_axis',(0.,1.,0.));
#415=DIRECTION('ref_axis',(1.,0.,0.));
#416=DIRECTION('center_axis',(0.,-1.,0.));
#417=DIRECTION('ref_axis',(1.,0.,0.));
#418=DIRECTION('center_axis',(0.,-1.,0.));
#419=DIRECTION('ref_axis',(1.,0.,0.));
#420=DIRECTION('center_axis',(0.,1.,0.));
#421=DIRECTION('ref_axis',(1.,0.,0.));
#422=DIRECTION('',(0.,1.,0.));
#423=DIRECTION('center_axis',(0.,1.,0.));
#424=DIRECTION('ref_axis',(0.8695652173913,0.,-0.493818117026119));
#425=DIRECTION('',(0.,1.,0.));
#426=DIRECTION('center_axis',(0.,1.,0.));
#427=DIRECTION('ref_axis',(0.8695652173913,0.,-0.493818117026119));
#428=DIRECTION('',(0.,1.,0.));
#429=DIRECTION('center_axis',(0.,1.,0.));
#430=DIRECTION('ref_axis',(0.869565217391299,0.,0.493818117026119));
#431=DIRECTION('center_axis',(0.,-1.,0.));
#432=DIRECTION('ref_axis',(0.869565217391299,0.,0.493818117026119));
#433=DIRECTION('center_axis',(0.,1.,0.));
#434=DIRECTION('ref_axis',(0.869565217391299,0.,0.493818117026119));
#435=DIRECTION('',(0.,1.,0.));
#436=DIRECTION('center_axis',(0.,1.,0.));
#437=DIRECTION('ref_axis',(-1.,0.,-4.75809867696496E-16));
#438=DIRECTION('center_axis',(0.,1.,0.));
#439=DIRECTION('ref_axis',(-1.,0.,-4.75809867696496E-16));
#440=DIRECTION('',(0.,1.,0.));
#441=DIRECTION('center_axis',(-1.,0.,0.));
#442=DIRECTION('ref_axis',(0.,0.,1.));
#443=DIRECTION('center_axis',(-1.,0.,0.));
#444=DIRECTION('ref_axis',(0.,0.,-1.));
#445=DIRECTION('',(0.,0.,1.));
#446=DIRECTION('center_axis',(0.,1.,0.));
#447=DIRECTION('ref_axis',(-0.8695652173913,0.,-0.493818117026119));
#448=DIRECTION('center_axis',(0.,-1.,0.));
#449=DIRECTION('ref_axis',(-0.8695652173913,0.,-0.493818117026119));
#450=DIRECTION('',(0.,1.,0.));
#451=DIRECTION('center_axis',(0.,1.,0.));
#452=DIRECTION('ref_axis',(-0.8695652173913,0.,-0.493818117026119));
#453=DIRECTION('',(0.,1.,0.));
#454=DIRECTION('center_axis',(0.,1.,0.));
#455=DIRECTION('ref_axis',(1.,0.,1.58603289232165E-16));
#456=DIRECTION('center_axis',(0.,1.,0.));
#457=DIRECTION('ref_axis',(1.,0.,1.58603289232165E-16));
#458=DIRECTION('',(0.,1.,0.));
#459=DIRECTION('center_axis',(1.,0.,9.77496868254772E-17));
#460=DIRECTION('ref_axis',(9.77496868254771E-17,0.,-1.));
#461=DIRECTION('center_axis',(1.,0.,9.77496868254772E-17));
#462=DIRECTION('ref_axis',(-9.77496868254772E-17,0.,1.));
#463=DIRECTION('',(9.77496868254771E-17,0.,-1.));
#464=DIRECTION('',(0.,1.,0.));
#465=DIRECTION('center_axis',(0.,1.,0.));
#466=DIRECTION('ref_axis',(-0.869565217391299,0.,0.49381811702612));
#467=DIRECTION('center_axis',(0.,1.,0.));
#468=DIRECTION('ref_axis',(-0.869565217391299,0.,0.49381811702612));
#469=DIRECTION('center_axis',(0.,1.,0.));
#470=DIRECTION('ref_axis',(1.,0.,0.));
#471=DIRECTION('center_axis',(0.,1.,0.));
#472=DIRECTION('ref_axis',(1.,0.,0.));
#473=DIRECTION('',(0.,1.,0.));
#474=DIRECTION('center_axis',(0.,1.,0.));
#475=DIRECTION('ref_axis',(1.,0.,0.));
#476=DIRECTION('center_axis',(0.,1.,0.));
#477=DIRECTION('ref_axis',(1.,0.,0.));
#478=DIRECTION('',(0.,1.,0.));
#479=DIRECTION('center_axis',(0.,-1.,0.));
#480=DIRECTION('ref_axis',(0.,0.,-1.));
#481=DIRECTION('center_axis',(0.,1.,0.));
#482=DIRECTION('ref_axis',(1.,0.,0.));
#483=DIRECTION('center_axis',(6.12323399573677E-17,0.,1.));
#484=DIRECTION('ref_axis',(1.,0.,0.));
#485=CARTESIAN_POINT('',(0.,0.,0.));
#486=CARTESIAN_POINT('Origin',(-6.66133814775094E-15,294.324,-13.0000001937151));
#487=CARTESIAN_POINT('',(-7.15119686740988E-15,293.824,-9.0000001937151));
#488=CARTESIAN_POINT('Origin',(-6.66133814775094E-15,293.824,-13.0000001937151));
#489=CARTESIAN_POINT('',(-7.21242920736725E-15,294.324,-8.5000001937151));
#490=CARTESIAN_POINT('Origin',(-7.15119686740988E-15,294.324,-9.0000001937151));
#491=CARTESIAN_POINT('',(-4.50000000000001,294.324,-13.0000001937151));
#492=CARTESIAN_POINT('Origin',(-6.66133814775094E-15,294.324,-13.0000001937151));
#493=CARTESIAN_POINT('Origin',(-6.66133814775094E-15,294.324,-13.0000001937151));
#494=CARTESIAN_POINT('Origin',(-6.66133814775094E-15,293.824,-13.0000001937151));
#495=CARTESIAN_POINT('',(-1.70000000000001,293.824,-13.0000001937151));
#496=CARTESIAN_POINT('Origin',(-6.66133814775094E-15,293.824,-13.0000001937151));
#497=CARTESIAN_POINT('Origin',(-6.66133814775094E-15,286.824,-13.0000001937151));
#498=CARTESIAN_POINT('',(-4.50000000000001,305.703377650072,-13.0000001937151));
#499=CARTESIAN_POINT('',(-4.50000000000001,286.824,-13.0000001937151));
#500=CARTESIAN_POINT('',(4.49999999999999,305.703377650072,-13.0000001937151));
#501=CARTESIAN_POINT('Ctrl Pts',(4.49999999999999,305.703377650072,-13.0000001937151));
#502=CARTESIAN_POINT('Ctrl Pts',(4.49999999999999,305.790996924946,-12.4346578754793));
#503=CARTESIAN_POINT('Ctrl Pts',(4.38699427030604,305.884381499568,-11.8311397405124));
#504=CARTESIAN_POINT('Ctrl Pts',(3.92586725978857,306.056082686832,-10.7197545045276));
#505=CARTESIAN_POINT('Ctrl Pts',(3.57770716704342,306.134404522661,-10.2119043143944));
#506=CARTESIAN_POINT('Ctrl Pts',(2.77675216662765,306.257245824023,-9.41464324823237));
#507=CARTESIAN_POINT('Ctrl Pts',(2.27255176545641,306.310253390904,-9.07016256324815));
#508=CARTESIAN_POINT('Ctrl Pts',(1.16652254951043,306.380595786567,-8.61282105997294));
#509=CARTESIAN_POINT('Ctrl Pts',(0.564677311671755,306.397932134594,-8.5000001937151));
#510=CARTESIAN_POINT('Ctrl Pts',(-0.564677311671767,306.397932134594,-8.5000001937151));
#511=CARTESIAN_POINT('Ctrl Pts',(-1.16652254951045,306.380595786567,-8.61282105997294));
#512=CARTESIAN_POINT('Ctrl Pts',(-2.27255176545642,306.310253390904,-9.07016256324815));
#513=CARTESIAN_POINT('Ctrl Pts',(-2.77675216662766,306.257245824023,-9.41464324823237));
#514=CARTESIAN_POINT('Ctrl Pts',(-3.57770716704343,306.134404522661,-10.2119043143944));
#515=CARTESIAN_POINT('Ctrl Pts',(-3.92586725978858,306.056082686832,-10.7197545045276));
#516=CARTESIAN_POINT('Ctrl Pts',(-4.38699427030605,305.884381499568,-11.8311397405124));
#517=CARTESIAN_POINT('Ctrl Pts',(-4.50000000000001,305.790996924946,-12.4346578754793));
#518=CARTESIAN_POINT('Ctrl Pts',(-4.50000000000001,305.703377650072,-13.0000001937151));
#519=CARTESIAN_POINT('Ctrl Pts',(-4.50000000000001,305.703377650072,-13.0000001937151));
#520=CARTESIAN_POINT('Ctrl Pts',(-4.50000000000001,305.615745084063,-13.5654282698059));
#521=CARTESIAN_POINT('Ctrl Pts',(-4.38696360619119,305.522051486168,-14.168986222833));
#522=CARTESIAN_POINT('Ctrl Pts',(-3.92578480618409,305.349249167901,-15.2803929249761));
#523=CARTESIAN_POINT('Ctrl Pts',(-3.57760558381249,305.270150216437,-15.7882279157093));
#524=CARTESIAN_POINT('Ctrl Pts',(-2.77666383103646,305.145864036961,-16.5854147325761));
#525=CARTESIAN_POINT('Ctrl Pts',(-2.2725026956673,305.092090306511,-16.9298619426279));
#526=CARTESIAN_POINT('Ctrl Pts',(-1.16652289075239,305.020662881428,-17.3871753580276));
#527=CARTESIAN_POINT('Ctrl Pts',(-0.564686174698979,305.003023757315,-17.5000001937151));
#528=CARTESIAN_POINT('Ctrl Pts',(0.564686174698965,305.003023757315,-17.5000001937151));
#529=CARTESIAN_POINT('Ctrl Pts',(1.16652289075237,305.020662881428,-17.3871753580276));
#530=CARTESIAN_POINT('Ctrl Pts',(2.27250269566729,305.092090306511,-16.9298619426279));
#531=CARTESIAN_POINT('Ctrl Pts',(2.77666383103644,305.145864036961,-16.5854147325761));
#532=CARTESIAN_POINT('Ctrl Pts',(3.57760558381247,305.270150216437,-15.7882279157093));
#533=CARTESIAN_POINT('Ctrl Pts',(3.92578480618407,305.349249167901,-15.2803929249761));
#534=CARTESIAN_POINT('Ctrl Pts',(4.38696360619118,305.522051486168,-14.168986222833));
#535=CARTESIAN_POINT('Ctrl Pts',(4.49999999999999,305.615745084063,-13.5654282698059));
#536=CARTESIAN_POINT('Ctrl Pts',(4.49999999999999,305.703377650072,-13.0000001937151));
#537=CARTESIAN_POINT('Origin',(-6.66133814775094E-15,294.324,13.));
#538=CARTESIAN_POINT('',(-7.15119686740988E-15,293.824,17.));
#539=CARTESIAN_POINT('Origin',(-6.66133814775094E-15,293.824,13.));
#540=CARTESIAN_POINT('',(-7.21242920736725E-15,294.324,17.5));
#541=CARTESIAN_POINT('Origin',(-7.15119686740988E-15,294.324,17.));
#542=CARTESIAN_POINT('',(-4.50000000000001,294.324,13.));
#543=CARTESIAN_POINT('Origin',(-6.66133814775094E-15,294.324,13.));
#544=CARTESIAN_POINT('Origin',(-6.66133814775094E-15,294.324,13.));
#545=CARTESIAN_POINT('Origin',(-6.66133814775094E-15,293.824,13.));
#546=CARTESIAN_POINT('',(-1.70000000000001,293.824,13.));
#547=CARTESIAN_POINT('Origin',(-6.66133814775094E-15,293.824,13.));
#548=CARTESIAN_POINT('Origin',(-6.66133814775094E-15,286.824,13.));
#549=CARTESIAN_POINT('',(-4.50000000000001,305.703377680095,13.));
#550=CARTESIAN_POINT('',(-4.50000000000001,286.824,13.));
#551=CARTESIAN_POINT('',(4.49999999999999,305.703377680095,13.));
#552=CARTESIAN_POINT('Ctrl Pts',(4.49999999999999,305.703377680095,13.));
#553=CARTESIAN_POINT('Ctrl Pts',(4.49999999999999,305.615745115425,13.565428076078));
#554=CARTESIAN_POINT('Ctrl Pts',(4.38696360619491,305.522051518966,14.1689860290787));
#555=CARTESIAN_POINT('Ctrl Pts',(3.92578480624659,305.349249203357,15.2803927311405));
#556=CARTESIAN_POINT('Ctrl Pts',(3.57760558393111,305.270150253115,15.788227721819));
#557=CARTESIAN_POINT('Ctrl Pts',(2.77666383121173,305.145864075538,16.5854145387429));
#558=CARTESIAN_POINT('Ctrl Pts',(2.27250269578626,305.092090345906,16.9298617488515));
#559=CARTESIAN_POINT('Ctrl Pts',(1.16652289078851,305.020662921913,17.3871751643096));
#560=CARTESIAN_POINT('Ctrl Pts',(0.564686174709161,305.003023798071,17.5));
#561=CARTESIAN_POINT('Ctrl Pts',(-0.564686174709173,305.003023798071,17.5));
#562=CARTESIAN_POINT('Ctrl Pts',(-1.16652289078852,305.020662921913,17.3871751643096));
#563=CARTESIAN_POINT('Ctrl Pts',(-2.27250269578627,305.092090345906,16.9298617488515));
#564=CARTESIAN_POINT('Ctrl Pts',(-2.77666383121174,305.145864075538,16.5854145387429));
#565=CARTESIAN_POINT('Ctrl Pts',(-3.57760558393112,305.270150253115,15.788227721819));
#566=CARTESIAN_POINT('Ctrl Pts',(-3.9257848062466,305.349249203357,15.2803927311404));
#567=CARTESIAN_POINT('Ctrl Pts',(-4.38696360619492,305.522051518966,14.1689860290787));
#568=CARTESIAN_POINT('Ctrl Pts',(-4.50000000000001,305.615745115425,13.565428076078));
#569=CARTESIAN_POINT('Ctrl Pts',(-4.50000000000001,305.703377680095,13.));
#570=CARTESIAN_POINT('Ctrl Pts',(-4.50000000000001,305.703377680095,13.));
#571=CARTESIAN_POINT('Ctrl Pts',(-4.50000000000001,305.79099695363,12.4346576817731));
#572=CARTESIAN_POINT('Ctrl Pts',(-4.38699427030838,305.884381526826,11.8311395468308));
#573=CARTESIAN_POINT('Ctrl Pts',(-3.92586725984734,306.056082711466,10.7197543109264));
#574=CARTESIAN_POINT('Ctrl Pts',(-3.57770716715744,306.134404546097,10.2119041208484));
#575=CARTESIAN_POINT('Ctrl Pts',(-2.77675216679892,306.257245845605,9.41464305463275));
#576=CARTESIAN_POINT('Ctrl Pts',(-2.27255176557316,306.310253411691,9.07016236959322));
#577=CARTESIAN_POINT('Ctrl Pts',(-1.1665225495466,306.380595806297,8.61282086626088));
#578=CARTESIAN_POINT('Ctrl Pts',(-0.564677311682377,306.397932154063,8.49999999999999));
#579=CARTESIAN_POINT('Ctrl Pts',(0.564677311682362,306.397932154063,8.49999999999999));
#580=CARTESIAN_POINT('Ctrl Pts',(1.16652254954659,306.380595806297,8.61282086626088));
#581=CARTESIAN_POINT('Ctrl Pts',(2.27255176557315,306.310253411691,9.07016236959321));
#582=CARTESIAN_POINT('Ctrl Pts',(2.77675216679891,306.257245845605,9.41464305463275));
#583=CARTESIAN_POINT('Ctrl Pts',(3.57770716715743,306.134404546097,10.2119041208484));
#584=CARTESIAN_POINT('Ctrl Pts',(3.92586725984733,306.056082711466,10.7197543109264));
#585=CARTESIAN_POINT('Ctrl Pts',(4.38699427030837,305.884381526826,11.8311395468308));
#586=CARTESIAN_POINT('Ctrl Pts',(4.49999999999999,305.79099695363,12.4346576817731));
#587=CARTESIAN_POINT('Ctrl Pts',(4.49999999999999,305.703377680095,13.));
#588=CARTESIAN_POINT('Origin',(10.,286.824,-5.67890834580041));
#589=CARTESIAN_POINT('',(2.99999999999999,306.581005610156,-5.67890834580041));
#590=CARTESIAN_POINT('',(16.0869565217391,304.786340854149,-9.13563516498325));
#591=CARTESIAN_POINT('Ctrl Pts',(2.99999999999999,306.581005610156,-5.67890834580041));
#592=CARTESIAN_POINT('Ctrl Pts',(2.99999999999999,306.53829078599,-6.31642182040581));
#593=CARTESIAN_POINT('Ctrl Pts',(3.08940237235812,306.485517893254,-6.9461126533202));
#594=CARTESIAN_POINT('Ctrl Pts',(3.48143933638058,306.343019686714,-8.37869736339526));
#595=CARTESIAN_POINT('Ctrl Pts',(3.90071732155554,306.235585421169,-9.23890522729711));
#596=CARTESIAN_POINT('Ctrl Pts',(5.0493528700029,305.999849624963,-10.7153672007405));
#597=CARTESIAN_POINT('Ctrl Pts',(5.77866786299155,305.871536115945,-11.3316525154752));
#598=CARTESIAN_POINT('Ctrl Pts',(7.30800371911194,305.630547468094,-12.2001483311606));
#599=CARTESIAN_POINT('Ctrl Pts',(8.21098056754705,305.501652471209,-12.510767448629));
#600=CARTESIAN_POINT('Ctrl Pts',(10.0674927057439,305.26383820953,-12.7408012822601));
#601=CARTESIAN_POINT('Ctrl Pts',(11.0210359376769,305.154935563818,-12.6601690787264));
#602=CARTESIAN_POINT('Ctrl Pts',(12.7148286748578,304.983539337753,-12.189993530077));
#603=CARTESIAN_POINT('Ctrl Pts',(13.5688706096365,304.909295062054,-11.7724001375853));
#604=CARTESIAN_POINT('Ctrl Pts',(15.0380369959044,304.810684593598,-10.6272072362229));
#605=CARTESIAN_POINT('Ctrl Pts',(15.6531285618629,304.786340854149,-9.89956360590806));
#606=CARTESIAN_POINT('Ctrl Pts',(16.0869565217391,304.786340854149,-9.13563516498324));
#607=CARTESIAN_POINT('',(2.99999999999999,286.824,-5.67890834580041));
#608=CARTESIAN_POINT('',(2.99999999999999,286.824,-5.67890834580041));
#609=CARTESIAN_POINT('',(16.0869565217391,286.824,-9.13563516498325));
#610=CARTESIAN_POINT('Origin',(10.,286.824,-5.67890834580041));
#611=CARTESIAN_POINT('',(16.0869565217391,286.824,-9.13563516498325));
#612=CARTESIAN_POINT('Origin',(8.88178419700125E-15,286.824,-1.33226762955019E-14));
#613=CARTESIAN_POINT('',(16.0869565217391,304.786340854149,9.13563516498322));
#614=CARTESIAN_POINT('Origin',(8.88178419700125E-15,304.786340854149,-1.33226762955019E-14));
#615=CARTESIAN_POINT('',(16.0869565217391,286.824,9.13563516498322));
#616=CARTESIAN_POINT('Origin',(8.88178419700125E-15,286.824,-1.33226762955019E-14));
#617=CARTESIAN_POINT('',(16.0869565217391,286.824,9.13563516498322));
#618=CARTESIAN_POINT('Origin',(9.99999999999999,286.824,5.6789083458004));
#619=CARTESIAN_POINT('',(2.99999999999999,306.581005610156,5.67890834580039));
#620=CARTESIAN_POINT('Ctrl Pts',(16.0869565217391,304.786340854149,9.13563516498322));
#621=CARTESIAN_POINT('Ctrl Pts',(15.771457385535,304.786340854149,9.69119816581496));
#622=CARTESIAN_POINT('Ctrl Pts',(15.3814201480166,304.798791141597,10.1961606514596));
#623=CARTESIAN_POINT('Ctrl Pts',(14.3308438492947,304.853349839954,11.2487496979484));
#624=CARTESIAN_POINT('Ctrl Pts',(13.541423792854,304.911495913238,11.7888725340935));
#625=CARTESIAN_POINT('Ctrl Pts',(11.8145500960823,305.070309805439,12.5039178219966));
#626=CARTESIAN_POINT('Ctrl Pts',(10.8771220010888,305.170948895431,12.6789083458004));
#627=CARTESIAN_POINT('Ctrl Pts',(9.11883856069308,305.381642744218,12.6789083458004));
#628=CARTESIAN_POINT('Ctrl Pts',(8.18018258512533,305.505907615967,12.5024798031989));
#629=CARTESIAN_POINT('Ctrl Pts',(6.45431228040672,305.760360567046,11.7863598429867));
#630=CARTESIAN_POINT('Ctrl Pts',(5.66709233304321,305.890544118069,11.2466803564963));
#631=CARTESIAN_POINT('Ctrl Pts',(4.42729965427057,306.121614614462,10.0045155507298));
#632=CARTESIAN_POINT('Ctrl Pts',(3.88998710799897,306.238129811303,9.21963861425909));
#633=CARTESIAN_POINT('Ctrl Pts',(3.17630424539307,306.438313450478,7.49720603441188));
#634=CARTESIAN_POINT('Ctrl Pts',(2.99999999999999,306.521995656505,6.55962461520654));
#635=CARTESIAN_POINT('Ctrl Pts',(2.99999999999999,306.581005610156,5.67890834580039));
#636=CARTESIAN_POINT('',(2.99999999999999,286.824,5.67890834580039));
#637=CARTESIAN_POINT('Origin',(9.99999999999999,286.824,5.6789083458004));
#638=CARTESIAN_POINT('',(2.99999999999999,286.824,5.67890834580039));
#639=CARTESIAN_POINT('Origin',(2.99999999999999,286.824,-5.67890834580041));
#640=CARTESIAN_POINT('Origin',(2.99999999999999,221.824,0.));
#641=CARTESIAN_POINT('',(2.99999999999999,286.824,24.5466737023581));
#642=CARTESIAN_POINT('Origin',(8.88178419700125E-15,286.824,-1.33226762955019E-14));
#643=CARTESIAN_POINT('',(-16.0869565217391,304.786340854149,9.13563516498323));
#644=CARTESIAN_POINT('',(-16.0869565217391,304.786340854149,-9.13563516498325));
#645=CARTESIAN_POINT('Origin',(8.88178419700125E-15,304.786340854149,-1.33226762955019E-14));
#646=CARTESIAN_POINT('',(-16.0869565217391,286.824,9.13563516498323));
#647=CARTESIAN_POINT('',(-16.0869565217391,286.824,9.13563516498323));
#648=CARTESIAN_POINT('',(-16.0869565217391,286.824,-9.13563516498325));
#649=CARTESIAN_POINT('Origin',(8.88178419700125E-15,286.824,-1.33226762955019E-14));
#650=CARTESIAN_POINT('',(-16.0869565217391,286.824,-9.13563516498325));
#651=CARTESIAN_POINT('Origin',(-10.,286.824,-5.67890834580042));
#652=CARTESIAN_POINT('',(-3.00000000000001,306.581005610156,-5.67890834580042));
#653=CARTESIAN_POINT('Ctrl Pts',(-16.0869565217391,304.786340854149,-9.13563516498325));
#654=CARTESIAN_POINT('Ctrl Pts',(-15.771457385535,304.786340854149,-9.69119816581498));
#655=CARTESIAN_POINT('Ctrl Pts',(-15.3814201480166,304.798791141597,-10.1961606514596));
#656=CARTESIAN_POINT('Ctrl Pts',(-14.3308438492947,304.853349839954,-11.2487496979484));
#657=CARTESIAN_POINT('Ctrl Pts',(-13.541423792854,304.911495913238,-11.7888725340935));
#658=CARTESIAN_POINT('Ctrl Pts',(-11.8145500960824,305.070309805439,-12.5039178219966));
#659=CARTESIAN_POINT('Ctrl Pts',(-10.8771220010888,305.170948895431,-12.6789083458004));
#660=CARTESIAN_POINT('Ctrl Pts',(-9.1188385606931,305.381642744218,-12.6789083458004));
#661=CARTESIAN_POINT('Ctrl Pts',(-8.18018258512535,305.505907615967,-12.502479803199));
#662=CARTESIAN_POINT('Ctrl Pts',(-6.45431228040674,305.760360567046,-11.7863598429867));
#663=CARTESIAN_POINT('Ctrl Pts',(-5.66709233304323,305.890544118069,-11.2466803564963));
#664=CARTESIAN_POINT('Ctrl Pts',(-4.42729965427059,306.121614614462,-10.0045155507298));
#665=CARTESIAN_POINT('Ctrl Pts',(-3.88998710799899,306.238129811303,-9.21963861425912));
#666=CARTESIAN_POINT('Ctrl Pts',(-3.17630424539308,306.438313450478,-7.4972060344119));
#667=CARTESIAN_POINT('Ctrl Pts',(-3.00000000000001,306.521995656505,-6.55962461520656));
#668=CARTESIAN_POINT('Ctrl Pts',(-3.00000000000001,306.581005610156,-5.67890834580041));
#669=CARTESIAN_POINT('',(-3.00000000000001,286.824,-5.67890834580042));
#670=CARTESIAN_POINT('Origin',(-10.,286.824,-5.67890834580042));
#671=CARTESIAN_POINT('',(-3.00000000000001,286.824,-5.67890834580042));
#672=CARTESIAN_POINT('Origin',(-3.00000000000001,286.824,5.6789083458004));
#673=CARTESIAN_POINT('',(-3.00000000000001,306.581005610156,5.6789083458004));
#674=CARTESIAN_POINT('Origin',(-3.00000000000001,221.824,-2.93249060476432E-16));
#675=CARTESIAN_POINT('',(-3.00000000000001,286.824,5.6789083458004));
#676=CARTESIAN_POINT('',(-3.00000000000001,286.824,30.2255820481585));
#677=CARTESIAN_POINT('',(-3.00000000000001,286.824,5.6789083458004));
#678=CARTESIAN_POINT('Origin',(-10.,286.824,5.6789083458004));
#679=CARTESIAN_POINT('Ctrl Pts',(-3.00000000000001,306.581005610156,5.6789083458004));
#680=CARTESIAN_POINT('Ctrl Pts',(-3.00000000000001,306.53829078599,6.3164218204058));
#681=CARTESIAN_POINT('Ctrl Pts',(-3.08940237235814,306.485517893254,6.94611265332018));
#682=CARTESIAN_POINT('Ctrl Pts',(-3.4814393363806,306.343019686714,8.37869736339524));
#683=CARTESIAN_POINT('Ctrl Pts',(-3.90071732155556,306.235585421169,9.23890522729709));
#684=CARTESIAN_POINT('Ctrl Pts',(-5.04935287000291,305.999849624963,10.7153672007404));
#685=CARTESIAN_POINT('Ctrl Pts',(-5.77866786299156,305.871536115945,11.3316525154752));
#686=CARTESIAN_POINT('Ctrl Pts',(-7.30800371911195,305.630547468094,12.2001483311606));
#687=CARTESIAN_POINT('Ctrl Pts',(-8.21098056754705,305.501652471209,12.510767448629));
#688=CARTESIAN_POINT('Ctrl Pts',(-10.0674927057439,305.26383820953,12.7408012822601));
#689=CARTESIAN_POINT('Ctrl Pts',(-11.0210359376769,305.154935563818,12.6601690787263));
#690=CARTESIAN_POINT('Ctrl Pts',(-12.7148286748578,304.983539337753,12.189993530077));
#691=CARTESIAN_POINT('Ctrl Pts',(-13.5688706096365,304.909295062054,11.7724001375853));
#692=CARTESIAN_POINT('Ctrl Pts',(-15.0380369959044,304.810684593598,10.6272072362229));
#693=CARTESIAN_POINT('Ctrl Pts',(-15.6531285618629,304.786340854149,9.89956360590805));
#694=CARTESIAN_POINT('Ctrl Pts',(-16.0869565217391,304.786340854149,9.13563516498324));
#695=CARTESIAN_POINT('Origin',(-10.,286.824,5.6789083458004));
#696=CARTESIAN_POINT('Origin',(-6.66133814775094E-15,276.824,-13.0000001937151));
#697=CARTESIAN_POINT('',(-1.70000000000001,286.824,-13.0000001937151));
#698=CARTESIAN_POINT('Origin',(-6.66133814775094E-15,286.824,-13.0000001937151));
#699=CARTESIAN_POINT('',(-1.70000000000001,276.824,-13.0000001937151));
#700=CARTESIAN_POINT('Origin',(-6.66133814775094E-15,276.824,13.));
#701=CARTESIAN_POINT('',(-1.70000000000001,286.824,13.));
#702=CARTESIAN_POINT('Origin',(-6.66133814775094E-15,286.824,13.));
#703=CARTESIAN_POINT('',(-1.70000000000001,276.824,13.));
#704=CARTESIAN_POINT('Origin',(0.,286.824,54.7722557505166));
#705=CARTESIAN_POINT('',(0.,286.824,54.7722557505166));
#706=CARTESIAN_POINT('Origin',(0.,286.824,0.));
#707=CARTESIAN_POINT('Origin',(0.,221.824,0.));
#708=UNCERTAINTY_MEASURE_WITH_UNIT(LENGTH_MEASURE(0.01),#712,
'DISTANCE_ACCURACY_VALUE',
'Maximum model space distance between geometric entities at asserted c
onnectivities');
#709=UNCERTAINTY_MEASURE_WITH_UNIT(LENGTH_MEASURE(0.01),#712,
'DISTANCE_ACCURACY_VALUE',
'Maximum model space distance between geometric entities at asserted c
onnectivities');
#710=(
GEOMETRIC_REPRESENTATION_CONTEXT(3)
GLOBAL_UNCERTAINTY_ASSIGNED_CONTEXT((#708))
GLOBAL_UNIT_ASSIGNED_CONTEXT((#712,#714,#715))
REPRESENTATION_CONTEXT('','3D')
);
#711=(
GEOMETRIC_REPRESENTATION_CONTEXT(3)
GLOBAL_UNCERTAINTY_ASSIGNED_CONTEXT((#709))
GLOBAL_UNIT_ASSIGNED_CONTEXT((#712,#714,#715))
REPRESENTATION_CONTEXT('','3D')
);
#712=(
LENGTH_UNIT()
NAMED_UNIT(*)
SI_UNIT(.MILLI.,.METRE.)
);
#713=(
LENGTH_UNIT()
NAMED_UNIT(*)
SI_UNIT($,.METRE.)
);
#714=(
NAMED_UNIT(*)
PLANE_ANGLE_UNIT()
SI_UNIT($,.RADIAN.)
);
#715=(
NAMED_UNIT(*)
SI_UNIT($,.STERADIAN.)
SOLID_ANGLE_UNIT()
);
#716=SHAPE_DEFINITION_REPRESENTATION(#717,#718);
#717=PRODUCT_DEFINITION_SHAPE('',$,#720);
#718=SHAPE_REPRESENTATION('',(#345),#710);
#719=PRODUCT_DEFINITION_CONTEXT('part definition',#724,'design');
#720=PRODUCT_DEFINITION('tampa_digiball','tampa_digiball',#721,#719);
#721=PRODUCT_DEFINITION_FORMATION('',$,#726);
#722=PRODUCT_RELATED_PRODUCT_CATEGORY('tampa_digiball','tampa_digiball',
(#726));
#723=APPLICATION_PROTOCOL_DEFINITION('international standard',
'automotive_design',2009,#724);
#724=APPLICATION_CONTEXT(
'Core Data for Automotive Mechanical Design Process');
#725=PRODUCT_CONTEXT('part definition',#724,'mechanical');
#726=PRODUCT('tampa_digiball','tampa_digiball',$,(#725));
#727=PRESENTATION_STYLE_ASSIGNMENT((#728));
#728=SURFACE_STYLE_USAGE(.BOTH.,#729);
#729=SURFACE_SIDE_STYLE('',(#730));
#730=SURFACE_STYLE_FILL_AREA(#731);
#731=FILL_AREA_STYLE('A\X\E7o - Acetinado',(#732));
#732=FILL_AREA_STYLE_COLOUR('A\X\E7o - Acetinado',#733);
#733=COLOUR_RGB('A\X\E7o - Acetinado',0.627450980392157,0.627450980392157,
0.627450980392157);
ENDSEC;
END-ISO-10303-21;
