ISO-10303-21;
HEADER;
/* Generated by software containing ST-Developer
 * from STEP Tools, Inc. (www.steptools.com) 
 */

FILE_DESCRIPTION(
/* description */ (''),
/* implementation_level */ '2;1');

FILE_NAME(
/* name */ 'DIGIBALL_v_01_00--03_03_2026_encaixe.step',
/* time_stamp */ '2026-03-03T17:35:32Z',
/* author */ (''),
/* organization */ (''),
/* preprocessor_version */ 'ST-DEVELOPER v20.1',
/* originating_system */ 'Autodesk Translation Framework v14.24.0.0',
/* authorisation */ '');

FILE_SCHEMA (('AUTOMOTIVE_DESIGN { 1 0 10303 214 3 1 1 }'));
ENDSEC;

DATA;
#10=MECHANICAL_DESIGN_GEOMETRIC_PRESENTATION_REPRESENTATION('',(#13),#1814);
#11=SHAPE_REPRESENTATION_RELATIONSHIP('SRR','None',#1821,#12);
#12=ADVANCED_BREP_SHAPE_REPRESENTATION('',(#14),#1813);
#13=STYLED_ITEM('',(#1830),#14);
#14=MANIFOLD_SOLID_BREP('Corpo1',#970);
#15=FACE_BOUND('',#307,.T.);
#16=FACE_BOUND('',#310,.T.);
#17=FACE_BOUND('',#311,.T.);
#18=FACE_BOUND('',#312,.T.);
#19=FACE_BOUND('',#313,.T.);
#20=FACE_BOUND('',#335,.T.);
#21=FACE_BOUND('',#336,.T.);
#22=ELLIPSE('',#1008,2.12132034355964,1.5);
#23=ELLIPSE('',#1010,2.12132034355964,1.5);
#24=PLANE('',#1003);
#25=PLANE('',#1006);
#26=PLANE('',#1026);
#27=PLANE('',#1027);
#28=PLANE('',#1037);
#29=PLANE('',#1039);
#30=PLANE('',#1057);
#31=PLANE('',#1059);
#32=PLANE('',#1060);
#33=PLANE('',#1061);
#34=PLANE('',#1067);
#35=PLANE('',#1068);
#36=PLANE('',#1069);
#37=PLANE('',#1070);
#38=PLANE('',#1071);
#39=PLANE('',#1072);
#40=PLANE('',#1073);
#41=PLANE('',#1074);
#42=PLANE('',#1075);
#43=PLANE('',#1076);
#44=PLANE('',#1079);
#45=PLANE('',#1089);
#46=PLANE('',#1091);
#47=TOROIDAL_SURFACE('',#989,28.7,1.5);
#48=TOROIDAL_SURFACE('',#998,28.7,1.5);
#49=TOROIDAL_SURFACE('',#1021,28.7,1.5);
#50=TOROIDAL_SURFACE('',#1077,16.5000000000001,2.);
#51=TOROIDAL_SURFACE('',#1085,16.5000000000001,2.);
#52=LINE('',#1402,#123);
#53=LINE('',#1403,#124);
#54=LINE('',#1443,#125);
#55=LINE('',#1444,#126);
#56=LINE('',#1446,#127);
#57=LINE('',#1447,#128);
#58=LINE('',#1469,#129);
#59=LINE('',#1481,#130);
#60=LINE('',#1484,#131);
#61=LINE('',#1496,#132);
#62=LINE('',#1500,#133);
#63=LINE('',#1502,#134);
#64=LINE('',#1506,#135);
#65=LINE('',#1519,#136);
#66=LINE('',#1529,#137);
#67=LINE('',#1542,#138);
#68=LINE('',#1576,#139);
#69=LINE('',#1577,#140);
#70=LINE('',#1579,#141);
#71=LINE('',#1580,#142);
#72=LINE('',#1585,#143);
#73=LINE('',#1586,#144);
#74=LINE('',#1600,#145);
#75=LINE('',#1601,#146);
#76=LINE('',#1603,#147);
#77=LINE('',#1608,#148);
#78=LINE('',#1610,#149);
#79=LINE('',#1616,#150);
#80=LINE('',#1618,#151);
#81=LINE('',#1624,#152);
#82=LINE('',#1626,#153);
#83=LINE('',#1630,#154);
#84=LINE('',#1632,#155);
#85=LINE('',#1651,#156);
#86=LINE('',#1662,#157);
#87=LINE('',#1665,#158);
#88=LINE('',#1679,#159);
#89=LINE('',#1682,#160);
#90=LINE('',#1698,#161);
#91=LINE('',#1700,#162);
#92=LINE('',#1703,#163);
#93=LINE('',#1706,#164);
#94=LINE('',#1708,#165);
#95=LINE('',#1711,#166);
#96=LINE('',#1714,#167);
#97=LINE('',#1716,#168);
#98=LINE('',#1717,#169);
#99=LINE('',#1720,#170);
#100=LINE('',#1722,#171);
#101=LINE('',#1723,#172);
#102=LINE('',#1725,#173);
#103=LINE('',#1727,#174);
#104=LINE('',#1730,#175);
#105=LINE('',#1733,#176);
#106=LINE('',#1735,#177);
#107=LINE('',#1738,#178);
#108=LINE('',#1741,#179);
#109=LINE('',#1744,#180);
#110=LINE('',#1745,#181);
#111=LINE('',#1747,#182);
#112=LINE('',#1750,#183);
#113=LINE('',#1753,#184);
#114=LINE('',#1757,#185);
#115=LINE('',#1758,#186);
#116=LINE('',#1760,#187);
#117=LINE('',#1791,#188);
#118=LINE('',#1794,#189);
#119=LINE('',#1802,#190);
#120=LINE('',#1804,#191);
#121=LINE('',#1806,#192);
#122=LINE('',#1808,#193);
#123=VECTOR('',#1104,10.);
#124=VECTOR('',#1105,10.);
#125=VECTOR('',#1122,10.);
#126=VECTOR('',#1123,10.);
#127=VECTOR('',#1126,10.);
#128=VECTOR('',#1127,10.);
#129=VECTOR('',#1136,10.);
#130=VECTOR('',#1137,10.);
#131=VECTOR('',#1140,10.);
#132=VECTOR('',#1141,10.);
#133=VECTOR('',#1148,10.);
#134=VECTOR('',#1151,10.);
#135=VECTOR('',#1154,10.);
#136=VECTOR('',#1155,10.);
#137=VECTOR('',#1160,10.);
#138=VECTOR('',#1161,10.);
#139=VECTOR('',#1182,10.);
#140=VECTOR('',#1183,10.);
#141=VECTOR('',#1186,10.);
#142=VECTOR('',#1187,10.);
#143=VECTOR('',#1196,10.);
#144=VECTOR('',#1197,10.);
#145=VECTOR('',#1200,10.);
#146=VECTOR('',#1201,10.);
#147=VECTOR('',#1204,10.);
#148=VECTOR('',#1209,10.);
#149=VECTOR('',#1210,10.);
#150=VECTOR('',#1215,10.);
#151=VECTOR('',#1216,10.);
#152=VECTOR('',#1223,10.);
#153=VECTOR('',#1224,10.);
#154=VECTOR('',#1227,10.);
#155=VECTOR('',#1228,10.);
#156=VECTOR('',#1249,10.);
#157=VECTOR('',#1260,10.);
#158=VECTOR('',#1263,10.);
#159=VECTOR('',#1266,10.);
#160=VECTOR('',#1269,10.);
#161=VECTOR('',#1272,10.);
#162=VECTOR('',#1275,18.5000000000001);
#163=VECTOR('',#1278,10.);
#164=VECTOR('',#1281,10.);
#165=VECTOR('',#1284,10.);
#166=VECTOR('',#1289,10.);
#167=VECTOR('',#1292,10.);
#168=VECTOR('',#1293,10.);
#169=VECTOR('',#1294,10.);
#170=VECTOR('',#1297,10.);
#171=VECTOR('',#1298,10.);
#172=VECTOR('',#1299,10.);
#173=VECTOR('',#1302,21.5000000000001);
#174=VECTOR('',#1303,10.);
#175=VECTOR('',#1306,10.);
#176=VECTOR('',#1309,10.);
#177=VECTOR('',#1310,10.);
#178=VECTOR('',#1313,10.);
#179=VECTOR('',#1316,10.);
#180=VECTOR('',#1319,10.);
#181=VECTOR('',#1320,10.);
#182=VECTOR('',#1323,10.);
#183=VECTOR('',#1328,10.);
#184=VECTOR('',#1333,10.);
#185=VECTOR('',#1338,10.);
#186=VECTOR('',#1339,10.);
#187=VECTOR('',#1342,10.);
#188=VECTOR('',#1353,10.);
#189=VECTOR('',#1356,10.);
#190=VECTOR('',#1367,1.7);
#191=VECTOR('',#1370,1.7);
#192=VECTOR('',#1373,10.);
#193=VECTOR('',#1376,10.);
#194=B_SPLINE_CURVE_WITH_KNOTS('',3,(#1392,#1393,#1394,#1395,#1396,#1397,
#1398,#1399,#1400,#1401),.UNSPECIFIED.,.F.,.F.,(4,2,2,2,4),(-0.231084732540844,
-0.172019651010898,-0.112954569480952,-0.0564772847404761,0.),
 .UNSPECIFIED.);
#195=B_SPLINE_CURVE_WITH_KNOTS('',3,(#1409,#1410,#1411,#1412,#1413,#1414,
#1415,#1416,#1417,#1418,#1419,#1420,#1421,#1422),.UNSPECIFIED.,.F.,.F.,
(4,2,2,2,2,2,4),(-0.000708425848371717,0.,0.0547821878139661,0.107704755349082,
0.172016046822831,0.223896213621223,0.270813223429782),.UNSPECIFIED.);
#196=B_SPLINE_CURVE_WITH_KNOTS('',3,(#1433,#1434,#1435,#1436,#1437,#1438,
#1439,#1440,#1441,#1442),.UNSPECIFIED.,.F.,.F.,(4,2,2,2,4),(0.460207284074394,
0.51668456881487,0.573161853555347,0.632226935085293,0.691292016615239),
 .UNSPECIFIED.);
#197=B_SPLINE_CURVE_WITH_KNOTS('',3,(#1453,#1454,#1455,#1456,#1457,#1458,
#1459,#1460,#1461,#1462,#1463,#1464,#1465,#1466),.UNSPECIFIED.,.F.,.F.,
(4,2,2,2,2,2,4),(0.,0.0465760445451819,0.098079176771074,0.161923091561501,
0.214461048968048,0.268845112040996,0.269548389465),.UNSPECIFIED.);
#198=B_SPLINE_CURVE_WITH_KNOTS('',3,(#1471,#1472,#1473,#1474,#1475,#1476,
#1477,#1478,#1479,#1480),.UNSPECIFIED.,.F.,.F.,(4,2,2,2,4),(0.22912255153355,
0.288187633063496,0.347252714593442,0.403729999333918,0.460207284074395),
 .UNSPECIFIED.);
#199=B_SPLINE_CURVE_WITH_KNOTS('',3,(#1486,#1487,#1488,#1489,#1490,#1491,
#1492,#1493,#1494,#1495),.UNSPECIFIED.,.F.,.F.,(4,2,2,2,4),(0.,0.0564772847404763,
0.112954569480953,0.172019651010899,0.231084732540845),.UNSPECIFIED.);
#200=B_SPLINE_CURVE_WITH_KNOTS('',3,(#1508,#1509,#1510,#1511,#1512,#1513,
#1514,#1515,#1516,#1517),.UNSPECIFIED.,.F.,.F.,(4,2,2,2,4),(0.,0.0564772847404761,
0.112954569480952,0.172019651010898,0.231084732540845),.UNSPECIFIED.);
#201=B_SPLINE_CURVE_WITH_KNOTS('',3,(#1522,#1523,#1524,#1525),
 .UNSPECIFIED.,.F.,.F.,(4,4),(0.199572064058113,0.228489256723013),
 .UNSPECIFIED.);
#202=B_SPLINE_CURVE_WITH_KNOTS('',3,(#1531,#1532,#1533,#1534,#1535,#1536,
#1537,#1538,#1539,#1540),.UNSPECIFIED.,.F.,.F.,(4,2,2,2,4),(-0.231084732540845,
-0.172019651010899,-0.112954569480953,-0.0564772847404763,0.),
 .UNSPECIFIED.);
#203=B_SPLINE_CURVE_WITH_KNOTS('',3,(#1544,#1545,#1546,#1547),
 .UNSPECIFIED.,.F.,.F.,(4,4),(0.683596995104332,0.712514187769234),
 .UNSPECIFIED.);
#204=B_SPLINE_CURVE_WITH_KNOTS('',3,(#1566,#1567,#1568,#1569,#1570,#1571,
#1572,#1573,#1574,#1575),.UNSPECIFIED.,.F.,.F.,(4,2,2,2,4),(0.460207284074395,
0.516684568814871,0.573161853555347,0.632226935085293,0.691292016615239),
 .UNSPECIFIED.);
#205=B_SPLINE_CURVE_WITH_KNOTS('',3,(#1590,#1591,#1592,#1593,#1594,#1595,
#1596,#1597,#1598,#1599),.UNSPECIFIED.,.F.,.F.,(4,2,2,2,4),(0.229122551533549,
0.288187633063496,0.347252714593442,0.403729999333918,0.460207284074394),
 .UNSPECIFIED.);
#206=B_SPLINE_CURVE_WITH_KNOTS('',3,(#1669,#1670,#1671,#1672,#1673,#1674,
#1675,#1676,#1677,#1678),.UNSPECIFIED.,.F.,.F.,(4,2,2,2,4),(-0.00157747294626413,
0.,0.267650040547091,0.526621597119825,0.767165664866944),.UNSPECIFIED.);
#207=B_SPLINE_CURVE_WITH_KNOTS('',3,(#1684,#1685,#1686,#1687,#1688,#1689,
#1690,#1691,#1692,#1693,#1694,#1695),.UNSPECIFIED.,.F.,.F.,(4,2,2,2,2,4),
(2.11739540253078,2.20198815942158,2.47678718717895,2.71125781857588,2.95947827663703,
2.96126611742458),.UNSPECIFIED.);
#208=B_SPLINE_CURVE_WITH_KNOTS('',3,(#1764,#1765,#1766,#1767,#1768,#1769,
#1770,#1771,#1772,#1773),.UNSPECIFIED.,.F.,.F.,(4,2,2,2,4),(-0.00157747294628306,
0.,0.267650040571089,0.526621597169411,0.767165664940447),.UNSPECIFIED.);
#209=B_SPLINE_CURVE_WITH_KNOTS('',3,(#1776,#1777,#1778,#1779,#1780,#1781,
#1782,#1783,#1784,#1785,#1786,#1787),.UNSPECIFIED.,.F.,.F.,(4,2,2,2,2,4),
(2.11739540241961,2.20198815930589,2.47678718704865,2.71125781843308,2.95947827648122,
2.96126611726883),.UNSPECIFIED.);
#210=CYLINDRICAL_SURFACE('',#988,1.5);
#211=CYLINDRICAL_SURFACE('',#996,1.5);
#212=CYLINDRICAL_SURFACE('',#997,1.5);
#213=CYLINDRICAL_SURFACE('',#1001,1.5);
#214=CYLINDRICAL_SURFACE('',#1002,1.5);
#215=CYLINDRICAL_SURFACE('',#1005,30.2);
#216=CYLINDRICAL_SURFACE('',#1007,1.5);
#217=CYLINDRICAL_SURFACE('',#1009,1.5);
#218=CYLINDRICAL_SURFACE('',#1019,1.5);
#219=CYLINDRICAL_SURFACE('',#1020,1.5);
#220=CYLINDRICAL_SURFACE('',#1024,1.5);
#221=CYLINDRICAL_SURFACE('',#1025,1.5);
#222=CYLINDRICAL_SURFACE('',#1050,7.);
#223=CYLINDRICAL_SURFACE('',#1052,7.);
#224=CYLINDRICAL_SURFACE('',#1054,18.5000000000001);
#225=CYLINDRICAL_SURFACE('',#1058,30.2);
#226=CYLINDRICAL_SURFACE('',#1062,21.5000000000001);
#227=CYLINDRICAL_SURFACE('',#1086,1.7);
#228=CYLINDRICAL_SURFACE('',#1087,1.7);
#229=CYLINDRICAL_SURFACE('',#1088,7.);
#230=CYLINDRICAL_SURFACE('',#1090,7.);
#231=FACE_OUTER_BOUND('',#284,.T.);
#232=FACE_OUTER_BOUND('',#285,.T.);
#233=FACE_OUTER_BOUND('',#286,.T.);
#234=FACE_OUTER_BOUND('',#287,.T.);
#235=FACE_OUTER_BOUND('',#288,.T.);
#236=FACE_OUTER_BOUND('',#289,.T.);
#237=FACE_OUTER_BOUND('',#290,.T.);
#238=FACE_OUTER_BOUND('',#291,.T.);
#239=FACE_OUTER_BOUND('',#292,.T.);
#240=FACE_OUTER_BOUND('',#293,.T.);
#241=FACE_OUTER_BOUND('',#294,.T.);
#242=FACE_OUTER_BOUND('',#295,.T.);
#243=FACE_OUTER_BOUND('',#296,.T.);
#244=FACE_OUTER_BOUND('',#297,.T.);
#245=FACE_OUTER_BOUND('',#298,.T.);
#246=FACE_OUTER_BOUND('',#299,.T.);
#247=FACE_OUTER_BOUND('',#300,.T.);
#248=FACE_OUTER_BOUND('',#301,.T.);
#249=FACE_OUTER_BOUND('',#302,.T.);
#250=FACE_OUTER_BOUND('',#303,.T.);
#251=FACE_OUTER_BOUND('',#304,.T.);
#252=FACE_OUTER_BOUND('',#305,.T.);
#253=FACE_OUTER_BOUND('',#306,.T.);
#254=FACE_OUTER_BOUND('',#308,.T.);
#255=FACE_OUTER_BOUND('',#309,.T.);
#256=FACE_OUTER_BOUND('',#314,.T.);
#257=FACE_OUTER_BOUND('',#315,.T.);
#258=FACE_OUTER_BOUND('',#316,.T.);
#259=FACE_OUTER_BOUND('',#317,.T.);
#260=FACE_OUTER_BOUND('',#318,.T.);
#261=FACE_OUTER_BOUND('',#319,.T.);
#262=FACE_OUTER_BOUND('',#320,.T.);
#263=FACE_OUTER_BOUND('',#321,.T.);
#264=FACE_OUTER_BOUND('',#322,.T.);
#265=FACE_OUTER_BOUND('',#323,.T.);
#266=FACE_OUTER_BOUND('',#324,.T.);
#267=FACE_OUTER_BOUND('',#325,.T.);
#268=FACE_OUTER_BOUND('',#326,.T.);
#269=FACE_OUTER_BOUND('',#327,.T.);
#270=FACE_OUTER_BOUND('',#328,.T.);
#271=FACE_OUTER_BOUND('',#329,.T.);
#272=FACE_OUTER_BOUND('',#330,.T.);
#273=FACE_OUTER_BOUND('',#331,.T.);
#274=FACE_OUTER_BOUND('',#332,.T.);
#275=FACE_OUTER_BOUND('',#333,.T.);
#276=FACE_OUTER_BOUND('',#334,.T.);
#277=FACE_OUTER_BOUND('',#337,.T.);
#278=FACE_OUTER_BOUND('',#338,.T.);
#279=FACE_OUTER_BOUND('',#339,.T.);
#280=FACE_OUTER_BOUND('',#340,.T.);
#281=FACE_OUTER_BOUND('',#341,.T.);
#282=FACE_OUTER_BOUND('',#342,.T.);
#283=FACE_OUTER_BOUND('',#343,.T.);
#284=EDGE_LOOP('',(#629,#630,#631));
#285=EDGE_LOOP('',(#632,#633,#634,#635));
#286=EDGE_LOOP('',(#636,#637,#638,#639));
#287=EDGE_LOOP('',(#640,#641,#642));
#288=EDGE_LOOP('',(#643,#644,#645,#646));
#289=EDGE_LOOP('',(#647,#648,#649,#650));
#290=EDGE_LOOP('',(#651,#652,#653,#654));
#291=EDGE_LOOP('',(#655,#656,#657,#658));
#292=EDGE_LOOP('',(#659,#660,#661,#662));
#293=EDGE_LOOP('',(#663,#664,#665,#666));
#294=EDGE_LOOP('',(#667,#668,#669,#670));
#295=EDGE_LOOP('',(#671,#672,#673,#674));
#296=EDGE_LOOP('',(#675,#676,#677,#678,#679));
#297=EDGE_LOOP('',(#680,#681,#682,#683,#684));
#298=EDGE_LOOP('',(#685,#686,#687));
#299=EDGE_LOOP('',(#688,#689,#690));
#300=EDGE_LOOP('',(#691,#692,#693,#694));
#301=EDGE_LOOP('',(#695,#696,#697,#698));
#302=EDGE_LOOP('',(#699,#700,#701,#702));
#303=EDGE_LOOP('',(#703,#704,#705,#706));
#304=EDGE_LOOP('',(#707,#708,#709,#710));
#305=EDGE_LOOP('',(#711,#712,#713,#714));
#306=EDGE_LOOP('',(#715,#716,#717,#718,#719,#720,#721,#722,#723,#724,#725,
#726,#727,#728,#729,#730,#731,#732,#733,#734,#735));
#307=EDGE_LOOP('',(#736));
#308=EDGE_LOOP('',(#737,#738,#739,#740));
#309=EDGE_LOOP('',(#741));
#310=EDGE_LOOP('',(#742));
#311=EDGE_LOOP('',(#743));
#312=EDGE_LOOP('',(#744,#745,#746,#747));
#313=EDGE_LOOP('',(#748,#749,#750,#751,#752));
#314=EDGE_LOOP('',(#753,#754,#755,#756,#757));
#315=EDGE_LOOP('',(#758,#759,#760,#761,#762));
#316=EDGE_LOOP('',(#763,#764,#765,#766,#767,#768,#769,#770,#771,#772,#773,
#774));
#317=EDGE_LOOP('',(#775,#776,#777,#778));
#318=EDGE_LOOP('',(#779,#780,#781,#782,#783,#784));
#319=EDGE_LOOP('',(#785,#786,#787,#788));
#320=EDGE_LOOP('',(#789,#790,#791,#792));
#321=EDGE_LOOP('',(#793,#794,#795,#796));
#322=EDGE_LOOP('',(#797,#798,#799,#800,#801,#802,#803,#804,#805,#806,#807,
#808,#809,#810,#811,#812,#813,#814,#815,#816,#817,#818,#819,#820,#821,#822,
#823,#824,#825,#826,#827,#828,#829,#830,#831,#832));
#323=EDGE_LOOP('',(#833,#834,#835,#836));
#324=EDGE_LOOP('',(#837,#838,#839));
#325=EDGE_LOOP('',(#840,#841,#842,#843));
#326=EDGE_LOOP('',(#844,#845,#846));
#327=EDGE_LOOP('',(#847,#848,#849,#850));
#328=EDGE_LOOP('',(#851,#852,#853));
#329=EDGE_LOOP('',(#854,#855,#856,#857));
#330=EDGE_LOOP('',(#858,#859,#860));
#331=EDGE_LOOP('',(#861,#862,#863,#864));
#332=EDGE_LOOP('',(#865,#866,#867,#868));
#333=EDGE_LOOP('',(#869,#870,#871,#872));
#334=EDGE_LOOP('',(#873,#874,#875,#876,#877,#878,#879,#880));
#335=EDGE_LOOP('',(#881));
#336=EDGE_LOOP('',(#882));
#337=EDGE_LOOP('',(#883,#884,#885,#886));
#338=EDGE_LOOP('',(#887,#888,#889,#890));
#339=EDGE_LOOP('',(#891,#892,#893,#894));
#340=EDGE_LOOP('',(#895,#896,#897,#898,#899));
#341=EDGE_LOOP('',(#900,#901,#902,#903));
#342=EDGE_LOOP('',(#904,#905,#906,#907,#908));
#343=EDGE_LOOP('',(#909,#910,#911,#912));
#344=CIRCLE('',#985,1.5);
#345=CIRCLE('',#986,1.5);
#346=CIRCLE('',#987,1.5);
#347=CIRCLE('',#990,30.2);
#348=CIRCLE('',#991,28.7);
#349=CIRCLE('',#993,1.5);
#350=CIRCLE('',#994,1.5);
#351=CIRCLE('',#995,1.5);
#352=CIRCLE('',#999,28.7);
#353=CIRCLE('',#1000,30.2);
#354=CIRCLE('',#1004,21.5000000000001);
#355=CIRCLE('',#1012,1.5);
#356=CIRCLE('',#1013,1.5);
#357=CIRCLE('',#1014,1.5);
#358=CIRCLE('',#1016,1.5);
#359=CIRCLE('',#1017,1.5);
#360=CIRCLE('',#1018,1.5);
#361=CIRCLE('',#1022,28.7);
#362=CIRCLE('',#1023,30.2);
#363=CIRCLE('',#1028,21.5000000000001);
#364=CIRCLE('',#1029,21.5000000000001);
#365=CIRCLE('',#1030,21.5000000000001);
#366=CIRCLE('',#1031,21.5000000000001);
#367=CIRCLE('',#1032,30.2);
#368=CIRCLE('',#1033,21.5000000000001);
#369=CIRCLE('',#1034,21.5000000000001);
#370=CIRCLE('',#1035,21.5000000000001);
#371=CIRCLE('',#1036,18.5000000000001);
#372=CIRCLE('',#1038,21.5000000000001);
#373=CIRCLE('',#1040,21.5000000000001);
#374=CIRCLE('',#1041,1.7);
#375=CIRCLE('',#1042,1.7);
#376=CIRCLE('',#1043,18.5000000000001);
#377=CIRCLE('',#1044,7.);
#378=CIRCLE('',#1045,7.);
#379=CIRCLE('',#1046,7.);
#380=CIRCLE('',#1047,18.5000000000001);
#381=CIRCLE('',#1048,18.5000000000001);
#382=CIRCLE('',#1049,7.);
#383=CIRCLE('',#1051,7.);
#384=CIRCLE('',#1053,7.);
#385=CIRCLE('',#1055,18.5000000000001);
#386=CIRCLE('',#1056,18.5000000000001);
#387=CIRCLE('',#1063,21.5000000000001);
#388=CIRCLE('',#1064,21.5000000000001);
#389=CIRCLE('',#1065,21.5000000000001);
#390=CIRCLE('',#1066,21.5000000000001);
#391=CIRCLE('',#1078,16.5000000000001);
#392=CIRCLE('',#1080,7.);
#393=CIRCLE('',#1081,16.5000000000001);
#394=CIRCLE('',#1082,7.);
#395=CIRCLE('',#1083,1.7);
#396=CIRCLE('',#1084,1.7);
#397=VERTEX_POINT('',#1383);
#398=VERTEX_POINT('',#1384);
#399=VERTEX_POINT('',#1386);
#400=VERTEX_POINT('',#1390);
#401=VERTEX_POINT('',#1391);
#402=VERTEX_POINT('',#1405);
#403=VERTEX_POINT('',#1407);
#404=VERTEX_POINT('',#1424);
#405=VERTEX_POINT('',#1425);
#406=VERTEX_POINT('',#1427);
#407=VERTEX_POINT('',#1431);
#408=VERTEX_POINT('',#1432);
#409=VERTEX_POINT('',#1449);
#410=VERTEX_POINT('',#1451);
#411=VERTEX_POINT('',#1468);
#412=VERTEX_POINT('',#1470);
#413=VERTEX_POINT('',#1483);
#414=VERTEX_POINT('',#1485);
#415=VERTEX_POINT('',#1504);
#416=VERTEX_POINT('',#1505);
#417=VERTEX_POINT('',#1507);
#418=VERTEX_POINT('',#1518);
#419=VERTEX_POINT('',#1520);
#420=VERTEX_POINT('',#1527);
#421=VERTEX_POINT('',#1528);
#422=VERTEX_POINT('',#1530);
#423=VERTEX_POINT('',#1541);
#424=VERTEX_POINT('',#1543);
#425=VERTEX_POINT('',#1550);
#426=VERTEX_POINT('',#1551);
#427=VERTEX_POINT('',#1553);
#428=VERTEX_POINT('',#1557);
#429=VERTEX_POINT('',#1558);
#430=VERTEX_POINT('',#1560);
#431=VERTEX_POINT('',#1564);
#432=VERTEX_POINT('',#1565);
#433=VERTEX_POINT('',#1588);
#434=VERTEX_POINT('',#1589);
#435=VERTEX_POINT('',#1605);
#436=VERTEX_POINT('',#1607);
#437=VERTEX_POINT('',#1609);
#438=VERTEX_POINT('',#1611);
#439=VERTEX_POINT('',#1613);
#440=VERTEX_POINT('',#1615);
#441=VERTEX_POINT('',#1617);
#442=VERTEX_POINT('',#1621);
#443=VERTEX_POINT('',#1623);
#444=VERTEX_POINT('',#1625);
#445=VERTEX_POINT('',#1627);
#446=VERTEX_POINT('',#1629);
#447=VERTEX_POINT('',#1631);
#448=VERTEX_POINT('',#1634);
#449=VERTEX_POINT('',#1639);
#450=VERTEX_POINT('',#1641);
#451=VERTEX_POINT('',#1643);
#452=VERTEX_POINT('',#1645);
#453=VERTEX_POINT('',#1646);
#454=VERTEX_POINT('',#1648);
#455=VERTEX_POINT('',#1650);
#456=VERTEX_POINT('',#1653);
#457=VERTEX_POINT('',#1654);
#458=VERTEX_POINT('',#1656);
#459=VERTEX_POINT('',#1658);
#460=VERTEX_POINT('',#1660);
#461=VERTEX_POINT('',#1664);
#462=VERTEX_POINT('',#1666);
#463=VERTEX_POINT('',#1668);
#464=VERTEX_POINT('',#1681);
#465=VERTEX_POINT('',#1683);
#466=VERTEX_POINT('',#1696);
#467=VERTEX_POINT('',#1702);
#468=VERTEX_POINT('',#1704);
#469=VERTEX_POINT('',#1713);
#470=VERTEX_POINT('',#1715);
#471=VERTEX_POINT('',#1719);
#472=VERTEX_POINT('',#1721);
#473=VERTEX_POINT('',#1726);
#474=VERTEX_POINT('',#1729);
#475=VERTEX_POINT('',#1731);
#476=VERTEX_POINT('',#1734);
#477=VERTEX_POINT('',#1737);
#478=VERTEX_POINT('',#1739);
#479=VERTEX_POINT('',#1743);
#480=VERTEX_POINT('',#1756);
#481=VERTEX_POINT('',#1763);
#482=VERTEX_POINT('',#1774);
#483=VERTEX_POINT('',#1789);
#484=VERTEX_POINT('',#1793);
#485=VERTEX_POINT('',#1796);
#486=VERTEX_POINT('',#1798);
#487=EDGE_CURVE('',#397,#398,#344,.F.);
#488=EDGE_CURVE('',#399,#397,#345,.F.);
#489=EDGE_CURVE('',#398,#399,#346,.F.);
#490=EDGE_CURVE('',#400,#401,#194,.F.);
#491=EDGE_CURVE('',#401,#399,#52,.T.);
#492=EDGE_CURVE('',#397,#400,#53,.T.);
#493=EDGE_CURVE('',#402,#398,#347,.T.);
#494=EDGE_CURVE('',#399,#403,#348,.T.);
#495=EDGE_CURVE('',#403,#402,#195,.T.);
#496=EDGE_CURVE('',#404,#405,#349,.F.);
#497=EDGE_CURVE('',#406,#404,#350,.F.);
#498=EDGE_CURVE('',#405,#406,#351,.F.);
#499=EDGE_CURVE('',#407,#408,#196,.F.);
#500=EDGE_CURVE('',#408,#406,#54,.T.);
#501=EDGE_CURVE('',#404,#407,#55,.T.);
#502=EDGE_CURVE('',#406,#397,#56,.T.);
#503=EDGE_CURVE('',#398,#405,#57,.T.);
#504=EDGE_CURVE('',#409,#404,#352,.T.);
#505=EDGE_CURVE('',#405,#410,#353,.T.);
#506=EDGE_CURVE('',#410,#409,#197,.T.);
#507=EDGE_CURVE('',#410,#411,#58,.T.);
#508=EDGE_CURVE('',#411,#412,#198,.F.);
#509=EDGE_CURVE('',#412,#409,#59,.T.);
#510=EDGE_CURVE('',#403,#413,#60,.T.);
#511=EDGE_CURVE('',#413,#414,#199,.F.);
#512=EDGE_CURVE('',#414,#402,#61,.T.);
#513=EDGE_CURVE('',#407,#412,#354,.T.);
#514=EDGE_CURVE('',#402,#410,#62,.T.);
#515=EDGE_CURVE('',#414,#411,#63,.T.);
#516=EDGE_CURVE('',#415,#416,#64,.T.);
#517=EDGE_CURVE('',#416,#417,#200,.F.);
#518=EDGE_CURVE('',#417,#418,#65,.T.);
#519=EDGE_CURVE('',#418,#419,#22,.T.);
#520=EDGE_CURVE('',#419,#415,#201,.T.);
#521=EDGE_CURVE('',#420,#421,#66,.T.);
#522=EDGE_CURVE('',#421,#422,#202,.F.);
#523=EDGE_CURVE('',#422,#423,#67,.T.);
#524=EDGE_CURVE('',#423,#424,#203,.T.);
#525=EDGE_CURVE('',#424,#420,#23,.T.);
#526=EDGE_CURVE('',#425,#426,#355,.F.);
#527=EDGE_CURVE('',#427,#425,#356,.F.);
#528=EDGE_CURVE('',#426,#427,#357,.F.);
#529=EDGE_CURVE('',#428,#429,#358,.F.);
#530=EDGE_CURVE('',#430,#428,#359,.F.);
#531=EDGE_CURVE('',#429,#430,#360,.F.);
#532=EDGE_CURVE('',#431,#432,#204,.F.);
#533=EDGE_CURVE('',#432,#430,#68,.T.);
#534=EDGE_CURVE('',#428,#431,#69,.T.);
#535=EDGE_CURVE('',#424,#429,#70,.T.);
#536=EDGE_CURVE('',#430,#420,#71,.T.);
#537=EDGE_CURVE('',#425,#428,#361,.T.);
#538=EDGE_CURVE('',#429,#427,#362,.T.);
#539=EDGE_CURVE('',#418,#426,#72,.T.);
#540=EDGE_CURVE('',#427,#419,#73,.T.);
#541=EDGE_CURVE('',#433,#434,#205,.F.);
#542=EDGE_CURVE('',#434,#425,#74,.T.);
#543=EDGE_CURVE('',#426,#433,#75,.T.);
#544=EDGE_CURVE('',#421,#432,#76,.T.);
#545=EDGE_CURVE('',#401,#435,#363,.T.);
#546=EDGE_CURVE('',#435,#436,#77,.T.);
#547=EDGE_CURVE('',#436,#437,#78,.T.);
#548=EDGE_CURVE('',#438,#437,#364,.T.);
#549=EDGE_CURVE('',#439,#438,#365,.T.);
#550=EDGE_CURVE('',#439,#440,#79,.T.);
#551=EDGE_CURVE('',#440,#441,#80,.T.);
#552=EDGE_CURVE('',#441,#416,#366,.T.);
#553=EDGE_CURVE('',#415,#423,#367,.T.);
#554=EDGE_CURVE('',#422,#442,#368,.T.);
#555=EDGE_CURVE('',#442,#443,#81,.T.);
#556=EDGE_CURVE('',#443,#444,#82,.T.);
#557=EDGE_CURVE('',#445,#444,#369,.T.);
#558=EDGE_CURVE('',#445,#446,#83,.T.);
#559=EDGE_CURVE('',#446,#447,#84,.T.);
#560=EDGE_CURVE('',#447,#413,#370,.T.);
#561=EDGE_CURVE('',#448,#448,#371,.T.);
#562=EDGE_CURVE('',#431,#434,#372,.T.);
#563=EDGE_CURVE('',#449,#449,#373,.T.);
#564=EDGE_CURVE('',#450,#450,#374,.T.);
#565=EDGE_CURVE('',#451,#451,#375,.T.);
#566=EDGE_CURVE('',#452,#453,#376,.T.);
#567=EDGE_CURVE('',#454,#452,#377,.T.);
#568=EDGE_CURVE('',#455,#454,#85,.T.);
#569=EDGE_CURVE('',#453,#455,#378,.T.);
#570=EDGE_CURVE('',#456,#457,#379,.T.);
#571=EDGE_CURVE('',#458,#456,#380,.T.);
#572=EDGE_CURVE('',#459,#458,#381,.T.);
#573=EDGE_CURVE('',#460,#459,#382,.T.);
#574=EDGE_CURVE('',#457,#460,#86,.T.);
#575=EDGE_CURVE('',#457,#461,#87,.T.);
#576=EDGE_CURVE('',#461,#462,#383,.T.);
#577=EDGE_CURVE('',#463,#462,#206,.T.);
#578=EDGE_CURVE('',#463,#456,#88,.T.);
#579=EDGE_CURVE('',#452,#464,#89,.T.);
#580=EDGE_CURVE('',#465,#464,#207,.T.);
#581=EDGE_CURVE('',#465,#466,#384,.T.);
#582=EDGE_CURVE('',#466,#454,#90,.T.);
#583=EDGE_CURVE('',#458,#448,#91,.T.);
#584=EDGE_CURVE('',#464,#463,#385,.T.);
#585=EDGE_CURVE('',#467,#453,#92,.T.);
#586=EDGE_CURVE('',#468,#467,#386,.T.);
#587=EDGE_CURVE('',#459,#468,#93,.T.);
#588=EDGE_CURVE('',#400,#408,#94,.T.);
#589=EDGE_CURVE('',#417,#433,#95,.T.);
#590=EDGE_CURVE('',#435,#469,#96,.T.);
#591=EDGE_CURVE('',#470,#469,#97,.T.);
#592=EDGE_CURVE('',#436,#470,#98,.T.);
#593=EDGE_CURVE('',#442,#471,#99,.T.);
#594=EDGE_CURVE('',#472,#471,#100,.T.);
#595=EDGE_CURVE('',#443,#472,#101,.T.);
#596=EDGE_CURVE('',#449,#438,#102,.T.);
#597=EDGE_CURVE('',#437,#473,#103,.T.);
#598=EDGE_CURVE('',#469,#473,#387,.T.);
#599=EDGE_CURVE('',#474,#447,#104,.T.);
#600=EDGE_CURVE('',#475,#474,#388,.T.);
#601=EDGE_CURVE('',#445,#475,#105,.T.);
#602=EDGE_CURVE('',#444,#476,#106,.T.);
#603=EDGE_CURVE('',#471,#476,#389,.T.);
#604=EDGE_CURVE('',#477,#441,#107,.T.);
#605=EDGE_CURVE('',#478,#477,#390,.T.);
#606=EDGE_CURVE('',#439,#478,#108,.T.);
#607=EDGE_CURVE('',#479,#446,#109,.T.);
#608=EDGE_CURVE('',#474,#479,#110,.T.);
#609=EDGE_CURVE('',#475,#479,#111,.T.);
#610=EDGE_CURVE('',#476,#472,#112,.T.);
#611=EDGE_CURVE('',#473,#470,#113,.T.);
#612=EDGE_CURVE('',#477,#480,#114,.T.);
#613=EDGE_CURVE('',#478,#480,#115,.T.);
#614=EDGE_CURVE('',#480,#440,#116,.T.);
#615=EDGE_CURVE('',#467,#481,#208,.T.);
#616=EDGE_CURVE('',#481,#482,#391,.T.);
#617=EDGE_CURVE('',#482,#468,#209,.T.);
#618=EDGE_CURVE('',#483,#481,#392,.T.);
#619=EDGE_CURVE('',#483,#466,#117,.T.);
#620=EDGE_CURVE('',#462,#465,#393,.T.);
#621=EDGE_CURVE('',#461,#484,#118,.T.);
#622=EDGE_CURVE('',#482,#484,#394,.T.);
#623=EDGE_CURVE('',#485,#485,#395,.T.);
#624=EDGE_CURVE('',#486,#486,#396,.T.);
#625=EDGE_CURVE('',#485,#450,#119,.T.);
#626=EDGE_CURVE('',#486,#451,#120,.T.);
#627=EDGE_CURVE('',#484,#460,#121,.T.);
#628=EDGE_CURVE('',#455,#483,#122,.T.);
#629=ORIENTED_EDGE('',*,*,#487,.F.);
#630=ORIENTED_EDGE('',*,*,#488,.F.);
#631=ORIENTED_EDGE('',*,*,#489,.F.);
#632=ORIENTED_EDGE('',*,*,#490,.T.);
#633=ORIENTED_EDGE('',*,*,#491,.T.);
#634=ORIENTED_EDGE('',*,*,#488,.T.);
#635=ORIENTED_EDGE('',*,*,#492,.T.);
#636=ORIENTED_EDGE('',*,*,#493,.T.);
#637=ORIENTED_EDGE('',*,*,#489,.T.);
#638=ORIENTED_EDGE('',*,*,#494,.T.);
#639=ORIENTED_EDGE('',*,*,#495,.T.);
#640=ORIENTED_EDGE('',*,*,#496,.F.);
#641=ORIENTED_EDGE('',*,*,#497,.F.);
#642=ORIENTED_EDGE('',*,*,#498,.F.);
#643=ORIENTED_EDGE('',*,*,#499,.T.);
#644=ORIENTED_EDGE('',*,*,#500,.T.);
#645=ORIENTED_EDGE('',*,*,#497,.T.);
#646=ORIENTED_EDGE('',*,*,#501,.T.);
#647=ORIENTED_EDGE('',*,*,#498,.T.);
#648=ORIENTED_EDGE('',*,*,#502,.T.);
#649=ORIENTED_EDGE('',*,*,#487,.T.);
#650=ORIENTED_EDGE('',*,*,#503,.T.);
#651=ORIENTED_EDGE('',*,*,#504,.T.);
#652=ORIENTED_EDGE('',*,*,#496,.T.);
#653=ORIENTED_EDGE('',*,*,#505,.T.);
#654=ORIENTED_EDGE('',*,*,#506,.T.);
#655=ORIENTED_EDGE('',*,*,#507,.T.);
#656=ORIENTED_EDGE('',*,*,#508,.T.);
#657=ORIENTED_EDGE('',*,*,#509,.T.);
#658=ORIENTED_EDGE('',*,*,#506,.F.);
#659=ORIENTED_EDGE('',*,*,#510,.T.);
#660=ORIENTED_EDGE('',*,*,#511,.T.);
#661=ORIENTED_EDGE('',*,*,#512,.T.);
#662=ORIENTED_EDGE('',*,*,#495,.F.);
#663=ORIENTED_EDGE('',*,*,#501,.F.);
#664=ORIENTED_EDGE('',*,*,#504,.F.);
#665=ORIENTED_EDGE('',*,*,#509,.F.);
#666=ORIENTED_EDGE('',*,*,#513,.F.);
#667=ORIENTED_EDGE('',*,*,#505,.F.);
#668=ORIENTED_EDGE('',*,*,#503,.F.);
#669=ORIENTED_EDGE('',*,*,#493,.F.);
#670=ORIENTED_EDGE('',*,*,#514,.T.);
#671=ORIENTED_EDGE('',*,*,#507,.F.);
#672=ORIENTED_EDGE('',*,*,#514,.F.);
#673=ORIENTED_EDGE('',*,*,#512,.F.);
#674=ORIENTED_EDGE('',*,*,#515,.T.);
#675=ORIENTED_EDGE('',*,*,#516,.T.);
#676=ORIENTED_EDGE('',*,*,#517,.T.);
#677=ORIENTED_EDGE('',*,*,#518,.T.);
#678=ORIENTED_EDGE('',*,*,#519,.T.);
#679=ORIENTED_EDGE('',*,*,#520,.T.);
#680=ORIENTED_EDGE('',*,*,#521,.T.);
#681=ORIENTED_EDGE('',*,*,#522,.T.);
#682=ORIENTED_EDGE('',*,*,#523,.T.);
#683=ORIENTED_EDGE('',*,*,#524,.T.);
#684=ORIENTED_EDGE('',*,*,#525,.T.);
#685=ORIENTED_EDGE('',*,*,#526,.F.);
#686=ORIENTED_EDGE('',*,*,#527,.F.);
#687=ORIENTED_EDGE('',*,*,#528,.F.);
#688=ORIENTED_EDGE('',*,*,#529,.F.);
#689=ORIENTED_EDGE('',*,*,#530,.F.);
#690=ORIENTED_EDGE('',*,*,#531,.F.);
#691=ORIENTED_EDGE('',*,*,#532,.T.);
#692=ORIENTED_EDGE('',*,*,#533,.T.);
#693=ORIENTED_EDGE('',*,*,#530,.T.);
#694=ORIENTED_EDGE('',*,*,#534,.T.);
#695=ORIENTED_EDGE('',*,*,#535,.T.);
#696=ORIENTED_EDGE('',*,*,#531,.T.);
#697=ORIENTED_EDGE('',*,*,#536,.T.);
#698=ORIENTED_EDGE('',*,*,#525,.F.);
#699=ORIENTED_EDGE('',*,*,#527,.T.);
#700=ORIENTED_EDGE('',*,*,#537,.T.);
#701=ORIENTED_EDGE('',*,*,#529,.T.);
#702=ORIENTED_EDGE('',*,*,#538,.T.);
#703=ORIENTED_EDGE('',*,*,#539,.T.);
#704=ORIENTED_EDGE('',*,*,#528,.T.);
#705=ORIENTED_EDGE('',*,*,#540,.T.);
#706=ORIENTED_EDGE('',*,*,#519,.F.);
#707=ORIENTED_EDGE('',*,*,#541,.T.);
#708=ORIENTED_EDGE('',*,*,#542,.T.);
#709=ORIENTED_EDGE('',*,*,#526,.T.);
#710=ORIENTED_EDGE('',*,*,#543,.T.);
#711=ORIENTED_EDGE('',*,*,#521,.F.);
#712=ORIENTED_EDGE('',*,*,#536,.F.);
#713=ORIENTED_EDGE('',*,*,#533,.F.);
#714=ORIENTED_EDGE('',*,*,#544,.F.);
#715=ORIENTED_EDGE('',*,*,#545,.T.);
#716=ORIENTED_EDGE('',*,*,#546,.T.);
#717=ORIENTED_EDGE('',*,*,#547,.T.);
#718=ORIENTED_EDGE('',*,*,#548,.F.);
#719=ORIENTED_EDGE('',*,*,#549,.F.);
#720=ORIENTED_EDGE('',*,*,#550,.T.);
#721=ORIENTED_EDGE('',*,*,#551,.T.);
#722=ORIENTED_EDGE('',*,*,#552,.T.);
#723=ORIENTED_EDGE('',*,*,#516,.F.);
#724=ORIENTED_EDGE('',*,*,#553,.T.);
#725=ORIENTED_EDGE('',*,*,#523,.F.);
#726=ORIENTED_EDGE('',*,*,#554,.T.);
#727=ORIENTED_EDGE('',*,*,#555,.T.);
#728=ORIENTED_EDGE('',*,*,#556,.T.);
#729=ORIENTED_EDGE('',*,*,#557,.F.);
#730=ORIENTED_EDGE('',*,*,#558,.T.);
#731=ORIENTED_EDGE('',*,*,#559,.T.);
#732=ORIENTED_EDGE('',*,*,#560,.T.);
#733=ORIENTED_EDGE('',*,*,#510,.F.);
#734=ORIENTED_EDGE('',*,*,#494,.F.);
#735=ORIENTED_EDGE('',*,*,#491,.F.);
#736=ORIENTED_EDGE('',*,*,#561,.F.);
#737=ORIENTED_EDGE('',*,*,#534,.F.);
#738=ORIENTED_EDGE('',*,*,#537,.F.);
#739=ORIENTED_EDGE('',*,*,#542,.F.);
#740=ORIENTED_EDGE('',*,*,#562,.F.);
#741=ORIENTED_EDGE('',*,*,#563,.F.);
#742=ORIENTED_EDGE('',*,*,#564,.F.);
#743=ORIENTED_EDGE('',*,*,#565,.F.);
#744=ORIENTED_EDGE('',*,*,#566,.F.);
#745=ORIENTED_EDGE('',*,*,#567,.F.);
#746=ORIENTED_EDGE('',*,*,#568,.F.);
#747=ORIENTED_EDGE('',*,*,#569,.F.);
#748=ORIENTED_EDGE('',*,*,#570,.F.);
#749=ORIENTED_EDGE('',*,*,#571,.F.);
#750=ORIENTED_EDGE('',*,*,#572,.F.);
#751=ORIENTED_EDGE('',*,*,#573,.F.);
#752=ORIENTED_EDGE('',*,*,#574,.F.);
#753=ORIENTED_EDGE('',*,*,#570,.T.);
#754=ORIENTED_EDGE('',*,*,#575,.T.);
#755=ORIENTED_EDGE('',*,*,#576,.T.);
#756=ORIENTED_EDGE('',*,*,#577,.F.);
#757=ORIENTED_EDGE('',*,*,#578,.T.);
#758=ORIENTED_EDGE('',*,*,#567,.T.);
#759=ORIENTED_EDGE('',*,*,#579,.T.);
#760=ORIENTED_EDGE('',*,*,#580,.F.);
#761=ORIENTED_EDGE('',*,*,#581,.T.);
#762=ORIENTED_EDGE('',*,*,#582,.T.);
#763=ORIENTED_EDGE('',*,*,#572,.T.);
#764=ORIENTED_EDGE('',*,*,#583,.T.);
#765=ORIENTED_EDGE('',*,*,#561,.T.);
#766=ORIENTED_EDGE('',*,*,#583,.F.);
#767=ORIENTED_EDGE('',*,*,#571,.T.);
#768=ORIENTED_EDGE('',*,*,#578,.F.);
#769=ORIENTED_EDGE('',*,*,#584,.F.);
#770=ORIENTED_EDGE('',*,*,#579,.F.);
#771=ORIENTED_EDGE('',*,*,#566,.T.);
#772=ORIENTED_EDGE('',*,*,#585,.F.);
#773=ORIENTED_EDGE('',*,*,#586,.F.);
#774=ORIENTED_EDGE('',*,*,#587,.F.);
#775=ORIENTED_EDGE('',*,*,#500,.F.);
#776=ORIENTED_EDGE('',*,*,#588,.F.);
#777=ORIENTED_EDGE('',*,*,#492,.F.);
#778=ORIENTED_EDGE('',*,*,#502,.F.);
#779=ORIENTED_EDGE('',*,*,#524,.F.);
#780=ORIENTED_EDGE('',*,*,#553,.F.);
#781=ORIENTED_EDGE('',*,*,#520,.F.);
#782=ORIENTED_EDGE('',*,*,#540,.F.);
#783=ORIENTED_EDGE('',*,*,#538,.F.);
#784=ORIENTED_EDGE('',*,*,#535,.F.);
#785=ORIENTED_EDGE('',*,*,#518,.F.);
#786=ORIENTED_EDGE('',*,*,#589,.T.);
#787=ORIENTED_EDGE('',*,*,#543,.F.);
#788=ORIENTED_EDGE('',*,*,#539,.F.);
#789=ORIENTED_EDGE('',*,*,#590,.T.);
#790=ORIENTED_EDGE('',*,*,#591,.F.);
#791=ORIENTED_EDGE('',*,*,#592,.F.);
#792=ORIENTED_EDGE('',*,*,#546,.F.);
#793=ORIENTED_EDGE('',*,*,#593,.T.);
#794=ORIENTED_EDGE('',*,*,#594,.F.);
#795=ORIENTED_EDGE('',*,*,#595,.F.);
#796=ORIENTED_EDGE('',*,*,#555,.F.);
#797=ORIENTED_EDGE('',*,*,#563,.T.);
#798=ORIENTED_EDGE('',*,*,#596,.T.);
#799=ORIENTED_EDGE('',*,*,#548,.T.);
#800=ORIENTED_EDGE('',*,*,#597,.T.);
#801=ORIENTED_EDGE('',*,*,#598,.F.);
#802=ORIENTED_EDGE('',*,*,#590,.F.);
#803=ORIENTED_EDGE('',*,*,#545,.F.);
#804=ORIENTED_EDGE('',*,*,#490,.F.);
#805=ORIENTED_EDGE('',*,*,#588,.T.);
#806=ORIENTED_EDGE('',*,*,#499,.F.);
#807=ORIENTED_EDGE('',*,*,#513,.T.);
#808=ORIENTED_EDGE('',*,*,#508,.F.);
#809=ORIENTED_EDGE('',*,*,#515,.F.);
#810=ORIENTED_EDGE('',*,*,#511,.F.);
#811=ORIENTED_EDGE('',*,*,#560,.F.);
#812=ORIENTED_EDGE('',*,*,#599,.F.);
#813=ORIENTED_EDGE('',*,*,#600,.F.);
#814=ORIENTED_EDGE('',*,*,#601,.F.);
#815=ORIENTED_EDGE('',*,*,#557,.T.);
#816=ORIENTED_EDGE('',*,*,#602,.T.);
#817=ORIENTED_EDGE('',*,*,#603,.F.);
#818=ORIENTED_EDGE('',*,*,#593,.F.);
#819=ORIENTED_EDGE('',*,*,#554,.F.);
#820=ORIENTED_EDGE('',*,*,#522,.F.);
#821=ORIENTED_EDGE('',*,*,#544,.T.);
#822=ORIENTED_EDGE('',*,*,#532,.F.);
#823=ORIENTED_EDGE('',*,*,#562,.T.);
#824=ORIENTED_EDGE('',*,*,#541,.F.);
#825=ORIENTED_EDGE('',*,*,#589,.F.);
#826=ORIENTED_EDGE('',*,*,#517,.F.);
#827=ORIENTED_EDGE('',*,*,#552,.F.);
#828=ORIENTED_EDGE('',*,*,#604,.F.);
#829=ORIENTED_EDGE('',*,*,#605,.F.);
#830=ORIENTED_EDGE('',*,*,#606,.F.);
#831=ORIENTED_EDGE('',*,*,#549,.T.);
#832=ORIENTED_EDGE('',*,*,#596,.F.);
#833=ORIENTED_EDGE('',*,*,#599,.T.);
#834=ORIENTED_EDGE('',*,*,#559,.F.);
#835=ORIENTED_EDGE('',*,*,#607,.F.);
#836=ORIENTED_EDGE('',*,*,#608,.F.);
#837=ORIENTED_EDGE('',*,*,#600,.T.);
#838=ORIENTED_EDGE('',*,*,#608,.T.);
#839=ORIENTED_EDGE('',*,*,#609,.F.);
#840=ORIENTED_EDGE('',*,*,#601,.T.);
#841=ORIENTED_EDGE('',*,*,#609,.T.);
#842=ORIENTED_EDGE('',*,*,#607,.T.);
#843=ORIENTED_EDGE('',*,*,#558,.F.);
#844=ORIENTED_EDGE('',*,*,#603,.T.);
#845=ORIENTED_EDGE('',*,*,#610,.T.);
#846=ORIENTED_EDGE('',*,*,#594,.T.);
#847=ORIENTED_EDGE('',*,*,#602,.F.);
#848=ORIENTED_EDGE('',*,*,#556,.F.);
#849=ORIENTED_EDGE('',*,*,#595,.T.);
#850=ORIENTED_EDGE('',*,*,#610,.F.);
#851=ORIENTED_EDGE('',*,*,#598,.T.);
#852=ORIENTED_EDGE('',*,*,#611,.T.);
#853=ORIENTED_EDGE('',*,*,#591,.T.);
#854=ORIENTED_EDGE('',*,*,#597,.F.);
#855=ORIENTED_EDGE('',*,*,#547,.F.);
#856=ORIENTED_EDGE('',*,*,#592,.T.);
#857=ORIENTED_EDGE('',*,*,#611,.F.);
#858=ORIENTED_EDGE('',*,*,#605,.T.);
#859=ORIENTED_EDGE('',*,*,#612,.T.);
#860=ORIENTED_EDGE('',*,*,#613,.F.);
#861=ORIENTED_EDGE('',*,*,#606,.T.);
#862=ORIENTED_EDGE('',*,*,#613,.T.);
#863=ORIENTED_EDGE('',*,*,#614,.T.);
#864=ORIENTED_EDGE('',*,*,#550,.F.);
#865=ORIENTED_EDGE('',*,*,#604,.T.);
#866=ORIENTED_EDGE('',*,*,#551,.F.);
#867=ORIENTED_EDGE('',*,*,#614,.F.);
#868=ORIENTED_EDGE('',*,*,#612,.F.);
#869=ORIENTED_EDGE('',*,*,#615,.T.);
#870=ORIENTED_EDGE('',*,*,#616,.T.);
#871=ORIENTED_EDGE('',*,*,#617,.T.);
#872=ORIENTED_EDGE('',*,*,#586,.T.);
#873=ORIENTED_EDGE('',*,*,#616,.F.);
#874=ORIENTED_EDGE('',*,*,#618,.F.);
#875=ORIENTED_EDGE('',*,*,#619,.T.);
#876=ORIENTED_EDGE('',*,*,#581,.F.);
#877=ORIENTED_EDGE('',*,*,#620,.F.);
#878=ORIENTED_EDGE('',*,*,#576,.F.);
#879=ORIENTED_EDGE('',*,*,#621,.T.);
#880=ORIENTED_EDGE('',*,*,#622,.F.);
#881=ORIENTED_EDGE('',*,*,#623,.T.);
#882=ORIENTED_EDGE('',*,*,#624,.T.);
#883=ORIENTED_EDGE('',*,*,#577,.T.);
#884=ORIENTED_EDGE('',*,*,#620,.T.);
#885=ORIENTED_EDGE('',*,*,#580,.T.);
#886=ORIENTED_EDGE('',*,*,#584,.T.);
#887=ORIENTED_EDGE('',*,*,#623,.F.);
#888=ORIENTED_EDGE('',*,*,#625,.T.);
#889=ORIENTED_EDGE('',*,*,#564,.T.);
#890=ORIENTED_EDGE('',*,*,#625,.F.);
#891=ORIENTED_EDGE('',*,*,#624,.F.);
#892=ORIENTED_EDGE('',*,*,#626,.T.);
#893=ORIENTED_EDGE('',*,*,#565,.T.);
#894=ORIENTED_EDGE('',*,*,#626,.F.);
#895=ORIENTED_EDGE('',*,*,#573,.T.);
#896=ORIENTED_EDGE('',*,*,#587,.T.);
#897=ORIENTED_EDGE('',*,*,#617,.F.);
#898=ORIENTED_EDGE('',*,*,#622,.T.);
#899=ORIENTED_EDGE('',*,*,#627,.T.);
#900=ORIENTED_EDGE('',*,*,#568,.T.);
#901=ORIENTED_EDGE('',*,*,#582,.F.);
#902=ORIENTED_EDGE('',*,*,#619,.F.);
#903=ORIENTED_EDGE('',*,*,#628,.F.);
#904=ORIENTED_EDGE('',*,*,#569,.T.);
#905=ORIENTED_EDGE('',*,*,#628,.T.);
#906=ORIENTED_EDGE('',*,*,#618,.T.);
#907=ORIENTED_EDGE('',*,*,#615,.F.);
#908=ORIENTED_EDGE('',*,*,#585,.T.);
#909=ORIENTED_EDGE('',*,*,#574,.T.);
#910=ORIENTED_EDGE('',*,*,#627,.F.);
#911=ORIENTED_EDGE('',*,*,#621,.F.);
#912=ORIENTED_EDGE('',*,*,#575,.F.);
#913=SPHERICAL_SURFACE('',#984,1.5);
#914=SPHERICAL_SURFACE('',#992,1.5);
#915=SPHERICAL_SURFACE('',#1011,1.5);
#916=SPHERICAL_SURFACE('',#1015,1.5);
#917=ADVANCED_FACE('',(#231),#913,.T.);
#918=ADVANCED_FACE('',(#232),#210,.T.);
#919=ADVANCED_FACE('',(#233),#47,.T.);
#920=ADVANCED_FACE('',(#234),#914,.T.);
#921=ADVANCED_FACE('',(#235),#211,.T.);
#922=ADVANCED_FACE('',(#236),#212,.T.);
#923=ADVANCED_FACE('',(#237),#48,.T.);
#924=ADVANCED_FACE('',(#238),#213,.T.);
#925=ADVANCED_FACE('',(#239),#214,.T.);
#926=ADVANCED_FACE('',(#240),#24,.T.);
#927=ADVANCED_FACE('',(#241),#215,.T.);
#928=ADVANCED_FACE('',(#242),#25,.F.);
#929=ADVANCED_FACE('',(#243),#216,.T.);
#930=ADVANCED_FACE('',(#244),#217,.T.);
#931=ADVANCED_FACE('',(#245),#915,.T.);
#932=ADVANCED_FACE('',(#246),#916,.T.);
#933=ADVANCED_FACE('',(#247),#218,.T.);
#934=ADVANCED_FACE('',(#248),#219,.T.);
#935=ADVANCED_FACE('',(#249),#49,.T.);
#936=ADVANCED_FACE('',(#250),#220,.T.);
#937=ADVANCED_FACE('',(#251),#221,.T.);
#938=ADVANCED_FACE('',(#252),#26,.F.);
#939=ADVANCED_FACE('',(#253,#15),#27,.F.);
#940=ADVANCED_FACE('',(#254),#28,.T.);
#941=ADVANCED_FACE('',(#255,#16,#17,#18,#19),#29,.T.);
#942=ADVANCED_FACE('',(#256),#222,.F.);
#943=ADVANCED_FACE('',(#257),#223,.F.);
#944=ADVANCED_FACE('',(#258),#224,.F.);
#945=ADVANCED_FACE('',(#259),#30,.F.);
#946=ADVANCED_FACE('',(#260),#225,.T.);
#947=ADVANCED_FACE('',(#261),#31,.F.);
#948=ADVANCED_FACE('',(#262),#32,.F.);
#949=ADVANCED_FACE('',(#263),#33,.F.);
#950=ADVANCED_FACE('',(#264),#226,.T.);
#951=ADVANCED_FACE('',(#265),#34,.F.);
#952=ADVANCED_FACE('',(#266),#35,.F.);
#953=ADVANCED_FACE('',(#267),#36,.F.);
#954=ADVANCED_FACE('',(#268),#37,.F.);
#955=ADVANCED_FACE('',(#269),#38,.F.);
#956=ADVANCED_FACE('',(#270),#39,.F.);
#957=ADVANCED_FACE('',(#271),#40,.F.);
#958=ADVANCED_FACE('',(#272),#41,.F.);
#959=ADVANCED_FACE('',(#273),#42,.F.);
#960=ADVANCED_FACE('',(#274),#43,.F.);
#961=ADVANCED_FACE('',(#275),#50,.F.);
#962=ADVANCED_FACE('',(#276,#20,#21),#44,.F.);
#963=ADVANCED_FACE('',(#277),#51,.F.);
#964=ADVANCED_FACE('',(#278),#227,.F.);
#965=ADVANCED_FACE('',(#279),#228,.F.);
#966=ADVANCED_FACE('',(#280),#229,.F.);
#967=ADVANCED_FACE('',(#281),#45,.T.);
#968=ADVANCED_FACE('',(#282),#230,.F.);
#969=ADVANCED_FACE('',(#283),#46,.T.);
#970=CLOSED_SHELL('',(#917,#918,#919,#920,#921,#922,#923,#924,#925,#926,
#927,#928,#929,#930,#931,#932,#933,#934,#935,#936,#937,#938,#939,#940,#941,
#942,#943,#944,#945,#946,#947,#948,#949,#950,#951,#952,#953,#954,#955,#956,
#957,#958,#959,#960,#961,#962,#963,#964,#965,#966,#967,#968,#969));
#971=DERIVED_UNIT_ELEMENT(#973,1.);
#972=DERIVED_UNIT_ELEMENT(#1816,-3.);
#973=(
MASS_UNIT()
NAMED_UNIT(*)
SI_UNIT(.KILO.,.GRAM.)
);
#974=DERIVED_UNIT((#971,#972));
#975=MEASURE_REPRESENTATION_ITEM('density measure',
POSITIVE_RATIO_MEASURE(7850.),#974);
#976=PROPERTY_DEFINITION_REPRESENTATION(#981,#978);
#977=PROPERTY_DEFINITION_REPRESENTATION(#982,#979);
#978=REPRESENTATION('material name',(#980),#1813);
#979=REPRESENTATION('density',(#975),#1813);
#980=DESCRIPTIVE_REPRESENTATION_ITEM('A\X\E7o','A\X\E7o');
#981=PROPERTY_DEFINITION('material property','material name',#1823);
#982=PROPERTY_DEFINITION('material property','density of part',#1823);
#983=AXIS2_PLACEMENT_3D('',#1381,#1092,#1093);
#984=AXIS2_PLACEMENT_3D('',#1382,#1094,#1095);
#985=AXIS2_PLACEMENT_3D('',#1385,#1096,#1097);
#986=AXIS2_PLACEMENT_3D('',#1387,#1098,#1099);
#987=AXIS2_PLACEMENT_3D('',#1388,#1100,#1101);
#988=AXIS2_PLACEMENT_3D('',#1389,#1102,#1103);
#989=AXIS2_PLACEMENT_3D('',#1404,#1106,#1107);
#990=AXIS2_PLACEMENT_3D('',#1406,#1108,#1109);
#991=AXIS2_PLACEMENT_3D('',#1408,#1110,#1111);
#992=AXIS2_PLACEMENT_3D('',#1423,#1112,#1113);
#993=AXIS2_PLACEMENT_3D('',#1426,#1114,#1115);
#994=AXIS2_PLACEMENT_3D('',#1428,#1116,#1117);
#995=AXIS2_PLACEMENT_3D('',#1429,#1118,#1119);
#996=AXIS2_PLACEMENT_3D('',#1430,#1120,#1121);
#997=AXIS2_PLACEMENT_3D('',#1445,#1124,#1125);
#998=AXIS2_PLACEMENT_3D('',#1448,#1128,#1129);
#999=AXIS2_PLACEMENT_3D('',#1450,#1130,#1131);
#1000=AXIS2_PLACEMENT_3D('',#1452,#1132,#1133);
#1001=AXIS2_PLACEMENT_3D('',#1467,#1134,#1135);
#1002=AXIS2_PLACEMENT_3D('',#1482,#1138,#1139);
#1003=AXIS2_PLACEMENT_3D('',#1497,#1142,#1143);
#1004=AXIS2_PLACEMENT_3D('',#1498,#1144,#1145);
#1005=AXIS2_PLACEMENT_3D('',#1499,#1146,#1147);
#1006=AXIS2_PLACEMENT_3D('',#1501,#1149,#1150);
#1007=AXIS2_PLACEMENT_3D('',#1503,#1152,#1153);
#1008=AXIS2_PLACEMENT_3D('',#1521,#1156,#1157);
#1009=AXIS2_PLACEMENT_3D('',#1526,#1158,#1159);
#1010=AXIS2_PLACEMENT_3D('',#1548,#1162,#1163);
#1011=AXIS2_PLACEMENT_3D('',#1549,#1164,#1165);
#1012=AXIS2_PLACEMENT_3D('',#1552,#1166,#1167);
#1013=AXIS2_PLACEMENT_3D('',#1554,#1168,#1169);
#1014=AXIS2_PLACEMENT_3D('',#1555,#1170,#1171);
#1015=AXIS2_PLACEMENT_3D('',#1556,#1172,#1173);
#1016=AXIS2_PLACEMENT_3D('',#1559,#1174,#1175);
#1017=AXIS2_PLACEMENT_3D('',#1561,#1176,#1177);
#1018=AXIS2_PLACEMENT_3D('',#1562,#1178,#1179);
#1019=AXIS2_PLACEMENT_3D('',#1563,#1180,#1181);
#1020=AXIS2_PLACEMENT_3D('',#1578,#1184,#1185);
#1021=AXIS2_PLACEMENT_3D('',#1581,#1188,#1189);
#1022=AXIS2_PLACEMENT_3D('',#1582,#1190,#1191);
#1023=AXIS2_PLACEMENT_3D('',#1583,#1192,#1193);
#1024=AXIS2_PLACEMENT_3D('',#1584,#1194,#1195);
#1025=AXIS2_PLACEMENT_3D('',#1587,#1198,#1199);
#1026=AXIS2_PLACEMENT_3D('',#1602,#1202,#1203);
#1027=AXIS2_PLACEMENT_3D('',#1604,#1205,#1206);
#1028=AXIS2_PLACEMENT_3D('',#1606,#1207,#1208);
#1029=AXIS2_PLACEMENT_3D('',#1612,#1211,#1212);
#1030=AXIS2_PLACEMENT_3D('',#1614,#1213,#1214);
#1031=AXIS2_PLACEMENT_3D('',#1619,#1217,#1218);
#1032=AXIS2_PLACEMENT_3D('',#1620,#1219,#1220);
#1033=AXIS2_PLACEMENT_3D('',#1622,#1221,#1222);
#1034=AXIS2_PLACEMENT_3D('',#1628,#1225,#1226);
#1035=AXIS2_PLACEMENT_3D('',#1633,#1229,#1230);
#1036=AXIS2_PLACEMENT_3D('',#1635,#1231,#1232);
#1037=AXIS2_PLACEMENT_3D('',#1636,#1233,#1234);
#1038=AXIS2_PLACEMENT_3D('',#1637,#1235,#1236);
#1039=AXIS2_PLACEMENT_3D('',#1638,#1237,#1238);
#1040=AXIS2_PLACEMENT_3D('',#1640,#1239,#1240);
#1041=AXIS2_PLACEMENT_3D('',#1642,#1241,#1242);
#1042=AXIS2_PLACEMENT_3D('',#1644,#1243,#1244);
#1043=AXIS2_PLACEMENT_3D('',#1647,#1245,#1246);
#1044=AXIS2_PLACEMENT_3D('',#1649,#1247,#1248);
#1045=AXIS2_PLACEMENT_3D('',#1652,#1250,#1251);
#1046=AXIS2_PLACEMENT_3D('',#1655,#1252,#1253);
#1047=AXIS2_PLACEMENT_3D('',#1657,#1254,#1255);
#1048=AXIS2_PLACEMENT_3D('',#1659,#1256,#1257);
#1049=AXIS2_PLACEMENT_3D('',#1661,#1258,#1259);
#1050=AXIS2_PLACEMENT_3D('',#1663,#1261,#1262);
#1051=AXIS2_PLACEMENT_3D('',#1667,#1264,#1265);
#1052=AXIS2_PLACEMENT_3D('',#1680,#1267,#1268);
#1053=AXIS2_PLACEMENT_3D('',#1697,#1270,#1271);
#1054=AXIS2_PLACEMENT_3D('',#1699,#1273,#1274);
#1055=AXIS2_PLACEMENT_3D('',#1701,#1276,#1277);
#1056=AXIS2_PLACEMENT_3D('',#1705,#1279,#1280);
#1057=AXIS2_PLACEMENT_3D('',#1707,#1282,#1283);
#1058=AXIS2_PLACEMENT_3D('',#1709,#1285,#1286);
#1059=AXIS2_PLACEMENT_3D('',#1710,#1287,#1288);
#1060=AXIS2_PLACEMENT_3D('',#1712,#1290,#1291);
#1061=AXIS2_PLACEMENT_3D('',#1718,#1295,#1296);
#1062=AXIS2_PLACEMENT_3D('',#1724,#1300,#1301);
#1063=AXIS2_PLACEMENT_3D('',#1728,#1304,#1305);
#1064=AXIS2_PLACEMENT_3D('',#1732,#1307,#1308);
#1065=AXIS2_PLACEMENT_3D('',#1736,#1311,#1312);
#1066=AXIS2_PLACEMENT_3D('',#1740,#1314,#1315);
#1067=AXIS2_PLACEMENT_3D('',#1742,#1317,#1318);
#1068=AXIS2_PLACEMENT_3D('',#1746,#1321,#1322);
#1069=AXIS2_PLACEMENT_3D('',#1748,#1324,#1325);
#1070=AXIS2_PLACEMENT_3D('',#1749,#1326,#1327);
#1071=AXIS2_PLACEMENT_3D('',#1751,#1329,#1330);
#1072=AXIS2_PLACEMENT_3D('',#1752,#1331,#1332);
#1073=AXIS2_PLACEMENT_3D('',#1754,#1334,#1335);
#1074=AXIS2_PLACEMENT_3D('',#1755,#1336,#1337);
#1075=AXIS2_PLACEMENT_3D('',#1759,#1340,#1341);
#1076=AXIS2_PLACEMENT_3D('',#1761,#1343,#1344);
#1077=AXIS2_PLACEMENT_3D('',#1762,#1345,#1346);
#1078=AXIS2_PLACEMENT_3D('',#1775,#1347,#1348);
#1079=AXIS2_PLACEMENT_3D('',#1788,#1349,#1350);
#1080=AXIS2_PLACEMENT_3D('',#1790,#1351,#1352);
#1081=AXIS2_PLACEMENT_3D('',#1792,#1354,#1355);
#1082=AXIS2_PLACEMENT_3D('',#1795,#1357,#1358);
#1083=AXIS2_PLACEMENT_3D('',#1797,#1359,#1360);
#1084=AXIS2_PLACEMENT_3D('',#1799,#1361,#1362);
#1085=AXIS2_PLACEMENT_3D('',#1800,#1363,#1364);
#1086=AXIS2_PLACEMENT_3D('',#1801,#1365,#1366);
#1087=AXIS2_PLACEMENT_3D('',#1803,#1368,#1369);
#1088=AXIS2_PLACEMENT_3D('',#1805,#1371,#1372);
#1089=AXIS2_PLACEMENT_3D('',#1807,#1374,#1375);
#1090=AXIS2_PLACEMENT_3D('',#1809,#1377,#1378);
#1091=AXIS2_PLACEMENT_3D('',#1810,#1379,#1380);
#1092=DIRECTION('axis',(0.,0.,1.));
#1093=DIRECTION('refdir',(1.,0.,0.));
#1094=DIRECTION('center_axis',(-0.052789564291121,-0.83948347826986,0.540814895887577));
#1095=DIRECTION('ref_axis',(0.0815553423002233,-0.543385213004492,-0.835512559109889));
#1096=DIRECTION('center_axis',(0.,-1.,0.));
#1097=DIRECTION('ref_axis',(0.707106781186547,0.,-0.707106781186547));
#1098=DIRECTION('center_axis',(-0.707106781186542,0.,-0.707106781186553));
#1099=DIRECTION('ref_axis',(0.,-1.,0.));
#1100=DIRECTION('center_axis',(0.830499578195539,-2.45877267641112E-15,
-0.557019255158232));
#1101=DIRECTION('ref_axis',(-0.557019255158232,0.,-0.830499578195539));
#1102=DIRECTION('center_axis',(0.707106781186548,0.,0.707106781186548));
#1103=DIRECTION('ref_axis',(0.499999999999999,-0.707106781186548,-0.5));
#1104=DIRECTION('',(-0.707106781186548,0.,-0.707106781186548));
#1105=DIRECTION('',(0.707106781186548,0.,0.707106781186548));
#1106=DIRECTION('center_axis',(0.,-1.,0.));
#1107=DIRECTION('ref_axis',(0.,0.,-1.));
#1108=DIRECTION('center_axis',(0.,-1.,0.));
#1109=DIRECTION('ref_axis',(-0.707106781186547,0.,-0.707106781186548));
#1110=DIRECTION('center_axis',(0.,1.,0.));
#1111=DIRECTION('ref_axis',(-0.707106781186547,0.,-0.707106781186548));
#1112=DIRECTION('center_axis',(0.0527895642911151,-0.839483478269863,-0.540814895887573));
#1113=DIRECTION('ref_axis',(0.0815553423002141,0.543385213004489,-0.835512559109892));
#1114=DIRECTION('center_axis',(0.83049957819554,0.,-0.55701925515823));
#1115=DIRECTION('ref_axis',(0.,1.,0.));
#1116=DIRECTION('center_axis',(-0.707106781186546,-5.23364152894592E-15,
-0.707106781186549));
#1117=DIRECTION('ref_axis',(0.707106781186549,0.,-0.707106781186546));
#1118=DIRECTION('center_axis',(0.,1.,0.));
#1119=DIRECTION('ref_axis',(-0.557019255158233,0.,-0.830499578195538));
#1120=DIRECTION('center_axis',(-0.707106781186548,0.,-0.707106781186548));
#1121=DIRECTION('ref_axis',(0.499999999999999,0.707106781186548,-0.5));
#1122=DIRECTION('',(-0.707106781186548,0.,-0.707106781186548));
#1123=DIRECTION('',(0.707106781186548,0.,0.707106781186548));
#1124=DIRECTION('center_axis',(0.,1.,0.));
#1125=DIRECTION('ref_axis',(0.0971494310624116,0.,-0.995269806657597));
#1126=DIRECTION('',(0.,-1.,0.));
#1127=DIRECTION('',(0.,1.,0.));
#1128=DIRECTION('center_axis',(0.,1.,0.));
#1129=DIRECTION('ref_axis',(0.,0.,1.));
#1130=DIRECTION('center_axis',(0.,-1.,0.));
#1131=DIRECTION('ref_axis',(-0.707106781186547,0.,-0.707106781186548));
#1132=DIRECTION('center_axis',(0.,1.,0.));
#1133=DIRECTION('ref_axis',(-0.707106781186547,0.,-0.707106781186548));
#1134=DIRECTION('center_axis',(0.707106781186548,0.,0.707106781186547));
#1135=DIRECTION('ref_axis',(-0.5,0.707106781186548,0.5));
#1136=DIRECTION('',(0.707106781186548,0.,0.707106781186547));
#1137=DIRECTION('',(-0.707106781186548,0.,-0.707106781186547));
#1138=DIRECTION('center_axis',(-0.707106781186548,0.,-0.707106781186547));
#1139=DIRECTION('ref_axis',(-0.5,-0.707106781186548,0.5));
#1140=DIRECTION('',(0.707106781186548,0.,0.707106781186547));
#1141=DIRECTION('',(-0.707106781186548,0.,-0.707106781186547));
#1142=DIRECTION('center_axis',(0.,1.,0.));
#1143=DIRECTION('ref_axis',(-1.,0.,0.));
#1144=DIRECTION('center_axis',(0.,1.,0.));
#1145=DIRECTION('ref_axis',(-1.,0.,0.));
#1146=DIRECTION('center_axis',(0.,1.,0.));
#1147=DIRECTION('ref_axis',(-0.85263927491377,0.,-0.522500016147867));
#1148=DIRECTION('',(0.,1.,0.));
#1149=DIRECTION('center_axis',(0.707106781186547,0.,-0.707106781186548));
#1150=DIRECTION('ref_axis',(-0.707106781186548,0.,-0.707106781186547));
#1151=DIRECTION('',(0.,1.,0.));
#1152=DIRECTION('center_axis',(0.707106781186548,0.,0.707106781186547));
#1153=DIRECTION('ref_axis',(0.5,-0.707106781186548,-0.5));
#1154=DIRECTION('',(-0.707106781186548,0.,-0.707106781186547));
#1155=DIRECTION('',(0.707106781186548,0.,0.707106781186547));
#1156=DIRECTION('center_axis',(-0.500000000000002,-0.707106781186545,-0.500000000000002));
#1157=DIRECTION('ref_axis',(-0.499999999999999,0.70710678118655,-0.499999999999998));
#1158=DIRECTION('center_axis',(-0.707106781186548,0.,-0.707106781186547));
#1159=DIRECTION('ref_axis',(-0.5,-0.707106781186548,0.5));
#1160=DIRECTION('',(-0.707106781186548,0.,-0.707106781186547));
#1161=DIRECTION('',(0.707106781186548,0.,0.707106781186547));
#1162=DIRECTION('center_axis',(-0.500000000000002,-0.707106781186547,-0.5));
#1163=DIRECTION('ref_axis',(0.499999999999999,-0.707106781186549,0.5));
#1164=DIRECTION('center_axis',(0.,0.,1.));
#1165=DIRECTION('ref_axis',(1.,0.,0.));
#1166=DIRECTION('center_axis',(0.707106781186548,0.,0.707106781186548));
#1167=DIRECTION('ref_axis',(0.,1.,0.));
#1168=DIRECTION('center_axis',(0.557019255158235,1.22938633820555E-15,-0.830499578195537));
#1169=DIRECTION('ref_axis',(0.830499578195537,0.,0.557019255158235));
#1170=DIRECTION('center_axis',(0.,1.,0.));
#1171=DIRECTION('ref_axis',(0.707106781186548,0.,-0.707106781186548));
#1172=DIRECTION('center_axis',(-0.0527895642911151,-0.839483478269862,0.540814895887575));
#1173=DIRECTION('ref_axis',(-0.081555342300214,0.543385213004488,0.835512559109893));
#1174=DIRECTION('center_axis',(-0.83049957819554,0.,0.557019255158231));
#1175=DIRECTION('ref_axis',(0.,1.,0.));
#1176=DIRECTION('center_axis',(0.707106781186548,0.,0.707106781186548));
#1177=DIRECTION('ref_axis',(-0.707106781186548,0.,0.707106781186548));
#1178=DIRECTION('center_axis',(0.,1.,0.));
#1179=DIRECTION('ref_axis',(0.557019255158232,0.,0.830499578195539));
#1180=DIRECTION('center_axis',(0.707106781186548,0.,0.707106781186547));
#1181=DIRECTION('ref_axis',(-0.5,0.707106781186548,0.5));
#1182=DIRECTION('',(0.707106781186548,0.,0.707106781186547));
#1183=DIRECTION('',(-0.707106781186548,0.,-0.707106781186547));
#1184=DIRECTION('center_axis',(0.,1.,0.));
#1185=DIRECTION('ref_axis',(-0.0971494310624154,0.,0.995269806657596));
#1186=DIRECTION('',(0.,1.,0.));
#1187=DIRECTION('',(0.,-1.,0.));
#1188=DIRECTION('center_axis',(0.,1.,0.));
#1189=DIRECTION('ref_axis',(0.,0.,1.));
#1190=DIRECTION('center_axis',(0.,-1.,0.));
#1191=DIRECTION('ref_axis',(0.707106781186547,0.,0.707106781186548));
#1192=DIRECTION('center_axis',(0.,1.,0.));
#1193=DIRECTION('ref_axis',(0.707106781186547,0.,0.707106781186548));
#1194=DIRECTION('center_axis',(0.,1.,0.));
#1195=DIRECTION('ref_axis',(0.995269806657596,0.,-0.0971494310624135));
#1196=DIRECTION('',(0.,1.,0.));
#1197=DIRECTION('',(0.,-1.,0.));
#1198=DIRECTION('center_axis',(-0.707106781186548,0.,-0.707106781186547));
#1199=DIRECTION('ref_axis',(0.5,0.707106781186548,-0.5));
#1200=DIRECTION('',(0.707106781186548,0.,0.707106781186547));
#1201=DIRECTION('',(-0.707106781186548,0.,-0.707106781186547));
#1202=DIRECTION('center_axis',(0.707106781186547,0.,-0.707106781186548));
#1203=DIRECTION('ref_axis',(-0.707106781186548,0.,-0.707106781186547));
#1204=DIRECTION('',(0.,1.,0.));
#1205=DIRECTION('center_axis',(0.,1.,0.));
#1206=DIRECTION('ref_axis',(-1.,0.,0.));
#1207=DIRECTION('center_axis',(0.,-1.,0.));
#1208=DIRECTION('ref_axis',(1.,0.,0.));
#1209=DIRECTION('',(0.707106781186555,0.,0.70710678118654));
#1210=DIRECTION('',(0.70710678118654,0.,-0.707106781186555));
#1211=DIRECTION('center_axis',(0.,1.,0.));
#1212=DIRECTION('ref_axis',(-1.,0.,0.));
#1213=DIRECTION('center_axis',(0.,1.,0.));
#1214=DIRECTION('ref_axis',(-1.,0.,0.));
#1215=DIRECTION('',(-0.707106781186555,0.,0.70710678118654));
#1216=DIRECTION('',(0.70710678118654,0.,0.707106781186555));
#1217=DIRECTION('center_axis',(0.,-1.,0.));
#1218=DIRECTION('ref_axis',(1.,0.,0.));
#1219=DIRECTION('center_axis',(0.,-1.,0.));
#1220=DIRECTION('ref_axis',(0.85263927491377,0.,0.522500016147867));
#1221=DIRECTION('center_axis',(0.,-1.,0.));
#1222=DIRECTION('ref_axis',(1.,0.,0.));
#1223=DIRECTION('',(-0.707106781186555,0.,-0.70710678118654));
#1224=DIRECTION('',(-0.70710678118654,0.,0.707106781186555));
#1225=DIRECTION('center_axis',(0.,1.,0.));
#1226=DIRECTION('ref_axis',(-1.,0.,0.));
#1227=DIRECTION('',(0.707106781186555,0.,-0.70710678118654));
#1228=DIRECTION('',(-0.70710678118654,0.,-0.707106781186555));
#1229=DIRECTION('center_axis',(0.,-1.,0.));
#1230=DIRECTION('ref_axis',(1.,0.,0.));
#1231=DIRECTION('center_axis',(0.,-1.,0.));
#1232=DIRECTION('ref_axis',(-1.,0.,0.));
#1233=DIRECTION('center_axis',(0.,1.,0.));
#1234=DIRECTION('ref_axis',(-1.,0.,0.));
#1235=DIRECTION('center_axis',(0.,1.,0.));
#1236=DIRECTION('ref_axis',(-1.,0.,0.));
#1237=DIRECTION('center_axis',(0.,1.,0.));
#1238=DIRECTION('ref_axis',(-1.,0.,0.));
#1239=DIRECTION('center_axis',(0.,-1.,0.));
#1240=DIRECTION('ref_axis',(-1.,0.,0.));
#1241=DIRECTION('center_axis',(0.,1.,0.));
#1242=DIRECTION('ref_axis',(1.,0.,0.));
#1243=DIRECTION('center_axis',(0.,1.,0.));
#1244=DIRECTION('ref_axis',(1.,0.,0.));
#1245=DIRECTION('center_axis',(0.,1.,0.));
#1246=DIRECTION('ref_axis',(-1.,0.,0.));
#1247=DIRECTION('center_axis',(0.,1.,0.));
#1248=DIRECTION('ref_axis',(0.255376959227629,0.,-0.966841563388568));
#1249=DIRECTION('',(0.,0.,-1.));
#1250=DIRECTION('center_axis',(0.,1.,0.));
#1251=DIRECTION('ref_axis',(0.255376959227629,0.,0.966841563388568));
#1252=DIRECTION('center_axis',(0.,1.,0.));
#1253=DIRECTION('ref_axis',(-0.25537695922763,0.,-0.966841563388567));
#1254=DIRECTION('center_axis',(0.,1.,0.));
#1255=DIRECTION('ref_axis',(-1.,0.,0.));
#1256=DIRECTION('center_axis',(0.,1.,0.));
#1257=DIRECTION('ref_axis',(-1.,0.,0.));
#1258=DIRECTION('center_axis',(0.,1.,0.));
#1259=DIRECTION('ref_axis',(-0.25537695922763,0.,0.966841563388567));
#1260=DIRECTION('',(-1.20024110770287E-16,0.,1.));
#1261=DIRECTION('center_axis',(0.,-1.,0.));
#1262=DIRECTION('ref_axis',(-0.25537695922763,0.,-0.966841563388567));
#1263=DIRECTION('',(0.,-1.,0.));
#1264=DIRECTION('center_axis',(0.,-1.,0.));
#1265=DIRECTION('ref_axis',(-0.25537695922763,0.,-0.966841563388567));
#1266=DIRECTION('',(0.,1.,0.));
#1267=DIRECTION('center_axis',(0.,1.,0.));
#1268=DIRECTION('ref_axis',(0.255376959227629,0.,-0.966841563388568));
#1269=DIRECTION('',(0.,-1.,0.));
#1270=DIRECTION('center_axis',(0.,-1.,0.));
#1271=DIRECTION('ref_axis',(0.255376959227629,0.,-0.966841563388568));
#1272=DIRECTION('',(0.,1.,0.));
#1273=DIRECTION('center_axis',(0.,1.,0.));
#1274=DIRECTION('ref_axis',(-1.,0.,0.));
#1275=DIRECTION('',(0.,-1.,0.));
#1276=DIRECTION('center_axis',(0.,-1.,0.));
#1277=DIRECTION('ref_axis',(5.0532154980743E-16,0.,-1.));
#1278=DIRECTION('',(0.,1.,0.));
#1279=DIRECTION('center_axis',(0.,-1.,0.));
#1280=DIRECTION('ref_axis',(2.83276944882399E-16,0.,1.));
#1281=DIRECTION('',(0.,-1.,0.));
#1282=DIRECTION('center_axis',(-0.707106781186548,0.,0.707106781186548));
#1283=DIRECTION('ref_axis',(0.707106781186548,0.,0.707106781186548));
#1284=DIRECTION('',(0.,1.,0.));
#1285=DIRECTION('center_axis',(0.,1.,0.));
#1286=DIRECTION('ref_axis',(0.85263927491377,0.,0.522500016147867));
#1287=DIRECTION('center_axis',(-0.707106781186547,0.,0.707106781186548));
#1288=DIRECTION('ref_axis',(0.707106781186548,0.,0.707106781186547));
#1289=DIRECTION('',(0.,1.,0.));
#1290=DIRECTION('center_axis',(-0.70710678118654,0.,0.707106781186555));
#1291=DIRECTION('ref_axis',(0.707106781186555,0.,0.70710678118654));
#1292=DIRECTION('',(0.,1.,0.));
#1293=DIRECTION('',(-0.707106781186548,0.,-0.707106781186547));
#1294=DIRECTION('',(0.,1.,0.));
#1295=DIRECTION('center_axis',(0.70710678118654,0.,-0.707106781186555));
#1296=DIRECTION('ref_axis',(-0.707106781186555,0.,-0.70710678118654));
#1297=DIRECTION('',(0.,1.,0.));
#1298=DIRECTION('',(0.707106781186548,0.,0.707106781186547));
#1299=DIRECTION('',(0.,1.,0.));
#1300=DIRECTION('center_axis',(0.,1.,0.));
#1301=DIRECTION('ref_axis',(-1.,0.,0.));
#1302=DIRECTION('',(0.,-1.,0.));
#1303=DIRECTION('',(0.,1.,0.));
#1304=DIRECTION('center_axis',(0.,-1.,0.));
#1305=DIRECTION('ref_axis',(-1.,0.,0.));
#1306=DIRECTION('',(0.,-1.,0.));
#1307=DIRECTION('center_axis',(0.,-1.,0.));
#1308=DIRECTION('ref_axis',(-1.,0.,0.));
#1309=DIRECTION('',(0.,1.,0.));
#1310=DIRECTION('',(0.,1.,0.));
#1311=DIRECTION('center_axis',(0.,-1.,0.));
#1312=DIRECTION('ref_axis',(-1.,0.,0.));
#1313=DIRECTION('',(0.,-1.,0.));
#1314=DIRECTION('center_axis',(0.,-1.,0.));
#1315=DIRECTION('ref_axis',(-1.,0.,0.));
#1316=DIRECTION('',(0.,1.,0.));
#1317=DIRECTION('center_axis',(0.707106781186555,0.,-0.70710678118654));
#1318=DIRECTION('ref_axis',(-0.70710678118654,0.,-0.707106781186555));
#1319=DIRECTION('',(0.,-1.,0.));
#1320=DIRECTION('',(0.707106781186548,0.,0.707106781186547));
#1321=DIRECTION('center_axis',(0.,1.,0.));
#1322=DIRECTION('ref_axis',(0.707106781186548,0.,0.707106781186547));
#1323=DIRECTION('',(0.707106781186555,0.,-0.70710678118654));
#1324=DIRECTION('center_axis',(0.70710678118654,0.,0.707106781186555));
#1325=DIRECTION('ref_axis',(0.,-1.,0.));
#1326=DIRECTION('center_axis',(0.,1.,0.));
#1327=DIRECTION('ref_axis',(0.707106781186548,0.,0.707106781186547));
#1328=DIRECTION('',(0.70710678118654,0.,-0.707106781186555));
#1329=DIRECTION('center_axis',(-0.707106781186555,0.,-0.70710678118654));
#1330=DIRECTION('ref_axis',(0.,1.,0.));
#1331=DIRECTION('center_axis',(0.,1.,0.));
#1332=DIRECTION('ref_axis',(-0.707106781186548,0.,-0.707106781186547));
#1333=DIRECTION('',(-0.70710678118654,0.,0.707106781186555));
#1334=DIRECTION('center_axis',(0.707106781186555,0.,0.70710678118654));
#1335=DIRECTION('ref_axis',(0.,1.,0.));
#1336=DIRECTION('center_axis',(0.,1.,0.));
#1337=DIRECTION('ref_axis',(-0.707106781186548,0.,-0.707106781186547));
#1338=DIRECTION('',(-0.707106781186548,0.,-0.707106781186547));
#1339=DIRECTION('',(-0.707106781186555,0.,0.70710678118654));
#1340=DIRECTION('center_axis',(-0.70710678118654,0.,-0.707106781186555));
#1341=DIRECTION('ref_axis',(0.,-1.,0.));
#1342=DIRECTION('',(0.,-1.,0.));
#1343=DIRECTION('center_axis',(-0.707106781186555,0.,0.70710678118654));
#1344=DIRECTION('ref_axis',(0.70710678118654,0.,0.707106781186555));
#1345=DIRECTION('center_axis',(0.,1.,0.));
#1346=DIRECTION('ref_axis',(0.,0.,1.));
#1347=DIRECTION('center_axis',(0.,1.,0.));
#1348=DIRECTION('ref_axis',(2.83276944882399E-16,0.,1.));
#1349=DIRECTION('center_axis',(0.,1.,0.));
#1350=DIRECTION('ref_axis',(-1.,0.,0.));
#1351=DIRECTION('center_axis',(0.,-1.,0.));
#1352=DIRECTION('ref_axis',(0.255376959227629,0.,0.966841563388568));
#1353=DIRECTION('',(0.,0.,-1.));
#1354=DIRECTION('center_axis',(0.,1.,0.));
#1355=DIRECTION('ref_axis',(5.0532154980743E-16,0.,-1.));
#1356=DIRECTION('',(-1.20024110770287E-16,0.,1.));
#1357=DIRECTION('center_axis',(0.,-1.,0.));
#1358=DIRECTION('ref_axis',(-0.25537695922763,0.,0.966841563388567));
#1359=DIRECTION('center_axis',(0.,1.,0.));
#1360=DIRECTION('ref_axis',(1.,0.,0.));
#1361=DIRECTION('center_axis',(0.,1.,0.));
#1362=DIRECTION('ref_axis',(1.,0.,0.));
#1363=DIRECTION('center_axis',(0.,1.,0.));
#1364=DIRECTION('ref_axis',(5.66553889764798E-16,0.,-1.));
#1365=DIRECTION('center_axis',(0.,1.,0.));
#1366=DIRECTION('ref_axis',(1.,0.,0.));
#1367=DIRECTION('',(0.,1.,0.));
#1368=DIRECTION('center_axis',(0.,1.,0.));
#1369=DIRECTION('ref_axis',(1.,0.,0.));
#1370=DIRECTION('',(0.,1.,0.));
#1371=DIRECTION('center_axis',(0.,1.,0.));
#1372=DIRECTION('ref_axis',(-0.25537695922763,0.,0.966841563388567));
#1373=DIRECTION('',(0.,1.,0.));
#1374=DIRECTION('center_axis',(-1.,0.,0.));
#1375=DIRECTION('ref_axis',(0.,0.,-1.));
#1376=DIRECTION('',(0.,-1.,0.));
#1377=DIRECTION('center_axis',(0.,-1.,0.));
#1378=DIRECTION('ref_axis',(0.255376959227629,0.,0.966841563388568));
#1379=DIRECTION('center_axis',(1.,0.,1.20024110770287E-16));
#1380=DIRECTION('ref_axis',(-1.20024110770287E-16,0.,1.));
#1381=CARTESIAN_POINT('',(0.,0.,0.));
#1382=CARTESIAN_POINT('Origin',(-15.9864526230413,28.5,-23.835337894212));
#1383=CARTESIAN_POINT('',(-14.9257924512615,28.5,-24.8959980659918));
#1384=CARTESIAN_POINT('',(-16.8219815057786,28.5,-25.0810872615053));
#1385=CARTESIAN_POINT('Origin',(-15.9864526230413,28.5,-23.835337894212));
#1386=CARTESIAN_POINT('',(-15.9864526230413,27.,-23.835337894212));
#1387=CARTESIAN_POINT('Origin',(-15.9864526230413,28.5,-23.835337894212));
#1388=CARTESIAN_POINT('Origin',(-15.9864526230413,28.5,-23.835337894212));
#1389=CARTESIAN_POINT('Origin',(-6.45785901193002,28.5,-14.3067442831007));
#1390=CARTESIAN_POINT('',(-9.37713065404331,28.5,-19.3473362687736));
#1391=CARTESIAN_POINT('',(-10.7630945984101,27.,-18.6119798695808));
#1392=CARTESIAN_POINT('Ctrl Pts',(-10.7630945984101,27.,-18.6119798695808));
#1393=CARTESIAN_POINT('Ctrl Pts',(-10.5926576823743,27.,-18.7105415843047));
#1394=CARTESIAN_POINT('Ctrl Pts',(-10.4090977608041,27.0382892881617,-18.8132517462315));
#1395=CARTESIAN_POINT('Ctrl Pts',(-10.0673642225891,27.1941179035398,-18.998314006097));
#1396=CARTESIAN_POINT('Ctrl Pts',(-9.90925748079629,27.311654262817,-19.0807920658758));
#1397=CARTESIAN_POINT('Ctrl Pts',(-9.66285159753182,27.5795410492967,-19.2067069989046));
#1398=CARTESIAN_POINT('Ctrl Pts',(-9.55602768631852,27.7457181729135,-19.2597683870705));
#1399=CARTESIAN_POINT('Ctrl Pts',(-9.4130729426748,28.1117905245023,-19.3300388335822));
#1400=CARTESIAN_POINT('Ctrl Pts',(-9.37713065404333,28.3117423841984,-19.3473362687736));
#1401=CARTESIAN_POINT('Ctrl Pts',(-9.37713065404333,28.5,-19.3473362687736));
#1402=CARTESIAN_POINT('',(-6.45785901193002,27.,-14.3067442831007));
#1403=CARTESIAN_POINT('',(-5.3971988401502,28.5,-15.3674044548805));
#1404=CARTESIAN_POINT('Origin',(-2.66453525910038E-14,28.5,-3.10862446895044E-14));
#1405=CARTESIAN_POINT('',(-25.7497061023958,28.5,-15.7795004876656));
#1406=CARTESIAN_POINT('Origin',(-2.66453525910038E-14,28.5,-3.10862446895044E-14));
#1407=CARTESIAN_POINT('',(-23.8353378942119,27.,-15.9864526230413));
#1408=CARTESIAN_POINT('Origin',(-2.66453525910038E-14,27.,-3.10862446895044E-14));
#1409=CARTESIAN_POINT('Ctrl Pts',(-23.8353378942119,27.,-15.9864526230413));
#1410=CARTESIAN_POINT('Ctrl Pts',(-23.8376881437357,27.,-15.9862232124809));
#1411=CARTESIAN_POINT('Ctrl Pts',(-23.8400383854203,27.000003327323,-15.9859937097037));
#1412=CARTESIAN_POINT('Ctrl Pts',(-24.0241300199133,27.0005246333278,-15.9680097489169));
#1413=CARTESIAN_POINT('Ctrl Pts',(-24.2062811053253,27.0209412539482,-15.9496483833372));
#1414=CARTESIAN_POINT('Ctrl Pts',(-24.5541430635722,27.1014367056143,-15.9135759658851));
#1415=CARTESIAN_POINT('Ctrl Pts',(-24.7210379097564,27.1603496989612,-15.8957768927741));
#1416=CARTESIAN_POINT('Ctrl Pts',(-25.0676045363509,27.3356704136124,-15.8579720220839));
#1417=CARTESIAN_POINT('Ctrl Pts',(-25.2427383204081,27.4619957623992,-15.8382609271356));
#1418=CARTESIAN_POINT('Ctrl Pts',(-25.5032502094557,27.7446330533553,-15.8084230924868));
#1419=CARTESIAN_POINT('Ctrl Pts',(-25.5979775254846,27.8890126716752,-15.7973592347016));
#1420=CARTESIAN_POINT('Ctrl Pts',(-25.7192562251933,28.1925387782546,-15.783116988449));
#1421=CARTESIAN_POINT('Ctrl Pts',(-25.7497061023959,28.3447465181827,-15.7795004876656));
#1422=CARTESIAN_POINT('Ctrl Pts',(-25.7497061023959,28.5,-15.7795004876656));
#1423=CARTESIAN_POINT('Origin',(-15.9864526230413,38.2,-23.835337894212));
#1424=CARTESIAN_POINT('',(-15.9864526230413,39.7,-23.835337894212));
#1425=CARTESIAN_POINT('',(-16.8219815057786,38.2,-25.0810872615053));
#1426=CARTESIAN_POINT('Origin',(-15.9864526230413,38.2,-23.835337894212));
#1427=CARTESIAN_POINT('',(-14.9257924512615,38.2,-24.8959980659918));
#1428=CARTESIAN_POINT('Origin',(-15.9864526230413,38.2,-23.835337894212));
#1429=CARTESIAN_POINT('Origin',(-15.9864526230413,38.2,-23.835337894212));
#1430=CARTESIAN_POINT('Origin',(-6.45785901193002,38.2,-14.3067442831007));
#1431=CARTESIAN_POINT('',(-10.7630945984101,39.7,-18.6119798695808));
#1432=CARTESIAN_POINT('',(-9.37713065404331,38.2,-19.3473362687736));
#1433=CARTESIAN_POINT('Ctrl Pts',(-9.37713065404333,38.2,-19.3473362687736));
#1434=CARTESIAN_POINT('Ctrl Pts',(-9.37713065404333,38.3882576158016,-19.3473362687736));
#1435=CARTESIAN_POINT('Ctrl Pts',(-9.4130729426748,38.5882094754977,-19.3300388335822));
#1436=CARTESIAN_POINT('Ctrl Pts',(-9.55602768631851,38.9542818270865,-19.2597683870705));
#1437=CARTESIAN_POINT('Ctrl Pts',(-9.66285159753182,39.1204589507033,-19.2067069989046));
#1438=CARTESIAN_POINT('Ctrl Pts',(-9.90925748079629,39.388345737183,-19.0807920658758));
#1439=CARTESIAN_POINT('Ctrl Pts',(-10.0673642225891,39.5058820964602,-18.998314006097));
#1440=CARTESIAN_POINT('Ctrl Pts',(-10.4090977608041,39.6617107118383,-18.8132517462315));
#1441=CARTESIAN_POINT('Ctrl Pts',(-10.5926576823743,39.7,-18.7105415843047));
#1442=CARTESIAN_POINT('Ctrl Pts',(-10.7630945984101,39.7,-18.6119798695808));
#1443=CARTESIAN_POINT('',(-5.3971988401502,38.2,-15.3674044548805));
#1444=CARTESIAN_POINT('',(-6.45785901193002,39.7,-14.3067442831007));
#1445=CARTESIAN_POINT('Origin',(-15.9864526230413,27.,-23.835337894212));
#1446=CARTESIAN_POINT('',(-14.9257924512615,27.,-24.8959980659918));
#1447=CARTESIAN_POINT('',(-16.8219815057786,27.,-25.0810872615053));
#1448=CARTESIAN_POINT('Origin',(-2.66453525910038E-14,38.2,-3.10862446895044E-14));
#1449=CARTESIAN_POINT('',(-23.8353378942119,39.7,-15.9864526230413));
#1450=CARTESIAN_POINT('Origin',(-2.66453525910038E-14,39.7,-3.10862446895044E-14));
#1451=CARTESIAN_POINT('',(-25.7497061023958,38.2,-15.7795004876656));
#1452=CARTESIAN_POINT('Origin',(-2.66453525910038E-14,38.2,-3.10862446895044E-14));
#1453=CARTESIAN_POINT('Ctrl Pts',(-25.7497061023959,38.2,-15.7795004876656));
#1454=CARTESIAN_POINT('Ctrl Pts',(-25.7497061023959,38.3552534818173,-15.7795004876656));
#1455=CARTESIAN_POINT('Ctrl Pts',(-25.7192562251933,38.5074612217454,-15.783116988449));
#1456=CARTESIAN_POINT('Ctrl Pts',(-25.5979775254846,38.8109873283248,-15.7973592347016));
#1457=CARTESIAN_POINT('Ctrl Pts',(-25.5032502094557,38.9553669466447,-15.8084230924868));
#1458=CARTESIAN_POINT('Ctrl Pts',(-25.2427383204081,39.2380042376008,-15.8382609271356));
#1459=CARTESIAN_POINT('Ctrl Pts',(-25.0676045363509,39.3643295863876,-15.8579720220839));
#1460=CARTESIAN_POINT('Ctrl Pts',(-24.7210379097562,39.539650301039,-15.8957768927741));
#1461=CARTESIAN_POINT('Ctrl Pts',(-24.5541430635717,39.5985632943859,-15.9135759658851));
#1462=CARTESIAN_POINT('Ctrl Pts',(-24.2062811052749,39.6790587460634,-15.9496483833424));
#1463=CARTESIAN_POINT('Ctrl Pts',(-24.0241300196288,39.6994753666731,-15.9680097489689));
#1464=CARTESIAN_POINT('Ctrl Pts',(-23.8400383854288,39.699996672677,-15.9859937097015));
#1465=CARTESIAN_POINT('Ctrl Pts',(-23.8376881437264,39.7,-15.9862232124818));
#1466=CARTESIAN_POINT('Ctrl Pts',(-23.8353378942119,39.7,-15.9864526230413));
#1467=CARTESIAN_POINT('Origin',(-11.1055593662895,38.2,-3.25667409511895));
#1468=CARTESIAN_POINT('',(-19.3473362687736,38.2,-9.37713065404336));
#1469=CARTESIAN_POINT('',(-12.1662195380694,38.2,-2.19601392333912));
#1470=CARTESIAN_POINT('',(-18.6119798695807,39.7,-10.7630945984101));
#1471=CARTESIAN_POINT('Ctrl Pts',(-18.6119798695807,39.7,-10.7630945984101));
#1472=CARTESIAN_POINT('Ctrl Pts',(-18.7105415843047,39.7,-10.5926576823744));
#1473=CARTESIAN_POINT('Ctrl Pts',(-18.8132517462315,39.6617107118383,-10.4090977608041));
#1474=CARTESIAN_POINT('Ctrl Pts',(-18.998314006097,39.5058820964602,-10.0673642225891));
#1475=CARTESIAN_POINT('Ctrl Pts',(-19.0807920658758,39.388345737183,-9.90925748079633));
#1476=CARTESIAN_POINT('Ctrl Pts',(-19.2067069989046,39.1204589507033,-9.66285159753186));
#1477=CARTESIAN_POINT('Ctrl Pts',(-19.2597683870705,38.9542818270865,-9.55602768631856));
#1478=CARTESIAN_POINT('Ctrl Pts',(-19.3300388335822,38.5882094754977,-9.41307294267484));
#1479=CARTESIAN_POINT('Ctrl Pts',(-19.3473362687736,38.3882576158016,-9.37713065404337));
#1480=CARTESIAN_POINT('Ctrl Pts',(-19.3473362687736,38.2,-9.37713065404337));
#1481=CARTESIAN_POINT('',(-11.1055593662895,39.7,-3.25667409511895));
#1482=CARTESIAN_POINT('Origin',(-11.1055593662895,28.5,-3.25667409511895));
#1483=CARTESIAN_POINT('',(-18.6119798695807,27.,-10.7630945984101));
#1484=CARTESIAN_POINT('',(-11.1055593662895,27.,-3.25667409511895));
#1485=CARTESIAN_POINT('',(-19.3473362687736,28.5,-9.37713065404336));
#1486=CARTESIAN_POINT('Ctrl Pts',(-19.3473362687736,28.5,-9.37713065404337));
#1487=CARTESIAN_POINT('Ctrl Pts',(-19.3473362687736,28.3117423841984,-9.37713065404337));
#1488=CARTESIAN_POINT('Ctrl Pts',(-19.3300388335822,28.1117905245023,-9.41307294267484));
#1489=CARTESIAN_POINT('Ctrl Pts',(-19.2597683870705,27.7457181729135,-9.55602768631856));
#1490=CARTESIAN_POINT('Ctrl Pts',(-19.2067069989046,27.5795410492967,-9.66285159753186));
#1491=CARTESIAN_POINT('Ctrl Pts',(-19.0807920658758,27.311654262817,-9.90925748079633));
#1492=CARTESIAN_POINT('Ctrl Pts',(-18.998314006097,27.1941179035398,-10.0673642225891));
#1493=CARTESIAN_POINT('Ctrl Pts',(-18.8132517462315,27.0382892881617,-10.4090977608041));
#1494=CARTESIAN_POINT('Ctrl Pts',(-18.7105415843047,27.,-10.5926576823744));
#1495=CARTESIAN_POINT('Ctrl Pts',(-18.6119798695807,27.,-10.7630945984101));
#1496=CARTESIAN_POINT('',(-12.1662195380694,28.5,-2.19601392333912));
#1497=CARTESIAN_POINT('Origin',(-1.33226762955019E-14,39.7,-8.88178419700125E-15));
#1498=CARTESIAN_POINT('Origin',(-8.88178419700125E-15,39.7,-8.88178419700125E-15));
#1499=CARTESIAN_POINT('Origin',(-2.66453525910038E-14,27.,-3.10862446895044E-14));
#1500=CARTESIAN_POINT('',(-25.7497061023958,27.,-15.7795004876656));
#1501=CARTESIAN_POINT('Origin',(-19.3473362687736,27.,-9.37713065404336));
#1502=CARTESIAN_POINT('',(-19.3473362687736,27.,-9.37713065404336));
#1503=CARTESIAN_POINT('Origin',(11.1055593662895,28.5,3.25667409511894));
#1504=CARTESIAN_POINT('',(24.9153632919072,27.,17.0664780207365));
#1505=CARTESIAN_POINT('',(18.6119798695807,27.,10.7630945984101));
#1506=CARTESIAN_POINT('',(11.1055593662895,27.,3.25667409511894));
#1507=CARTESIAN_POINT('',(19.3473362687736,28.5,9.37713065404336));
#1508=CARTESIAN_POINT('Ctrl Pts',(19.3473362687736,28.5,9.37713065404336));
#1509=CARTESIAN_POINT('Ctrl Pts',(19.3473362687736,28.3117423841984,9.37713065404336));
#1510=CARTESIAN_POINT('Ctrl Pts',(19.3300388335822,28.1117905245023,9.41307294267483));
#1511=CARTESIAN_POINT('Ctrl Pts',(19.2597683870704,27.7457181729135,9.55602768631854));
#1512=CARTESIAN_POINT('Ctrl Pts',(19.2067069989046,27.5795410492967,9.66285159753184));
#1513=CARTESIAN_POINT('Ctrl Pts',(19.0807920658757,27.311654262817,9.90925748079632));
#1514=CARTESIAN_POINT('Ctrl Pts',(18.998314006097,27.1941179035398,10.0673642225891));
#1515=CARTESIAN_POINT('Ctrl Pts',(18.8132517462315,27.0382892881617,10.4090977608041));
#1516=CARTESIAN_POINT('Ctrl Pts',(18.7105415843047,27.,10.5926576823744));
#1517=CARTESIAN_POINT('Ctrl Pts',(18.6119798695807,27.,10.7630945984101));
#1518=CARTESIAN_POINT('',(24.8959980659917,28.5,14.9257924512615));
#1519=CARTESIAN_POINT('',(12.1662195380694,28.5,2.19601392333911));
#1520=CARTESIAN_POINT('',(25.0810872615052,27.0283140358673,16.8219815057786));
#1521=CARTESIAN_POINT('Origin',(23.8353378942119,28.5,15.9864526230413));
#1522=CARTESIAN_POINT('Ctrl Pts',(25.0810872615052,27.0283140358673,16.8219815057787));
#1523=CARTESIAN_POINT('Ctrl Pts',(25.0257994783017,27.0091198341256,16.9044139894041));
#1524=CARTESIAN_POINT('Ctrl Pts',(24.9698351057081,27.,16.9869545813736));
#1525=CARTESIAN_POINT('Ctrl Pts',(24.9153632919072,27.,17.0664780207365));
#1526=CARTESIAN_POINT('Origin',(6.45785901193,28.5,14.3067442831007));
#1527=CARTESIAN_POINT('',(14.9257924512614,28.5,24.8959980659918));
#1528=CARTESIAN_POINT('',(9.37713065404332,28.5,19.3473362687736));
#1529=CARTESIAN_POINT('',(5.39719884015017,28.5,15.3674044548805));
#1530=CARTESIAN_POINT('',(10.7630945984101,27.,18.6119798695807));
#1531=CARTESIAN_POINT('Ctrl Pts',(10.7630945984101,27.,18.6119798695807));
#1532=CARTESIAN_POINT('Ctrl Pts',(10.5926576823743,27.,18.7105415843047));
#1533=CARTESIAN_POINT('Ctrl Pts',(10.4090977608041,27.0382892881617,18.8132517462315));
#1534=CARTESIAN_POINT('Ctrl Pts',(10.0673642225891,27.1941179035398,18.998314006097));
#1535=CARTESIAN_POINT('Ctrl Pts',(9.90925748079628,27.311654262817,19.0807920658758));
#1536=CARTESIAN_POINT('Ctrl Pts',(9.6628515975318,27.5795410492967,19.2067069989046));
#1537=CARTESIAN_POINT('Ctrl Pts',(9.5560276863185,27.7457181729135,19.2597683870705));
#1538=CARTESIAN_POINT('Ctrl Pts',(9.41307294267478,28.1117905245023,19.3300388335822));
#1539=CARTESIAN_POINT('Ctrl Pts',(9.37713065404331,28.3117423841984,19.3473362687736));
#1540=CARTESIAN_POINT('Ctrl Pts',(9.37713065404331,28.5,19.3473362687736));
#1541=CARTESIAN_POINT('',(17.0664780207365,27.,24.9153632919072));
#1542=CARTESIAN_POINT('',(6.45785901193,27.,14.3067442831007));
#1543=CARTESIAN_POINT('',(16.8219815057786,27.0283140358673,25.0810872615052));
#1544=CARTESIAN_POINT('Ctrl Pts',(17.0664780207365,27.,24.9153632919072));
#1545=CARTESIAN_POINT('Ctrl Pts',(16.9869545813736,27.,24.9698351057082));
#1546=CARTESIAN_POINT('Ctrl Pts',(16.904413989404,27.0091198341256,25.0257994783017));
#1547=CARTESIAN_POINT('Ctrl Pts',(16.8219815057786,27.0283140358673,25.0810872615052));
#1548=CARTESIAN_POINT('Origin',(15.9864526230413,28.5,23.8353378942119));
#1549=CARTESIAN_POINT('Origin',(23.8353378942119,38.2,15.9864526230413));
#1550=CARTESIAN_POINT('',(23.8353378942119,39.7,15.9864526230413));
#1551=CARTESIAN_POINT('',(24.8959980659917,38.2,14.9257924512615));
#1552=CARTESIAN_POINT('Origin',(23.8353378942119,38.2,15.9864526230413));
#1553=CARTESIAN_POINT('',(25.0810872615052,38.2,16.8219815057786));
#1554=CARTESIAN_POINT('Origin',(23.8353378942119,38.2,15.9864526230413));
#1555=CARTESIAN_POINT('Origin',(23.8353378942119,38.2,15.9864526230413));
#1556=CARTESIAN_POINT('Origin',(15.9864526230413,38.2,23.8353378942119));
#1557=CARTESIAN_POINT('',(15.9864526230413,39.7,23.8353378942119));
#1558=CARTESIAN_POINT('',(16.8219815057786,38.2,25.0810872615052));
#1559=CARTESIAN_POINT('Origin',(15.9864526230413,38.2,23.8353378942119));
#1560=CARTESIAN_POINT('',(14.9257924512614,38.2,24.8959980659918));
#1561=CARTESIAN_POINT('Origin',(15.9864526230413,38.2,23.8353378942119));
#1562=CARTESIAN_POINT('Origin',(15.9864526230413,38.2,23.8353378942119));
#1563=CARTESIAN_POINT('Origin',(6.45785901193,38.2,14.3067442831007));
#1564=CARTESIAN_POINT('',(10.7630945984101,39.7,18.6119798695807));
#1565=CARTESIAN_POINT('',(9.37713065404332,38.2,19.3473362687736));
#1566=CARTESIAN_POINT('Ctrl Pts',(9.37713065404331,38.2,19.3473362687736));
#1567=CARTESIAN_POINT('Ctrl Pts',(9.37713065404331,38.3882576158016,19.3473362687736));
#1568=CARTESIAN_POINT('Ctrl Pts',(9.41307294267478,38.5882094754977,19.3300388335822));
#1569=CARTESIAN_POINT('Ctrl Pts',(9.5560276863185,38.9542818270865,19.2597683870705));
#1570=CARTESIAN_POINT('Ctrl Pts',(9.6628515975318,39.1204589507033,19.2067069989046));
#1571=CARTESIAN_POINT('Ctrl Pts',(9.90925748079628,39.388345737183,19.0807920658758));
#1572=CARTESIAN_POINT('Ctrl Pts',(10.0673642225891,39.5058820964602,18.998314006097));
#1573=CARTESIAN_POINT('Ctrl Pts',(10.4090977608041,39.6617107118383,18.8132517462315));
#1574=CARTESIAN_POINT('Ctrl Pts',(10.5926576823743,39.7,18.7105415843047));
#1575=CARTESIAN_POINT('Ctrl Pts',(10.7630945984101,39.7,18.6119798695807));
#1576=CARTESIAN_POINT('',(5.39719884015017,38.2,15.3674044548805));
#1577=CARTESIAN_POINT('',(6.45785901193,39.7,14.3067442831007));
#1578=CARTESIAN_POINT('Origin',(15.9864526230413,27.,23.8353378942119));
#1579=CARTESIAN_POINT('',(16.8219815057786,27.,25.0810872615052));
#1580=CARTESIAN_POINT('',(14.9257924512614,27.,24.8959980659918));
#1581=CARTESIAN_POINT('Origin',(-2.66453525910038E-14,38.2,-3.10862446895044E-14));
#1582=CARTESIAN_POINT('Origin',(-2.66453525910038E-14,39.7,-3.10862446895044E-14));
#1583=CARTESIAN_POINT('Origin',(-2.66453525910038E-14,38.2,-3.10862446895044E-14));
#1584=CARTESIAN_POINT('Origin',(23.8353378942119,27.,15.9864526230413));
#1585=CARTESIAN_POINT('',(24.8959980659917,27.,14.9257924512615));
#1586=CARTESIAN_POINT('',(25.0810872615052,27.,16.8219815057786));
#1587=CARTESIAN_POINT('Origin',(11.1055593662895,38.2,3.25667409511894));
#1588=CARTESIAN_POINT('',(19.3473362687736,38.2,9.37713065404336));
#1589=CARTESIAN_POINT('',(18.6119798695807,39.7,10.7630945984101));
#1590=CARTESIAN_POINT('Ctrl Pts',(18.6119798695807,39.7,10.7630945984101));
#1591=CARTESIAN_POINT('Ctrl Pts',(18.7105415843047,39.7,10.5926576823744));
#1592=CARTESIAN_POINT('Ctrl Pts',(18.8132517462315,39.6617107118383,10.4090977608041));
#1593=CARTESIAN_POINT('Ctrl Pts',(18.998314006097,39.5058820964602,10.0673642225891));
#1594=CARTESIAN_POINT('Ctrl Pts',(19.0807920658757,39.388345737183,9.90925748079632));
#1595=CARTESIAN_POINT('Ctrl Pts',(19.2067069989046,39.1204589507033,9.66285159753184));
#1596=CARTESIAN_POINT('Ctrl Pts',(19.2597683870704,38.9542818270865,9.55602768631854));
#1597=CARTESIAN_POINT('Ctrl Pts',(19.3300388335822,38.5882094754977,9.41307294267483));
#1598=CARTESIAN_POINT('Ctrl Pts',(19.3473362687736,38.3882576158016,9.37713065404336));
#1599=CARTESIAN_POINT('Ctrl Pts',(19.3473362687736,38.2,9.37713065404336));
#1600=CARTESIAN_POINT('',(11.1055593662895,39.7,3.25667409511894));
#1601=CARTESIAN_POINT('',(12.1662195380694,38.2,2.19601392333911));
#1602=CARTESIAN_POINT('Origin',(15.7795004876655,27.,25.7497061023958));
#1603=CARTESIAN_POINT('',(9.37713065404332,27.,19.3473362687736));
#1604=CARTESIAN_POINT('Origin',(-1.33226762955019E-14,27.,-8.88178419700125E-15));
#1605=CARTESIAN_POINT('',(-9.08960350691296,27.,-19.4840731903552));
#1606=CARTESIAN_POINT('Origin',(0.,27.,0.));
#1607=CARTESIAN_POINT('',(-9.05057200705389,27.,-19.4450416904961));
#1608=CARTESIAN_POINT('',(-1.92666858266627,27.,-12.3211382661088));
#1609=CARTESIAN_POINT('',(-8.9445059898759,27.,-19.5511077076741));
#1610=CARTESIAN_POINT('',(-11.5961564193255,27.,-16.8994572782245));
#1611=CARTESIAN_POINT('',(21.5000000000001,27.,-1.15147748151681E-14));
#1612=CARTESIAN_POINT('Origin',(-8.88178419700125E-15,27.,-8.88178419700125E-15));
#1613=CARTESIAN_POINT('',(19.5511077076741,27.,8.94450598987599));
#1614=CARTESIAN_POINT('Origin',(-8.88178419700125E-15,27.,-8.88178419700125E-15));
#1615=CARTESIAN_POINT('',(19.4450416904962,27.,9.05057200705397));
#1616=CARTESIAN_POINT('',(16.8994572782245,27.,11.5961564193256));
#1617=CARTESIAN_POINT('',(19.4840731903552,27.,9.089603506913));
#1618=CARTESIAN_POINT('',(15.6495073219047,27.,5.25503763846225));
#1619=CARTESIAN_POINT('Origin',(0.,27.,0.));
#1620=CARTESIAN_POINT('Origin',(-2.66453525910038E-14,27.,-3.10862446895044E-14));
#1621=CARTESIAN_POINT('',(9.08960350691295,27.,19.4840731903552));
#1622=CARTESIAN_POINT('Origin',(0.,27.,0.));
#1623=CARTESIAN_POINT('',(9.05057200705387,27.,19.4450416904961));
#1624=CARTESIAN_POINT('',(1.92666858266625,27.,12.3211382661088));
#1625=CARTESIAN_POINT('',(8.94450598987588,27.,19.5511077076741));
#1626=CARTESIAN_POINT('',(11.5961564193255,27.,16.8994572782244));
#1627=CARTESIAN_POINT('',(-19.5511077076742,27.,-8.944505989876));
#1628=CARTESIAN_POINT('Origin',(-8.88178419700125E-15,27.,-8.88178419700125E-15));
#1629=CARTESIAN_POINT('',(-19.4450416904962,27.,-9.05057200705398));
#1630=CARTESIAN_POINT('',(-16.8994572782245,27.,-11.5961564193256));
#1631=CARTESIAN_POINT('',(-19.4840731903552,27.,-9.08960350691299));
#1632=CARTESIAN_POINT('',(-15.6495073219047,27.,-5.25503763846227));
#1633=CARTESIAN_POINT('Origin',(0.,27.,0.));
#1634=CARTESIAN_POINT('',(18.5000000000001,27.,-1.11473807754239E-14));
#1635=CARTESIAN_POINT('Origin',(-8.88178419700125E-15,27.,-8.88178419700125E-15));
#1636=CARTESIAN_POINT('Origin',(-1.33226762955019E-14,39.7,-8.88178419700125E-15));
#1637=CARTESIAN_POINT('Origin',(-8.88178419700125E-15,39.7,-8.88178419700125E-15));
#1638=CARTESIAN_POINT('Origin',(-8.88178419700125E-15,64.6,-8.88178419700125E-15));
#1639=CARTESIAN_POINT('',(21.5000000000001,64.6,-1.15147748151681E-14));
#1640=CARTESIAN_POINT('Origin',(-8.88178419700125E-15,64.6,-8.88178419700125E-15));
#1641=CARTESIAN_POINT('',(-1.70000000000001,64.6,-13.0000001937151));
#1642=CARTESIAN_POINT('Origin',(-6.66133814775094E-15,64.6,-13.0000001937151));
#1643=CARTESIAN_POINT('',(-1.70000000000001,64.6,13.));
#1644=CARTESIAN_POINT('Origin',(-6.66133814775094E-15,64.6,13.));
#1645=CARTESIAN_POINT('',(-16.0869565217391,64.6,-9.13563516498325));
#1646=CARTESIAN_POINT('',(-16.0869565217391,64.6,9.13563516498323));
#1647=CARTESIAN_POINT('Origin',(-8.88178419700125E-15,64.6,-8.88178419700125E-15));
#1648=CARTESIAN_POINT('',(-3.00000000000001,64.6,-5.67890834580042));
#1649=CARTESIAN_POINT('Origin',(-10.,64.6,-5.67890834580042));
#1650=CARTESIAN_POINT('',(-3.00000000000001,64.6,5.6789083458004));
#1651=CARTESIAN_POINT('',(-3.00000000000001,64.6,9.12756813176436));
#1652=CARTESIAN_POINT('Origin',(-10.,64.6,5.6789083458004));
#1653=CARTESIAN_POINT('',(16.0869565217391,64.6,-9.13563516498324));
#1654=CARTESIAN_POINT('',(2.99999999999999,64.6,-5.67890834580041));
#1655=CARTESIAN_POINT('Origin',(10.,64.6,-5.67890834580041));
#1656=CARTESIAN_POINT('',(18.5000000000001,64.6,-1.11473807754239E-14));
#1657=CARTESIAN_POINT('Origin',(-8.88178419700125E-15,64.6,-8.88178419700125E-15));
#1658=CARTESIAN_POINT('',(16.0869565217391,64.6,9.13563516498323));
#1659=CARTESIAN_POINT('Origin',(-8.88178419700125E-15,64.6,-8.88178419700125E-15));
#1660=CARTESIAN_POINT('',(2.99999999999999,64.6,5.6789083458004));
#1661=CARTESIAN_POINT('Origin',(9.99999999999999,64.6,5.6789083458004));
#1662=CARTESIAN_POINT('',(2.99999999999999,64.6,-9.12756813176438));
#1663=CARTESIAN_POINT('Origin',(10.,27.,-5.67890834580041));
#1664=CARTESIAN_POINT('',(2.99999999999999,55.,-5.67890834580041));
#1665=CARTESIAN_POINT('',(2.99999999999999,27.,-5.67890834580041));
#1666=CARTESIAN_POINT('',(10.5888545563899,55.,-12.6540965376286));
#1667=CARTESIAN_POINT('Origin',(10.,55.,-5.67890834580041));
#1668=CARTESIAN_POINT('',(16.0869565217391,53.,-9.13563516498324));
#1669=CARTESIAN_POINT('Ctrl Pts',(16.0869565217391,53.,-9.13563516498324));
#1670=CARTESIAN_POINT('Ctrl Pts',(16.084563714871,53.0020420654677,-9.13984866293463));
#1671=CARTESIAN_POINT('Ctrl Pts',(16.0821665329989,53.0040841309493,-9.14405967640399));
#1672=CARTESIAN_POINT('Ctrl Pts',(15.6722931680349,53.3526026224574,-9.86232870477948));
#1673=CARTESIAN_POINT('Ctrl Pts',(15.1392041658414,53.6992876795439,-10.5042849375464));
#1674=CARTESIAN_POINT('Ctrl Pts',(13.8822114304499,54.3145625570797,-11.5593615701196));
#1675=CARTESIAN_POINT('Ctrl Pts',(13.1995956810926,54.5685449365497,-11.9502877023101));
#1676=CARTESIAN_POINT('Ctrl Pts',(11.8419026852328,54.9091893803275,-12.4683929796114));
#1677=CARTESIAN_POINT('Ctrl Pts',(11.1937994866645,55.,-12.6030262913842));
#1678=CARTESIAN_POINT('Ctrl Pts',(10.5888545563899,55.,-12.6540965376286));
#1679=CARTESIAN_POINT('',(16.0869565217391,27.,-9.13563516498324));
#1680=CARTESIAN_POINT('Origin',(-10.,27.,-5.67890834580042));
#1681=CARTESIAN_POINT('',(-16.0869565217391,53.,-9.13563516498325));
#1682=CARTESIAN_POINT('',(-16.0869565217391,27.,-9.13563516498325));
#1683=CARTESIAN_POINT('',(-10.5888545563899,55.,-12.6540965376286));
#1684=CARTESIAN_POINT('Ctrl Pts',(-10.5888545563897,55.,-12.6540965376286));
#1685=CARTESIAN_POINT('Ctrl Pts',(-10.7863472467091,55.,-12.6374239450977));
#1686=CARTESIAN_POINT('Ctrl Pts',(-10.9897475410019,54.990265152791,-12.6118043128796));
#1687=CARTESIAN_POINT('Ctrl Pts',(-11.874201321119,54.9089230498932,-12.4581791734274));
#1688=CARTESIAN_POINT('Ctrl Pts',(-12.5775895625016,54.7503799536528,-12.2327123963308));
#1689=CARTESIAN_POINT('Ctrl Pts',(-13.8439256411642,54.3241160718913,-11.5660441923363));
#1690=CARTESIAN_POINT('Ctrl Pts',(-14.3735682598628,54.0892400490871,-11.1819948365321));
#1691=CARTESIAN_POINT('Ctrl Pts',(-15.3287109969294,53.5731939185628,-10.2687497875698));
#1692=CARTESIAN_POINT('Ctrl Pts',(-15.7463378697025,53.2896418400261,-9.73257151519569));
#1693=CARTESIAN_POINT('Ctrl Pts',(-16.0821665329997,53.0040841309505,-9.14405967640267));
#1694=CARTESIAN_POINT('Ctrl Pts',(-16.0845637148712,53.0020420654675,-9.13984866293429));
#1695=CARTESIAN_POINT('Ctrl Pts',(-16.0869565217391,53.,-9.13563516498325));
#1696=CARTESIAN_POINT('',(-3.00000000000001,55.,-5.67890834580042));
#1697=CARTESIAN_POINT('Origin',(-10.,55.,-5.67890834580042));
#1698=CARTESIAN_POINT('',(-3.00000000000001,27.,-5.67890834580042));
#1699=CARTESIAN_POINT('Origin',(-8.88178419700125E-15,27.,-8.88178419700125E-15));
#1700=CARTESIAN_POINT('',(18.5000000000001,27.,-1.11473807754239E-14));
#1701=CARTESIAN_POINT('Origin',(-8.88178419700125E-15,53.,-8.88178419700125E-15));
#1702=CARTESIAN_POINT('',(-16.0869565217391,53.,9.13563516498323));
#1703=CARTESIAN_POINT('',(-16.0869565217391,27.,9.13563516498323));
#1704=CARTESIAN_POINT('',(16.0869565217391,53.,9.13563516498323));
#1705=CARTESIAN_POINT('Origin',(-8.88178419700125E-15,53.,-8.88178419700125E-15));
#1706=CARTESIAN_POINT('',(16.0869565217391,27.,9.13563516498323));
#1707=CARTESIAN_POINT('Origin',(-15.7795004876655,27.,-25.7497061023959));
#1708=CARTESIAN_POINT('',(-9.37713065404331,27.,-19.3473362687736));
#1709=CARTESIAN_POINT('Origin',(-2.66453525910038E-14,27.,-3.10862446895044E-14));
#1710=CARTESIAN_POINT('Origin',(19.3473362687736,27.,9.37713065404336));
#1711=CARTESIAN_POINT('',(19.3473362687736,27.,9.37713065404336));
#1712=CARTESIAN_POINT('Origin',(-9.05057200705382,27.,-19.4450416904962));
#1713=CARTESIAN_POINT('',(-9.08960350691296,40.,-19.4840731903552));
#1714=CARTESIAN_POINT('',(-9.08960350691287,40.,-19.4840731903553));
#1715=CARTESIAN_POINT('',(-9.05057200705389,40.,-19.4450416904961));
#1716=CARTESIAN_POINT('',(-15.7073101186458,40.,-26.101779802088));
#1717=CARTESIAN_POINT('',(-9.05057200705389,27.,-19.4450416904961));
#1718=CARTESIAN_POINT('Origin',(9.0505720070538,27.,19.4450416904962));
#1719=CARTESIAN_POINT('',(9.08960350691294,40.,19.4840731903552));
#1720=CARTESIAN_POINT('',(9.08960350691285,40.,19.4840731903552));
#1721=CARTESIAN_POINT('',(9.05057200705387,40.,19.4450416904961));
#1722=CARTESIAN_POINT('',(15.7073101186457,40.,26.101779802088));
#1723=CARTESIAN_POINT('',(9.05057200705387,27.,19.4450416904961));
#1724=CARTESIAN_POINT('Origin',(-8.88178419700125E-15,27.,-8.88178419700125E-15));
#1725=CARTESIAN_POINT('',(21.5000000000001,27.,-1.15147748151681E-14));
#1726=CARTESIAN_POINT('',(-8.9445059898759,40.,-19.5511077076741));
#1727=CARTESIAN_POINT('',(-8.9445059898759,27.,-19.5511077076741));
#1728=CARTESIAN_POINT('Origin',(-8.88178419700125E-15,40.,-8.88178419700125E-15));
#1729=CARTESIAN_POINT('',(-19.4840731903552,40.,-9.08960350691301));
#1730=CARTESIAN_POINT('',(-19.4840731903552,40.,-9.08960350691291));
#1731=CARTESIAN_POINT('',(-19.5511077076741,40.,-8.944505989876));
#1732=CARTESIAN_POINT('Origin',(-8.88178419700125E-15,40.,-8.88178419700125E-15));
#1733=CARTESIAN_POINT('',(-19.5511077076742,27.,-8.944505989876));
#1734=CARTESIAN_POINT('',(8.94450598987588,40.,19.5511077076741));
#1735=CARTESIAN_POINT('',(8.94450598987588,27.,19.5511077076741));
#1736=CARTESIAN_POINT('Origin',(-8.88178419700125E-15,40.,-8.88178419700125E-15));
#1737=CARTESIAN_POINT('',(19.4840731903552,40.,9.08960350691299));
#1738=CARTESIAN_POINT('',(19.4840731903552,40.,9.08960350691289));
#1739=CARTESIAN_POINT('',(19.5511077076741,40.,8.94450598987599));
#1740=CARTESIAN_POINT('Origin',(-8.88178419700125E-15,40.,-8.88178419700125E-15));
#1741=CARTESIAN_POINT('',(19.5511077076741,27.,8.94450598987599));
#1742=CARTESIAN_POINT('Origin',(-26.101779802088,27.,-15.7073101186458));
#1743=CARTESIAN_POINT('',(-19.4450416904962,40.,-9.05057200705398));
#1744=CARTESIAN_POINT('',(-19.4450416904962,27.,-9.05057200705398));
#1745=CARTESIAN_POINT('',(-26.101779802088,40.,-15.7073101186458));
#1746=CARTESIAN_POINT('Origin',(-26.207845819266,40.,-15.6012441014678));
#1747=CARTESIAN_POINT('',(-19.5511077076741,40.,-8.944505989876));
#1748=CARTESIAN_POINT('Origin',(-19.5511077076742,40.,-8.944505989876));
#1749=CARTESIAN_POINT('Origin',(8.94450598987588,40.,19.5511077076741));
#1750=CARTESIAN_POINT('',(8.94450598987588,40.,19.5511077076741));
#1751=CARTESIAN_POINT('Origin',(8.94450598987588,27.,19.5511077076741));
#1752=CARTESIAN_POINT('Origin',(-8.9445059898759,40.,-19.5511077076741));
#1753=CARTESIAN_POINT('',(-8.9445059898759,40.,-19.5511077076741));
#1754=CARTESIAN_POINT('Origin',(-8.9445059898759,27.,-19.5511077076741));
#1755=CARTESIAN_POINT('Origin',(26.2078458192659,40.,15.6012441014678));
#1756=CARTESIAN_POINT('',(19.4450416904962,40.,9.05057200705397));
#1757=CARTESIAN_POINT('',(26.101779802088,40.,15.7073101186458));
#1758=CARTESIAN_POINT('',(19.5511077076741,40.,8.94450598987599));
#1759=CARTESIAN_POINT('Origin',(19.5511077076741,40.,8.94450598987599));
#1760=CARTESIAN_POINT('',(19.4450416904962,27.,9.05057200705397));
#1761=CARTESIAN_POINT('Origin',(26.101779802088,27.,15.7073101186458));
#1762=CARTESIAN_POINT('Origin',(-8.88178419700125E-15,53.,-8.88178419700125E-15));
#1763=CARTESIAN_POINT('',(-10.5888545563899,55.,12.6540965376286));
#1764=CARTESIAN_POINT('Ctrl Pts',(-16.0869565217391,53.,9.13563516498324));
#1765=CARTESIAN_POINT('Ctrl Pts',(-16.084563714871,53.0020420654677,9.13984866293468));
#1766=CARTESIAN_POINT('Ctrl Pts',(-16.0821665329982,53.0040841309507,9.14405967640528));
#1767=CARTESIAN_POINT('Ctrl Pts',(-15.6722931679912,53.3526026224601,9.86232870485568));
#1768=CARTESIAN_POINT('Ctrl Pts',(-15.139204165834,53.6992876795476,10.5042849375528));
#1769=CARTESIAN_POINT('Ctrl Pts',(-13.8822114304492,54.3145625570799,11.5593615701199));
#1770=CARTESIAN_POINT('Ctrl Pts',(-13.1995956810924,54.5685449365498,11.9502877023102));
#1771=CARTESIAN_POINT('Ctrl Pts',(-11.8419026852327,54.9091893803276,12.4683929796114));
#1772=CARTESIAN_POINT('Ctrl Pts',(-11.1937994866643,55.,12.6030262913842));
#1773=CARTESIAN_POINT('Ctrl Pts',(-10.5888545563899,55.,12.6540965376285));
#1774=CARTESIAN_POINT('',(10.5888545563899,55.,12.6540965376285));
#1775=CARTESIAN_POINT('Origin',(-8.88178419700125E-15,55.,-8.88178419700125E-15));
#1776=CARTESIAN_POINT('Ctrl Pts',(10.5888545563897,55.,12.6540965376286));
#1777=CARTESIAN_POINT('Ctrl Pts',(10.7863472467091,55.,12.6374239450977));
#1778=CARTESIAN_POINT('Ctrl Pts',(10.9897475410019,54.990265152791,12.6118043128796));
#1779=CARTESIAN_POINT('Ctrl Pts',(11.8742013211191,54.9089230498932,12.4581791734274));
#1780=CARTESIAN_POINT('Ctrl Pts',(12.5775895625017,54.7503799536528,12.2327123963307));
#1781=CARTESIAN_POINT('Ctrl Pts',(13.843925641164,54.3241160718913,11.5660441923363));
#1782=CARTESIAN_POINT('Ctrl Pts',(14.3735682598626,54.0892400490872,11.1819948365323));
#1783=CARTESIAN_POINT('Ctrl Pts',(15.3287109969294,53.5731939185627,10.2687497875698));
#1784=CARTESIAN_POINT('Ctrl Pts',(15.7463378697134,53.2896418400326,9.73257151517621));
#1785=CARTESIAN_POINT('Ctrl Pts',(16.082166532999,53.0040841309506,9.14405967640378));
#1786=CARTESIAN_POINT('Ctrl Pts',(16.084563714871,53.0020420654676,9.13984866293453));
#1787=CARTESIAN_POINT('Ctrl Pts',(16.0869565217391,53.,9.13563516498323));
#1788=CARTESIAN_POINT('Origin',(-9.99200722162641E-15,55.,-8.88178419700125E-15));
#1789=CARTESIAN_POINT('',(-3.00000000000001,55.,5.6789083458004));
#1790=CARTESIAN_POINT('Origin',(-10.,55.,5.6789083458004));
#1791=CARTESIAN_POINT('',(-3.00000000000001,55.,-8.88178419700125E-15));
#1792=CARTESIAN_POINT('Origin',(-8.88178419700125E-15,55.,-8.88178419700125E-15));
#1793=CARTESIAN_POINT('',(2.99999999999999,55.,5.67890834580039));
#1794=CARTESIAN_POINT('',(2.99999999999999,55.,-8.51439015725705E-15));
#1795=CARTESIAN_POINT('Origin',(9.99999999999999,55.,5.6789083458004));
#1796=CARTESIAN_POINT('',(-1.70000000000001,55.,-13.0000001937151));
#1797=CARTESIAN_POINT('Origin',(-6.66133814775094E-15,55.,-13.0000001937151));
#1798=CARTESIAN_POINT('',(-1.70000000000001,55.,13.));
#1799=CARTESIAN_POINT('Origin',(-6.66133814775094E-15,55.,13.));
#1800=CARTESIAN_POINT('Origin',(-8.88178419700125E-15,53.,-8.88178419700125E-15));
#1801=CARTESIAN_POINT('Origin',(-6.66133814775094E-15,55.,-13.0000001937151));
#1802=CARTESIAN_POINT('',(-1.70000000000001,55.,-13.0000001937151));
#1803=CARTESIAN_POINT('Origin',(-6.66133814775094E-15,55.,13.));
#1804=CARTESIAN_POINT('',(-1.70000000000001,55.,13.));
#1805=CARTESIAN_POINT('Origin',(9.99999999999999,27.,5.6789083458004));
#1806=CARTESIAN_POINT('',(2.99999999999999,27.,5.67890834580039));
#1807=CARTESIAN_POINT('Origin',(-3.00000000000001,65.,18.2551362635287));
#1808=CARTESIAN_POINT('',(-3.00000000000001,27.,5.6789083458004));
#1809=CARTESIAN_POINT('Origin',(-10.,27.,5.6789083458004));
#1810=CARTESIAN_POINT('Origin',(2.99999999999999,65.,-18.2551362635288));
#1811=UNCERTAINTY_MEASURE_WITH_UNIT(LENGTH_MEASURE(0.01),#1815,
'DISTANCE_ACCURACY_VALUE',
'Maximum model space distance between geometric entities at asserted c
onnectivities');
#1812=UNCERTAINTY_MEASURE_WITH_UNIT(LENGTH_MEASURE(0.01),#1815,
'DISTANCE_ACCURACY_VALUE',
'Maximum model space distance between geometric entities at asserted c
onnectivities');
#1813=(
GEOMETRIC_REPRESENTATION_CONTEXT(3)
GLOBAL_UNCERTAINTY_ASSIGNED_CONTEXT((#1811))
GLOBAL_UNIT_ASSIGNED_CONTEXT((#1815,#1817,#1818))
REPRESENTATION_CONTEXT('','3D')
);
#1814=(
GEOMETRIC_REPRESENTATION_CONTEXT(3)
GLOBAL_UNCERTAINTY_ASSIGNED_CONTEXT((#1812))
GLOBAL_UNIT_ASSIGNED_CONTEXT((#1815,#1817,#1818))
REPRESENTATION_CONTEXT('','3D')
);
#1815=(
LENGTH_UNIT()
NAMED_UNIT(*)
SI_UNIT(.MILLI.,.METRE.)
);
#1816=(
LENGTH_UNIT()
NAMED_UNIT(*)
SI_UNIT($,.METRE.)
);
#1817=(
NAMED_UNIT(*)
PLANE_ANGLE_UNIT()
SI_UNIT($,.RADIAN.)
);
#1818=(
NAMED_UNIT(*)
SI_UNIT($,.STERADIAN.)
SOLID_ANGLE_UNIT()
);
#1819=SHAPE_DEFINITION_REPRESENTATION(#1820,#1821);
#1820=PRODUCT_DEFINITION_SHAPE('',$,#1823);
#1821=SHAPE_REPRESENTATION('',(#983),#1813);
#1822=PRODUCT_DEFINITION_CONTEXT('part definition',#1827,'design');
#1823=PRODUCT_DEFINITION('encaixe_digiball','encaixe_digiball',#1824,#1822);
#1824=PRODUCT_DEFINITION_FORMATION('',$,#1829);
#1825=PRODUCT_RELATED_PRODUCT_CATEGORY('encaixe_digiball',
'encaixe_digiball',(#1829));
#1826=APPLICATION_PROTOCOL_DEFINITION('international standard',
'automotive_design',2009,#1827);
#1827=APPLICATION_CONTEXT(
'Core Data for Automotive Mechanical Design Process');
#1828=PRODUCT_CONTEXT('part definition',#1827,'mechanical');
#1829=PRODUCT('encaixe_digiball','encaixe_digiball',$,(#1828));
#1830=PRESENTATION_STYLE_ASSIGNMENT((#1831));
#1831=SURFACE_STYLE_USAGE(.BOTH.,#1832);
#1832=SURFACE_SIDE_STYLE('',(#1833));
#1833=SURFACE_STYLE_FILL_AREA(#1834);
#1834=FILL_AREA_STYLE('A\X\E7o - Acetinado',(#1835));
#1835=FILL_AREA_STYLE_COLOUR('A\X\E7o - Acetinado',#1836);
#1836=COLOUR_RGB('A\X\E7o - Acetinado',0.627450980392157,0.627450980392157,
0.627450980392157);
ENDSEC;
END-ISO-10303-21;
